SplineFontDB: 2.0
FontName: FreeSerifItalic
FullName: Free Serif Italic
FamilyName: FreeSerif
Weight: Medium
Copyright: Copyleft 2002, 2003, 2005, 2008 Free Software Foundation.
Version: $Revision: 1.73 $
ItalicAngle: -15.5
UnderlinePosition: -100
UnderlineWidth: 50
Ascent: 800
Descent: 200
LayerCount: 2
Layer: 0 0 "Back" 
Layer: 1 0 "Fore" 
NeedsXUIDChange: 1
FSType: 0
OS2Version: 0
OS2_WeightWidthSlopeOnly: 0
OS2_UseTypoMetrics: 0
CreationTime: 1203284335
ModificationTime: 1208326513
PfmFamily: 17
TTFWeight: 400
TTFWidth: 5
LineGap: 90
VLineGap: 0
Panose: 2 2 6 3 5 4 5 9 3 4
OS2TypoAscent: 0
OS2TypoAOffset: 1
OS2TypoDescent: 0
OS2TypoDOffset: 1
OS2TypoLinegap: 0
OS2WinAscent: 900
OS2WinAOffset: 0
OS2WinDescent: 300
OS2WinDOffset: 0
HheadAscent: 900
HheadAOffset: 0
HheadDescent: -300
HheadDOffset: 0
OS2SubXSize: 650
OS2SubYSize: 699
OS2SubXOff: 47
OS2SubYOff: 140
OS2SupXSize: 650
OS2SupYSize: 699
OS2SupXOff: -163
OS2SupYOff: 479
OS2StrikeYSize: 49
OS2StrikeYPos: 258
OS2Vendor: 'GNU '
Lookup: 1 0 0 "'locl' Localized Forms in Bengali lookup 0"  {"'locl' Localized Forms in Bengali lookup 0 subtable"  } ['locl' ('beng' <'dflt' > ) ]
Lookup: 1 0 0 "'init' Initial Forms in Bengali lookup 1"  {"'init' Initial Forms in Bengali lookup 1 subtable"  } ['init' ('beng' <'dflt' > ) ]
Lookup: 4 0 0 "'akhn' Akhand in Bengali lookup 2"  {"'akhn' Akhand in Bengali lookup 2 subtable"  } ['akhn' ('beng' <'dflt' > ) ]
Lookup: 4 0 0 "'rphf' Reph Form in Bengali lookup 3"  {"'rphf' Reph Form in Bengali lookup 3 subtable"  } ['rphf' ('beng' <'dflt' > ) ]
Lookup: 4 0 1 "'liga' Standard Ligatures in Latin"  {"'liga' Standard Ligatures in Latin subtable"  } ['liga' ('latn' <'dflt' > ) ]
Lookup: 4 8 0 "'dlig' Discretionary Ligatures in Latin"  {"'dlig' Discretionary Ligatures in Latin subtable"  } ['dlig' ('latn' <'dflt' > ) ]
Lookup: 4 0 0 "'blwf' Below Base Forms in Bengali lookup 5"  {"'blwf' Below Base Forms in Bengali lookup 5 subtable"  } ['blwf' ('beng' <'dflt' > ) ]

StartChar: exclam
Encoding: 33 33 1
Width: 333
Flags: MW
LayerCount: 2
Fore
SplineSet
120 181 m 1
 211 601 195 667 262 667 c 0
 288 667 302 649 302 616 c 0
 302 550 275 551 137 177 c 1
 120 181 l 1
91 95 m 0
 120 95 145 70 145 41 c 0
 145 13 120 -11 90 -11 c 0
 61 -11 39 12 39 43 c 0
 39 70 64 95 91 95 c 0
EndSplineSet
Validated: 1
EndChar

StartChar: quotedbl
Encoding: 34 34 2
Width: 420
Flags: MW
LayerCount: 2
Fore
SplineSet
323 421 m 1
 337 596 337 666 400 666 c 0
 418 666 432 653 432 637 c 0
 432 621 401 545 344 421 c 1
 323 421 l 1
144 421 m 1
 158 602 159 666 222 666 c 0
 239 666 253 653 253 637 c 0
 253 621 223 547 165 421 c 1
 144 421 l 1
EndSplineSet
Validated: 1
EndChar

StartChar: numbersign
Encoding: 35 35 3
Width: 500
Flags: MW
LayerCount: 2
Fore
SplineSet
465 267 m 1
 454 213 l 1
 349 213 l 1
 270 0 l 1
 208 0 l 1
 288 213 l 1
 158 213 l 1
 79 0 l 1
 17 0 l 1
 97 213 l 1
 2 213 l 1
 13 267 l 1
 118 267 l 1
 172 410 l 1
 76 410 l 1
 87 464 l 1
 192 464 l 1
 272 676 l 1
 333 676 l 1
 253 464 l 1
 383 464 l 1
 463 676 l 1
 524 676 l 1
 444 464 l 1
 540 464 l 1
 529 410 l 1
 424 410 l 1
 370 267 l 1
 465 267 l 1
363 410 m 1
 233 410 l 1
 179 267 l 1
 309 267 l 1
 363 410 l 1
EndSplineSet
Validated: 1
EndChar

StartChar: dollar
Encoding: 36 36 4
Width: 500
Flags: MW
LayerCount: 2
Fore
SplineSet
258 329 m 1
 185 381 123 435 123 513 c 0
 123 565 151 612 198 639 c 0
 239 663 266 668 341 668 c 1
 358 731 l 1
 392 731 l 1
 376 663 l 1
 423 652 465 635 497 612 c 1
 469 498 l 1
 454 500 l 1
 452 574 430 609 369 633 c 1
 313 396 l 1
 430 305 455 269 455 190 c 0
 455 114 425 9 215 0 c 1
 194 -89 l 1
 159 -89 l 1
 181 2 l 1
 119 14 67 37 31 67 c 1
 58 190 l 1
 74 193 l 1
 85 88 111 51 189 32 c 1
 258 329 l 1
336 641 m 1
 264 641 201 622 201 538 c 0
 201 493 220 465 282 420 c 1
 336 641 l 1
289 306 m 1
 221 25 l 1
 327 33 380 79 380 162 c 0
 380 218 362 246 289 306 c 1
EndSplineSet
Validated: 1
EndChar

StartChar: percent
Encoding: 37 37 5
Width: 833
Flags: MW
LayerCount: 2
Fore
SplineSet
790 263 m 0
 790 156 717 0 588 0 c 0
 512 0 468 50 468 136 c 0
 468 252 577 371 683 371 c 0
 750 371 790 330 790 263 c 0
605 30 m 0
 695 30 765 170 765 259 c 0
 765 303 733 339 694 339 c 0
 598 339 544 155 544 101 c 0
 544 54 564 30 605 30 c 0
403 541 m 0
 403 448 322 289 198 289 c 0
 131 289 79 346 79 419 c 0
 79 542 187 662 297 662 c 0
 323 662 351 653 365 641 c 2
 383 625 l 2
 395 614 420 608 452 608 c 0
 519 608 563 627 613 676 c 1
 653 676 l 1
 267 -13 l 1
 220 -13 l 1
 570 613 l 1
 528 590 504 583 458 583 c 0
 431 583 416 585 396 593 c 1
 397 590 397 590 397 587 c 0
 401 570 403 554 403 541 c 0
368 600 m 1
 311 615 316 632 301 632 c 0
 238 632 155 493 155 386 c 0
 155 347 178 323 214 323 c 0
 296 323 377 436 377 549 c 0
 377 565 375 578 368 600 c 1
EndSplineSet
Validated: 1
EndChar

StartChar: ampersand
Encoding: 38 38 6
Width: 778
Flags: MW
LayerCount: 2
Fore
SplineSet
586 572 m 0
 586 539 570 475 414 397 c 1
 438 295 469 209 501 160 c 1
 564 236 580 265 580 299 c 0
 580 321 569 328 530 331 c 1
 530 350 l 1
 715 350 l 1
 715 333 l 1
 646 326 662 319 520 125 c 1
 560 58 595 31 642 31 c 0
 665 31 683 39 712 61 c 1
 723 50 l 1
 680 1 644 -18 594 -18 c 0
 541 -18 502 4 457 61 c 1
 354 -5 321 -18 258 -18 c 0
 147 -18 76 43 76 140 c 0
 76 283 260 347 331 378 c 1
 330 397 324 441 324 460 c 0
 324 581 390 666 484 666 c 0
 542 666 586 625 586 572 c 0
333 345 m 1
 233 307 170 236 170 164 c 0
 170 91 225 34 298 34 c 0
 348 34 391 51 438 90 c 1
 404 133 369 218 333 345 c 1
410 428 m 1
 495 482 517 513 517 577 c 0
 517 617 504 634 472 634 c 0
 427 634 405 592 405 504 c 0
 405 478 406 458 410 428 c 1
EndSplineSet
Validated: 1
EndChar

StartChar: quotesingle
Encoding: 39 39 7
Width: 214
Flags: MW
LayerCount: 2
Fore
SplineSet
132 421 m 1
 146 596 146 666 209 666 c 0
 227 666 241 653 241 637 c 0
 241 621 210 545 153 421 c 1
 132 421 l 1
EndSplineSet
Validated: 1
EndChar

StartChar: parenleft
Encoding: 40 40 8
Width: 333
Flags: MW
LayerCount: 2
Fore
SplineSet
141 -181 m 1
 74 -59 42 32 42 180 c 0
 42 453 224 598 302 669 c 1
 315 654 l 1
 250 586 218 539 186 460 c 0
 140 349 111 205 111 85 c 0
 111 -11 123 -74 159 -175 c 1
 141 -181 l 1
EndSplineSet
Validated: 1
EndChar

StartChar: parenright
Encoding: 41 41 9
Width: 333
Flags: MW
LayerCount: 2
Fore
SplineSet
190 669 m 1
 252 558 289 455 289 304 c 0
 289 98 189 -41 29 -180 c 1
 16 -165 l 1
 77 -101 107 -59 136 6 c 0
 186 113 220 275 220 402 c 0
 220 502 205 583 171 664 c 1
 190 669 l 1
EndSplineSet
Validated: 1
EndChar

StartChar: asterisk
Encoding: 42 42 10
Width: 500
Flags: MW
LayerCount: 2
Fore
SplineSet
346 627 m 0
 346 594 319 552 319 500 c 2
 319 473 l 1
 410 535 422 582 454 582 c 0
 476 582 492 567 492 545 c 0
 492 490 428 522 328 459 c 1
 365 440 l 2
 419 411 492 426 492 378 c 0
 492 356 475 339 454 339 c 0
 422 339 396 402 319 446 c 1
 321 342 347 327 347 295 c 0
 347 272 331 255 308 255 c 0
 288 255 273 271 273 293 c 0
 273 322 302 365 302 417 c 0
 302 422 302 429 300 446 c 1
 286 432 262 433 213 371 c 0
 197 351 180 340 163 340 c 0
 144 340 128 357 128 377 c 0
 128 429 197 403 294 461 c 1
 282 468 l 2
 203 518 128 485 128 546 c 0
 128 566 143 581 163 581 c 0
 208 581 199 533 301 476 c 1
 301 566 275 595 275 626 c 0
 275 651 288 666 310 666 c 0
 331 666 346 650 346 627 c 0
EndSplineSet
Validated: 1
EndChar

StartChar: plus
Encoding: 43 43 11
Width: 675
Flags: MW
LayerCount: 2
Fore
SplineSet
305 286 m 1
 305 506 l 1
 371 506 l 1
 371 286 l 1
 590 286 l 1
 590 220 l 1
 371 220 l 1
 371 0 l 1
 305 0 l 1
 305 220 l 1
 86 220 l 1
 86 286 l 1
 305 286 l 1
EndSplineSet
Validated: 1
EndChar

StartChar: comma
Encoding: 44 44 12
Width: 250
Flags: MW
LayerCount: 2
Fore
SplineSet
71 -23 m 0
 71 6 26 14 26 54 c 0
 26 81 48 101 77 101 c 0
 110 101 135 70 135 30 c 0
 135 -26 89 -82 5 -129 c 1
 -4 -112 l 1
 48 -77 71 -50 71 -23 c 0
EndSplineSet
Validated: 1
EndChar

StartChar: hyphen
Encoding: 45 45 13
Width: 333
Flags: MW
LayerCount: 2
Fore
SplineSet
282 255 m 1
 269 192 l 1
 49 192 l 1
 63 255 l 1
 282 255 l 1
EndSplineSet
Validated: 1
EndChar

StartChar: period
Encoding: 46 46 14
Width: 250
Flags: MW
LayerCount: 2
Fore
SplineSet
82 100 m 0
 112 100 138 74 138 43 c 0
 138 13 112 -11 80 -11 c 0
 52 -11 27 14 27 43 c 0
 27 74 52 100 82 100 c 0
EndSplineSet
Validated: 1
EndChar

StartChar: slash
Encoding: 47 47 15
Width: 278
Flags: MW
LayerCount: 2
Fore
SplineSet
313 666 m 1
 386 666 l 1
 8 -18 l 1
 -65 -18 l 1
 313 666 l 1
EndSplineSet
Validated: 1
EndChar

StartChar: zero
Encoding: 48 48 16
Width: 500
Flags: MW
LayerCount: 2
Fore
SplineSet
497 423 m 0
 497 251 375 -7 193 -7 c 0
 96 -7 32 81 32 213 c 0
 32 448 184 676 341 676 c 0
 438 676 497 581 497 423 c 0
197 21 m 0
 330 21 418 334 418 522 c 0
 418 602 388 648 334 648 c 0
 183 648 111 254 111 156 c 0
 111 71 143 21 197 21 c 0
EndSplineSet
Validated: 1
EndChar

StartChar: one
Encoding: 49 49 17
Width: 500
Flags: MW
LayerCount: 2
Fore
SplineSet
49 0 m 1
 49 14 l 1
 128 21 151 31 161 68 c 2
 299 560 l 2
 304 578 306 588 306 594 c 0
 306 612.314 292.063 625.054 270.458 625.054 c 0
 269.65 625.054 268.83 625.036 268 625 c 2
 211 623 l 1
 211 638 l 1
 222 640 230 642 232 642 c 2
 404 676 l 2
 407 676 409 673 409 669 c 0
 409 664 407 655 403 640 c 2
 260 121 l 2
 258 109 242 64 242 47 c 0
 242 25 263 15 312 15 c 2
 328 15 l 1
 328 0 l 1
 49 0 l 1
EndSplineSet
Validated: 1
EndChar

StartChar: two
Encoding: 50 50 18
Width: 500
Flags: MW
LayerCount: 2
Fore
SplineSet
80 516 m 1
 130 640 211 676 290 676 c 0
 381 676 452 602 452 506 c 0
 452 440 420 390 303 273 c 2
 111 81 l 1
 111 76 l 1
 301 76 l 2
 355 76 376 89 400 139 c 1
 417 132 l 1
 367 0 l 1
 12 0 l 1
 12 17 l 1
 222 241 l 2
 340 366 366 433 366 481 c 0
 366 551 312 603 241 603 c 0
 181 603 138 574 101 509 c 1
 80 516 l 1
EndSplineSet
Validated: 1
EndChar

StartChar: three
Encoding: 51 51 19
Width: 500
Flags: MW
LayerCount: 2
Fore
SplineSet
140 377 m 1
 202 387 379 418 379 543 c 0
 379 597 343 634 290 634 c 0
 248 634 213 613 178 567 c 1
 162 572 l 1
 195 636 257 676 326 676 c 0
 406 676 466 622 466 549 c 0
 466 481 431 448 310 401 c 1
 310 398 l 1
 377 367 406 321 406 249 c 0
 406 117 300 -7 127 -7 c 0
 56 -7 15 14 15 52 c 0
 15 77 31 91 59 91 c 0
 110 91 141 31 195 31 c 0
 264 31 326 94 326 195 c 0
 326 329 252 361 140 361 c 1
 140 377 l 1
EndSplineSet
Validated: 1
EndChar

StartChar: four
Encoding: 52 52 20
Width: 500
Flags: MW
LayerCount: 2
Fore
SplineSet
453 241 m 1
 439 176 l 1
 339 176 l 1
 293 0 l 1
 214 0 l 1
 263 178 l 1
 1 178 l 1
 21 245 l 1
 438 676 l 1
 479 676 l 1
 358 241 l 1
 453 241 l 1
277 241 m 1
 373 563 l 1
 369 563 l 1
 65 245 l 1
 65 241 l 1
 277 241 l 1
EndSplineSet
Validated: 1
EndChar

StartChar: five
Encoding: 53 53 21
Width: 500
Flags: MW
LayerCount: 2
Fore
SplineSet
350 242 m 0
 350 394 218 414 131 433 c 1
 131 448 l 1
 235 666 l 1
 491 666 l 1
 468 595 l 1
 238 595 l 1
 199 507 l 1
 280 487 316 471 353 436 c 0
 396 395 419 342 419 280 c 0
 419 121 286 -7 121 -7 c 0
 55 -7 15 15 15 50 c 0
 15 74 32 90 56 90 c 0
 97 90 127 35 179 35 c 0
 269 35 350 133 350 242 c 0
EndSplineSet
Validated: 1
EndChar

StartChar: six
Encoding: 54 54 22
Width: 500
Flags: MW
LayerCount: 2
Fore
SplineSet
521 686 m 1
 521 670 l 1
 403 656 269 555 199 428 c 1
 203 426 l 1
 231 439 264 447 292 447 c 0
 391 447 462 373 462 271 c 0
 462 120 348 -7 213 -7 c 0
 102 -7 30 76 30 204 c 0
 30 347 107 489 234 583 c 0
 320 646 387 671 521 686 c 1
203 19 m 0
 338 19 373 227 373 284 c 0
 373 361 329 411 259 411 c 0
 212 411 180 391 152 345 c 0
 126 301 106 217 106 150 c 0
 106 68 142 19 203 19 c 0
EndSplineSet
Validated: 1
EndChar

StartChar: seven
Encoding: 55 55 23
Width: 500
Flags: MW
LayerCount: 2
Fore
SplineSet
537 656 m 1
 149 -8 l 1
 79 -8 l 1
 446 590 l 1
 444 593 l 1
 222 593 l 2
 164 593 137 578 89 521 c 1
 75 530 l 1
 156 666 l 1
 531 666 l 1
 537 656 l 1
EndSplineSet
Validated: 1
EndChar

StartChar: eight
Encoding: 56 56 24
Width: 500
Flags: MW
LayerCount: 2
Fore
SplineSet
229 -7 m 0
 108 -7 30 63 30 161 c 0
 30 249 99 319 225 360 c 1
 159 433 138 472 138 526 c 0
 138 615 211 676 318 676 c 0
 420 676 493 617 493 535 c 0
 493 464 447 421 329 382 c 1
 414 294 444 240 444 173 c 0
 444 70 352 -7 229 -7 c 0
247 344 m 1
 208 329 98 275 98 155 c 0
 98 74 154 15 233 15 c 0
 311 15 369 74 369 155 c 0
 369 211 357 229 247 344 c 1
311 399 m 1
 344 415 l 2
 400 444 425 482 425 535 c 0
 425 605 382 653 318 653 c 0
 255 653 216 610 216 540 c 0
 216 498 233 472 311 399 c 1
EndSplineSet
Validated: 1
EndChar

StartChar: nine
Encoding: 57 57 25
Width: 500
Flags: MW
LayerCount: 2
Fore
SplineSet
23 -17 m 1
 23 1 l 1
 215 42 332 215 352 272 c 1
 348 274 l 1
 296 241 260 229 219 229 c 0
 131 229 69 304 69 408 c 0
 69 548 185 676 311 676 c 0
 420 676 492 589 492 458 c 0
 492 323 424 189 308 98 c 0
 225 33 158 6 23 -17 c 1
318 650 m 0
 182 650 157 459 157 414 c 0
 157 326 194 275 257 275 c 0
 295 275 336 292 362 318 c 0
 392 347 417 440 417 518 c 0
 417 601 380 650 318 650 c 0
EndSplineSet
Validated: 1
EndChar

StartChar: colon
Encoding: 58 58 26
Width: 333
Flags: MW
LayerCount: 2
Fore
SplineSet
106 100 m 0
 136 100 161 74 161 43 c 0
 161 13 136 -11 104 -11 c 0
 75 -11 50 14 50 43 c 0
 50 74 75 100 106 100 c 0
205 441 m 0
 236 441 261 416 261 384 c 0
 261 354 236 330 204 330 c 0
 174 330 150 354 150 384 c 0
 150 416 174 441 205 441 c 0
EndSplineSet
Validated: 1
EndChar

StartChar: semicolon
Encoding: 59 59 27
Width: 333
Flags: MW
LayerCount: 2
Fore
SplineSet
102 -23 m 0
 102 6 57 14 57 54 c 0
 57 81 79 101 108 101 c 0
 141 101 166 70 166 30 c 0
 166 -26 120 -82 36 -129 c 1
 27 -112 l 1
 79 -77 102 -50 102 -23 c 0
205 441 m 0
 236 441 261 416 261 384 c 0
 261 354 236 330 204 330 c 0
 174 330 150 354 150 384 c 0
 150 416 174 441 205 441 c 0
EndSplineSet
Validated: 1
EndChar

StartChar: less
Encoding: 60 60 28
Width: 675
Flags: MW
LayerCount: 2
Fore
SplineSet
592 -10 m 1
 84 220 l 1
 84 286 l 1
 592 516 l 1
 592 444 l 1
 172 253 l 1
 592 62 l 1
 592 -10 l 1
EndSplineSet
Validated: 1
EndChar

StartChar: equal
Encoding: 61 61 29
Width: 675
Flags: MW
LayerCount: 2
Fore
SplineSet
590 386 m 1
 590 320 l 1
 86 320 l 1
 86 386 l 1
 590 386 l 1
590 186 m 1
 590 120 l 1
 86 120 l 1
 86 186 l 1
 590 186 l 1
EndSplineSet
Validated: 1
EndChar

StartChar: greater
Encoding: 62 62 30
Width: 675
Flags: MW
LayerCount: 2
Fore
SplineSet
84 -10 m 1
 84 62 l 1
 504 253 l 1
 84 444 l 1
 84 516 l 1
 592 286 l 1
 592 220 l 1
 84 -10 l 1
EndSplineSet
Validated: 1
EndChar

StartChar: question
Encoding: 63 63 31
Width: 500
Flags: MW
LayerCount: 2
Fore
SplineSet
248 594 m 0
 248 574 263 561 263 542 c 0
 263 522 246 507 223 507 c 0
 199 507 184 525 184 555 c 0
 184 619 242 664 324 664 c 0
 413 664 472 613 472 535 c 0
 472 394 262 358 223 203 c 2
 216 174 l 1
 199 176 l 1
 216 275 227 298 311 392 c 0
 375 464 398 505 398 557 c 0
 398 611 369 642 318 642 c 0
 275 642 248 624 248 594 c 0
184 93 m 0
 213 93 237 69 237 40 c 0
 237 13 212 -12 185 -12 c 0
 155 -12 132 11 132 40 c 0
 132 69 155 93 184 93 c 0
EndSplineSet
Validated: 1
EndChar

StartChar: at
Encoding: 64 64 32
Width: 920
Flags: MW
LayerCount: 2
Fore
SplineSet
321 250 m 0
 321 350 392 500 516 500 c 0
 551 500 565 490 587 449 c 1
 597 486 l 1
 666 486 l 1
 601 234 l 2
 599 227 598 218 598 213 c 0
 598 186 611 171 635 171 c 0
 719 171 766 289 766 367 c 0
 766 513 637 635 481 635 c 0
 318 635 201 500 201 313 c 0
 201 142 323 21 494 21 c 0
 559 21 608 33 686 68 c 1
 698 39 l 1
 604 -5 553 -18 482 -18 c 0
 278 -18 118 130 118 319 c 0
 118 512 278 666 481 666 c 0
 664 666 806 539 806 376 c 0
 806 248 721 138 622 138 c 0
 575 138 539 167 533 210 c 1
 497 165 452 139 410 139 c 0
 360 139 321 187 321 250 c 0
570 400 m 0
 570 444 545 456 527 456 c 0
 478 456 392 380 392 265 c 0
 392 213 414 181 451 181 c 0
 518 181 570 314 570 400 c 0
EndSplineSet
Validated: 1
EndChar

StartChar: A
Encoding: 65 65 33
Width: 611
Flags: MW
AnchorPoint: "above" 380 653 basechar 0
LayerCount: 2
Fore
SplineSet
564 16 m 1
 564 0 l 1
 318 0 l 1
 318 16 l 1
 382 22 396 31 396 69 c 0
 396 77 395 86 394 95 c 2
 374 226 l 1
 154 226 l 1
 97 113 l 2
 80 79 77 70 77 51 c 0
 77 26 85 21 136 16 c 1
 136 0 l 1
 -51 0 l 1
 -51 16 l 1
 -11 24 0 34 78 168 c 2
 368 668 l 1
 394 668 l 1
 488 102 l 2
 501 29 507 21 564 16 c 1
175 262 m 1
 369 262 l 1
 325 522 l 1
 175 262 l 1
EndSplineSet
Validated: 1
EndChar

StartChar: B
Encoding: 66 66 34
Width: 611
Flags: MW
LayerCount: 2
Fore
SplineSet
413 351 m 1
 476 324 539 292 539 200 c 0
 539 82 431 0 274 0 c 2
 -8 0 l 1
 -8 16 l 1
 48 26 57 31 73 90 c 2
 196 532 l 2
 203 556 207 581 207 596 c 0
 207 624 192 632 130 637 c 1
 130 653 l 1
 388 653 l 2
 517 653 588 601 588 506 c 0
 588 384 451 360 413 351 c 1
238 331 m 1
 185 124 171 117 171 72 c 0
 171 45 193 30 235 30 c 0
 357 30 431 96 431 204 c 0
 431 258 406 302 365 319 c 0
 345 327 303 331 238 331 c 1
313 595 m 2
 248 363 l 1
 338 363 386 370 420 390 c 0
 463 414 487 458 487 515 c 0
 487 589 450 623 370 623 c 0
 331 623 319 617 313 595 c 2
EndSplineSet
Validated: 1
EndChar

StartChar: C
Encoding: 67 67 35
Width: 667
Flags: MW
AnchorPoint: "above" 490 653 basechar 0
LayerCount: 2
Fore
SplineSet
472 666 m 0
 539 666 602 642 630 642 c 0
 650 642 660 648 668 664 c 1
 689 664 l 1
 652 465 l 1
 634 468 l 1
 624 576 573 630 481 630 c 0
 415 630 352 602 304 553 c 0
 226 472 178 351 178 232 c 0
 178 103 242 27 353 27 c 0
 435 27 493 57 583 145 c 1
 600 131 l 1
 510 26 430 -18 327 -18 c 0
 174 -18 66 90 66 243 c 0
 66 465 259 666 472 666 c 0
EndSplineSet
Validated: 1
EndChar

StartChar: D
Encoding: 68 68 36
Width: 722
Flags: MW
LayerCount: 2
Fore
SplineSet
700 384 m 0
 700 168 518 0 245 0 c 2
 -8 0 l 1
 -8 16 l 1
 48 26 57 31 73 90 c 2
 196 532 l 2
 203 557 207 581 207 596 c 0
 207 623 192 631 130 637 c 1
 130 653 l 1
 408 653 l 2
 586 653 700 548 700 384 c 0
589 408 m 0
 589 495 557 623 374 623 c 0
 334 623 319 616 313 594 c 2
 192 162 l 2
 175 102 170 80 170 67 c 0
 170 41 189 30 235 30 c 0
 447 30 589 181 589 408 c 0
EndSplineSet
Validated: 1
EndChar

StartChar: E
Encoding: 69 69 37
Width: 604
Flags: MW
AnchorPoint: "above" 400 653 basechar 0
LayerCount: 2
Fore
SplineSet
249 33 m 0
 438 33 477 78 545 170 c 1
 561 162 l 1
 499 0 l 1
 -8 0 l 1
 -8 16 l 1
 48 26 57 33 73 90 c 2
 196 532 l 2
 201 550 207 585 207 596 c 0
 207 623 192 631 130 637 c 1
 130 653 l 1
 627 653 l 1
 596 500 l 1
 575 502 l 1
 576 519 577 534 577 547 c 0
 577 607 542 620 385 620 c 0
 329 620 318 616 312 594 c 2
 246 361 l 1
 281 362 313 363 325 363 c 0
 416 367 425 373 463 458 c 1
 481 454 l 1
 413 222 l 1
 393 227 l 1
 398 249 400 262 400 279 c 0
 400 312 387 325 323 325 c 2
 315 325 l 2
 303 325 272 326 237 328 c 1
 182 119 169 113 169 67 c 0
 169 43 193 33 249 33 c 0
EndSplineSet
Validated: 1
EndChar

StartChar: F
Encoding: 70 70 38
Width: 611
Flags: MW
LayerCount: 2
Fore
SplineSet
397 279 m 0
 397 323 376 325 320 325 c 0
 298 325 276 326 239 328 c 1
 177 105 l 2
 171 83 168 68 168 60 c 0
 168 30 186 19 244 16 c 1
 244 0 l 1
 -8 0 l 1
 -8 16 l 1
 49 24 57 30 74 90 c 2
 197 532 l 2
 204 556 208 581 208 596 c 0
 208 625 196 631 131 637 c 1
 131 653 l 1
 629 653 l 1
 597 500 l 1
 576 502 l 1
 578 523 579 526 579 545 c 0
 579 607 543 620 375 620 c 0
 334 620 320 614 314 594 c 0
 248 361 l 1
 416 363 419 364 464 454 c 1
 482 449 l 1
 406 215 l 1
 389 220 l 1
 395 251 397 263 397 279 c 0
EndSplineSet
Validated: 1
EndChar

StartChar: G
Encoding: 71 71 39
Width: 722
Flags: MW
LayerCount: 2
Fore
SplineSet
455 666 m 0
 547 666 598 632 633 632 c 0
 659 632 676 642 693 666 c 1
 708 662 l 1
 659 465 l 1
 641 468 l 1
 629 578 562 632 463 632 c 0
 222 632 162 320 162 224 c 0
 162 93 235 19 364 19 c 0
 486 19 489 89 506 145 c 0
 528 219 534 247 534 269 c 0
 534 287 518 297 485 300 c 0
 481 300 468 302 456 303 c 1
 456 319 l 1
 722 319 l 1
 722 303 l 1
 657 299 640 287 625 231 c 2
 576 44 l 1
 499 1 427 -18 339 -18 c 0
 163 -18 52 100 52 246 c 0
 52 466 244 666 455 666 c 0
EndSplineSet
Validated: 1
EndChar

StartChar: H
Encoding: 72 72 40
Width: 722
Flags: MW
LayerCount: 2
Fore
SplineSet
767 653 m 1
 767 637 l 1
 710 627 701 621 685 563 c 2
 553 82 l 2
 551 74 550 68 550 58 c 0
 550 30 564 22 628 16 c 1
 628 0 l 1
 355 0 l 1
 355 16 l 1
 420 23 442 38 456 90 c 2
 521 326 l 1
 236 326 l 1
 170 82 l 2
 168 75 167 67 167 60 c 0
 167 31 178 24 238 16 c 1
 238 0 l 1
 -8 0 l 1
 -8 16 l 1
 48 26 57 31 73 90 c 2
 196 532 l 2
 203 557 207 580 207 594 c 0
 207 623 192 631 130 637 c 1
 130 653 l 1
 403 653 l 1
 403 637 l 1
 343 633 316 614 302 563 c 2
 248 368 l 1
 533 368 l 1
 579 532 l 2
 586 557 590 580 590 594 c 0
 590 622 578 630 520 637 c 1
 520 653 l 1
 767 653 l 1
EndSplineSet
Validated: 1
EndChar

StartChar: I
Encoding: 73 73 41
Width: 339
Flags: MW
LayerCount: 2
Fore
SplineSet
-8 0 m 1
 -8 16 l 1
 48 26 57 31 73 90 c 2
 196 532 l 2
 203 557 207 580 207 594 c 0
 207 622 195 630 137 637 c 1
 137 653 l 1
 384 653 l 1
 384 637 l 1
 327 627 318 622 302 563 c 2
 179 120 l 2
 170 88 168 76 168 57 c 0
 168 29 179 23 236 16 c 1
 236 0 l 1
 -8 0 l 1
EndSplineSet
Validated: 1
EndChar

StartChar: J
Encoding: 74 74 42
Width: 444
Flags: MW
LayerCount: 2
Fore
SplineSet
491 653 m 1
 491 637 l 1
 434 629 426 623 409 563 c 2
 306 192 l 2
 291 138 257 -18 111 -18 c 0
 41 -18 -6 18 -6 70 c 0
 -6 102 13 124 40 124 c 0
 65 124 88 102 88 77 c 0
 88 71 87 58 87 53 c 0
 87 26 98 13 122 13 c 0
 146 13 160 28 171 67 c 2
 302 532 l 2
 310 560 314 582 314 596 c 0
 314 623 300 631 237 637 c 1
 237 653 l 1
 491 653 l 1
EndSplineSet
Validated: 1
EndChar

StartChar: K
Encoding: 75 75 43
Width: 652
Flags: MW
LayerCount: 2
Fore
SplineSet
707 653 m 1
 707 637 l 1
 683 633 660 622 632 601 c 2
 332 375 l 1
 506 72 l 1
 534 25 540 22 603 16 c 1
 603 0 l 1
 328 0 l 1
 328 16 l 1
 341 18 352 19 357 19 c 0
 389 22 403 30 403 45 c 0
 403 64 389 99 365 140 c 2
 244 348 l 1
 176 99 l 2
 170 79 168 70 168 60 c 0
 168 29 177 23 240 16 c 1
 240 0 l 1
 -8 0 l 1
 -8 16 l 1
 51 25 57 30 74 90 c 0
 197 532 l 2
 204 557 208 580 208 594 c 0
 208 623 193 631 131 637 c 1
 131 653 l 1
 404 653 l 1
 404 637 l 1
 345 633 317 613 303 563 c 0
 250 369 l 1
 402 475 l 2
 491 537 546 591 546 615 c 0
 546 626 536 632 512 634 c 0
 508 634 497 636 485 637 c 1
 485 653 l 1
 707 653 l 1
EndSplineSet
Validated: 1
EndChar

StartChar: L
Encoding: 76 76 44
Width: 556
Flags: MW
LayerCount: 2
Fore
SplineSet
270 36 m 0
 430 36 477 58 539 185 c 1
 559 179 l 1
 501 0 l 1
 -8 0 l 1
 -8 16 l 1
 48 26 57 31 73 90 c 0
 196 532 l 2
 203 557 207 580 207 594 c 0
 207 623 192 631 130 637 c 1
 130 653 l 1
 403 653 l 1
 403 637 l 1
 343 633 316 614 302 563 c 0
 179 120 l 2
 174 101 169 77 169 70 c 0
 169 44 194 36 270 36 c 0
EndSplineSet
Validated: 1
EndChar

StartChar: M
Encoding: 77 77 45
Width: 828
Flags: MW
LayerCount: 2
Fore
SplineSet
873 653 m 1
 873 637 l 1
 814 628 808 623 791 563 c 0
 668 120 l 1
 659 89 657 76 657 59 c 0
 657 28 666 22 734 16 c 1
 734 0 l 1
 461 0 l 1
 461 16 l 1
 526 23 547 38 562 91 c 0
 691 561 l 1
 314 0 l 1
 297 0 l 1
 236 546 l 1
 118 113 l 1
 113 96 109 70 109 60 c 0
 109 32 129 20 180 16 c 1
 180 0 l 1
 -18 0 l 1
 -18 16 l 1
 34 22 50 42 80 146 c 0
 186 518 l 2
 196 560 208 584 208 600 c 0
 208 623 184 634 134 637 c 1
 134 653 l 1
 315 653 l 1
 370 160 l 1
 706 653 l 1
 873 653 l 1
EndSplineSet
Validated: 1
EndChar

StartChar: N
Encoding: 78 78 46
Width: 657
Flags: MW
LayerCount: 2
Fore
SplineSet
589 534 m 2
 589 542 600 558 600 586 c 0
 600 622 587 632 530 637 c 1
 530 653 l 1
 729 653 l 1
 729 637 l 1
 666 623 662 617 625 488 c 2
 481 -15 l 1
 463 -15 l 1
 233 535 l 1
 119 113 l 2
 113 92 110 72 110 59 c 0
 110 31 129 20 180 16 c 1
 180 0 l 1
 -18 0 l 1
 -18 16 l 1
 39 24 48 36 85 164 c 2
 204 581 l 1
 186 620 165 633 118 637 c 1
 118 653 l 1
 279 653 l 1
 487 154 l 1
 589 534 l 2
EndSplineSet
Validated: 1
EndChar

StartChar: O
Encoding: 79 79 47
Width: 722
Flags: MW
AnchorPoint: "above" 488 653 basechar 0
LayerCount: 2
Fore
SplineSet
60 221 m 0
 60 467 299 666 474 666 c 0
 603 666 699 566 699 432 c 0
 699 244 525 -18 278 -18 c 0
 151 -18 60 81 60 221 c 0
295 15 m 0
 474 15 594 306 594 481 c 0
 594 575 544 633 465 633 c 0
 392 633 331 595 275 514 c 0
 215 427 165 278 165 184 c 0
 165 76 211 15 295 15 c 0
EndSplineSet
Validated: 1
EndChar

StartChar: P
Encoding: 80 80 48
Width: 603
Flags: MW
LayerCount: 2
Fore
SplineSet
597 504 m 0
 597 422 543 305 326 305 c 0
 285 305 259 307 234 313 c 1
 181 120 l 2
 171 84 169 74 169 62 c 0
 169 28 174 25 237 16 c 1
 237 0 l 1
 -8 0 l 1
 -8 16 l 1
 49 24 57 30 74 90 c 0
 192 515 l 1
 205 560 209 581 209 595 c 0
 209 621 195 630 138 637 c 1
 138 653 l 1
 386 653 l 2
 522 653 597 600 597 504 c 0
494 504 m 0
 494 568 472 623 360 623 c 0
 332 623 320 616 314 595 c 2
 243 347 l 1
 270 343 278 342 295 342 c 0
 409 342 494 372 494 504 c 0
EndSplineSet
Validated: 1
EndChar

StartChar: Q
Encoding: 81 81 49
Width: 722
Flags: MW
LayerCount: 2
Fore
SplineSet
60 221 m 0
 60 467 303 666 470 666 c 0
 603 666 699 568 699 433 c 0
 699 275 598 113 450 30 c 0
 394 -1 356 -11 279 -16 c 1
 225 -73 l 1
 250 -73 l 2
 252 -73 256 -72 257 -72 c 0
 288 -72 430 -115 484 -115 c 0
 556 -115 597 -96 653 -38 c 1
 668 -49 l 1
 609 -131 515 -183 429 -183 c 0
 342 -183 239 -138 184 -138 c 0
 145 -138 107 -148 69 -169 c 1
 59 -154 l 1
 136 -100 145 -92 236 -12 c 1
 192 -2 170 8 144 29 c 0
 90 71 60 139 60 221 c 0
293 17 m 0
 479 17 594 312 594 480 c 0
 594 575 545 633 465 633 c 0
 392 633 331 595 275 514 c 0
 214 427 165 278 165 183 c 0
 165 78 212 17 293 17 c 0
EndSplineSet
Validated: 1
EndChar

StartChar: R
Encoding: 82 82 50
Width: 616
Flags: MW
LayerCount: 2
Fore
SplineSet
593 509 m 0
 593 368 438 342 396 333 c 1
 489 88 l 1
 508 36 528 19 572 16 c 1
 572 0 l 1
 424 0 l 1
 301 324 l 1
 236 329 l 1
 180 120 l 1
 171 85 168 72 168 62 c 0
 168 29 175 24 236 16 c 1
 236 0 l 1
 -8 0 l 1
 -8 16 l 1
 48 25 57 31 73 90 c 0
 196 532 l 1
 203 559 208 583 208 595 c 0
 208 630 176 631 137 637 c 1
 137 653 l 1
 385 653 l 2
 519 653 593 602 593 509 c 0
313 595 m 2
 248 366 l 1
 272 362 283 361 299 361 c 0
 424 361 488 412 488 511 c 0
 488 585 447 623 364 623 c 0
 332 623 319 616 313 595 c 2
EndSplineSet
Validated: 1
EndChar

StartChar: S
Encoding: 83 83 51
Width: 500
Flags: MW
AnchorPoint: "above" 338 653 basechar 0
LayerCount: 2
Fore
SplineSet
309 666 m 0
 380 666 411 641 440 641 c 0
 462 641 471 646 485 667 c 1
 508 667 l 1
 468 468 l 1
 450 471 l 1
 447 561 429 633 329 633 c 0
 261 633 219 594 219 531 c 0
 219 482 228 468 318 377 c 0
 408 286 431 247 431 182 c 0
 431 69 344 -18 229 -18 c 0
 162 -18 107 18 73 18 c 0
 53 18 42 8 35 -15 c 1
 17 -15 l 1
 51 208 l 1
 71 206 l 1
 70 199 69 191 69 183 c 0
 69 88 132 17 215 17 c 0
 288 17 344 75 344 150 c 0
 344 281 131 350 131 499 c 0
 131 597 205 666 309 666 c 0
EndSplineSet
Validated: 1
EndChar

StartChar: T
Encoding: 84 84 52
Width: 556
Flags: MW
LayerCount: 2
Fore
SplineSet
633 653 m 1
 589 490 l 1
 572 492 l 1
 574 509 575 524 575 537 c 0
 575 593 543 618 471 618 c 2
 416 618 l 1
 277 120 l 2
 268 86 265 74 265 61 c 0
 265 31 277 22 317 19 c 0
 323 19 338 17 355 16 c 1
 355 0 l 1
 65 0 l 1
 65 16 l 1
 131 21 157 37 171 90 c 2
 315 618 l 1
 294 618 l 2
 159 618 127 598 77 495 c 1
 59 499 l 1
 101 653 l 1
 633 653 l 1
EndSplineSet
Validated: 1
EndChar

StartChar: U
Encoding: 85 85 53
Width: 722
Flags: MW
AnchorPoint: "above" 489 653 basechar 0
LayerCount: 2
Fore
SplineSet
637 591 m 0
 637 626 609 633 566 637 c 1
 566 653 l 1
 765 653 l 1
 765 637 l 1
 703 623 699 618 661 488 c 2
 578 203 l 2
 534 53 451 -18 320 -18 c 0
 194 -18 102 51 102 147 c 0
 102 187 115 251 145 359 c 2
 198 551 l 2
 202 568 205 584 205 596 c 0
 205 625 194 631 127 637 c 1
 127 653 l 1
 400 653 l 1
 400 637 l 1
 307 627 307 585 290 527 c 0
 223 296 192 175 192 141 c 0
 192 71 249 23 332 23 c 0
 514 23 544 242 563 304 c 0
 611 473 637 575 637 591 c 0
EndSplineSet
Validated: 1
EndChar

StartChar: V
Encoding: 86 86 54
Width: 611
Flags: MW
LayerCount: 2
Fore
SplineSet
688 653 m 1
 688 637 l 1
 665 636 649 624 632 597 c 2
 259 -18 l 1
 240 -18 l 1
 155 502 l 2
 134 627 132 630 76 637 c 1
 76 653 l 1
 317 653 l 1
 317 637 l 1
 254 630 240 620 240 586 c 0
 240 580 240 576 241 571 c 2
 307 128 l 1
 513 484 l 2
 546 541 565 584 565 603 c 0
 565 622 547 632 502 637 c 1
 502 653 l 1
 688 653 l 1
EndSplineSet
Validated: 1
EndChar

StartChar: W
Encoding: 87 87 55
Width: 833
Flags: MW
LayerCount: 2
Fore
SplineSet
906 653 m 1
 906 637 l 1
 868 625 858 616 831 565 c 2
 528 -18 l 1
 508 -18 l 1
 458 436 l 1
 453 436 l 1
 231 -18 l 1
 212 -18 l 1
 150 499 l 2
 136 603 143 628 71 637 c 1
 71 653 l 1
 307 653 l 1
 307 637 l 1
 246 630 234 621 234 582 c 0
 234 580 234 573 235 568 c 0
 279 162 l 1
 451 510 l 1
 442 579 l 1
 435 628 425 635 367 637 c 1
 367 653 l 1
 605 653 l 1
 605 637 l 1
 551 632 537 619 537 578 c 2
 578 162 l 1
 765 530 l 2
 778 556 786 581 786 597 c 0
 786 625 775 632 721 637 c 1
 721 653 l 1
 906 653 l 1
EndSplineSet
Validated: 1
EndChar

StartChar: X
Encoding: 88 88 56
Width: 611
Flags: MW
LayerCount: 2
Fore
SplineSet
655 653 m 1
 655 637 l 1
 612 623 581 601 530 542 c 2
 361 348 l 1
 463 90 l 2
 488 30 497 24 567 16 c 1
 567 0 l 1
 294 0 l 1
 294 16 l 1
 360 21 370 26 370 55 c 0
 370 70 366 86 359 104 c 2
 292 269 l 1
 141 97 l 2
 128 82 120 65 120 50 c 0
 120 25 137 16 185 16 c 1
 185 0 l 1
 -29 0 l 1
 -29 16 l 1
 45 31 71 83 274 313 c 1
 168 576 l 2
 149 622 134 632 76 637 c 1
 76 653 l 1
 340 653 l 1
 340 637 l 1
 285 630 269 621 269 596 c 0
 269 583 273 566 284 540 c 2
 343 393 l 1
 488 560 l 2
 502 576 508 588 508 601 c 0
 508 624 496 631 447 637 c 1
 447 653 l 1
 655 653 l 1
EndSplineSet
Validated: 1
EndChar

StartChar: Y
Encoding: 89 89 57
Width: 556
Flags: MW
LayerCount: 2
Fore
SplineSet
278 56 m 0
 278 23 301 20 367 16 c 1
 367 0 l 1
 78 0 l 1
 78 16 l 1
 144 20 167 36 183 90 c 0
 244 302 l 1
 167 571 l 1
 150 626 147 629 91 637 c 1
 91 653 l 1
 330 653 l 1
 330 637 l 1
 270 631 258 625 258 601 c 0
 258 576 273 537 325 347 c 1
 363 393 l 1
 467 514 513 579 513 606 c 0
 513 631 484 634 444 637 c 1
 444 653 l 1
 633 653 l 1
 633 637 l 1
 603 623 595 616 563 576 c 2
 344 306 l 1
 315 205 l 2
 308 175 278 91 278 56 c 0
EndSplineSet
Validated: 1
EndChar

StartChar: Z
Encoding: 90 90 58
Width: 556
Flags: MW
AnchorPoint: "above" 360 653 basechar 0
LayerCount: 2
Fore
SplineSet
302 617 m 2
 126 617 113 543 93 502 c 1
 74 507 l 1
 120 653 l 1
 606 653 l 1
 606 639 l 1
 123 36 l 1
 284 36 l 2
 467 36 489 81 534 171 c 1
 553 168 l 1
 499 0 l 1
 -6 0 l 1
 -6 14 l 1
 473 617 l 1
 302 617 l 2
EndSplineSet
Validated: 1
EndChar

StartChar: bracketleft
Encoding: 91 91 59
Width: 389
Flags: MW
LayerCount: 2
Fore
SplineSet
384 636 m 1
 322 636 l 2
 293 636 281 627 275 601 c 2
 115 -77 l 2
 111 -93 111 -93 111 -98 c 0
 111 -117 128 -126 160 -126 c 2
 216 -126 l 1
 209 -153 l 1
 21 -153 l 1
 218 663 l 1
 391 663 l 1
 384 636 l 1
EndSplineSet
Validated: 1
EndChar

StartChar: backslash
Encoding: 92 92 60
Width: 278
Flags: MW
LayerCount: 2
Fore
SplineSet
-41 666 m 1
 31 666 l 1
 319 -18 l 1
 248 -18 l 1
 -41 666 l 1
EndSplineSet
Validated: 1
EndChar

StartChar: bracketright
Encoding: 93 93 61
Width: 389
Flags: MW
LayerCount: 2
Fore
SplineSet
19 -126 m 1
 81 -126 l 2
 111 -126 120 -119 127 -90 c 2
 288 588 l 2
 292 604 292 605 292 609 c 0
 292 627 275 636 243 636 c 2
 186 636 l 1
 193 663 l 1
 382 663 l 1
 185 -153 l 1
 12 -153 l 1
 19 -126 l 1
EndSplineSet
Validated: 1
EndChar

StartChar: asciicircum
Encoding: 94 94 62
Width: 422
Flags: MW
LayerCount: 2
Fore
SplineSet
68 301 m 1
 0 301 l 1
 181 666 l 1
 241 666 l 1
 422 301 l 1
 354 301 l 1
 211 590 l 1
 68 301 l 1
EndSplineSet
Validated: 1
EndChar

StartChar: underscore
Encoding: 95 95 63
Width: 500
Flags: MW
LayerCount: 2
Fore
SplineSet
500 -125 m 1
 0 -125 l 1
 0 -75 l 1
 500 -75 l 1
 500 -125 l 1
EndSplineSet
Validated: 1
EndChar

StartChar: a
Encoding: 97 97 65
Width: 500
Flags: MW
AnchorPoint: "above" 317 432 basechar 0
LayerCount: 2
Fore
SplineSet
384 41 m 0
 399 41 430 76 464 110 c 1
 476 100 l 1
 402 9 377 -10 337 -10 c 0
 309 -10 297 2 297 31 c 0
 297 55 300 68 320 146 c 1
 232 22 189 -11 119 -11 c 0
 55 -11 17 30 17 100 c 0
 17 258 171 441 303 441 c 0
 346 441 375 420 383 383 c 1
 394 431 l 1
 397 434 l 1
 458 441 l 1
 465 438 l 1
 463 429 462 427 459 417 c 0
 412 245 370 74 370 54 c 0
 370 47 376 41 384 41 c 0
365 358 m 0
 365 395 341 419 304 419 c 0
 184 419 101 180 101 113 c 0
 101 67 124 38 159 38 c 0
 257 38 365 235 365 358 c 0
EndSplineSet
Validated: 1
EndChar

StartChar: b
Encoding: 98 98 66
Width: 500
Flags: MW
LayerCount: 2
Fore
SplineSet
110 643 m 1
 110 660 l 1
 177 668 213 674 263 683 c 1
 268 678 l 1
 164 290 l 1
 235 400 287 441 357 441 c 0
 424 441 473 391 473 321 c 0
 473 164 307 -11 156 -11 c 0
 100 -11 23 19 23 42 c 2
 23 46 l 1
 159 547 l 2
 163 561 175 603 175 616 c 0
 175 638 169 641 110 643 c 1
155 12 m 0
 302 12 388 239 388 306 c 0
 388 359 361 392 318 392 c 0
 190 392 109 125 109 46 c 0
 109 23 124 12 155 12 c 0
EndSplineSet
Validated: 1
EndChar

StartChar: c
Encoding: 99 99 67
Width: 444
Flags: MW
AnchorPoint: "above" 330 432 basechar 0
LayerCount: 2
Fore
SplineSet
315 420 m 0
 188 420 116 251 116 139 c 0
 116 68 150 25 207 25 c 0
 256 25 295 47 350 106 c 1
 366 96 l 1
 306 20 251 -11 177 -11 c 0
 84 -11 30 44 30 139 c 0
 30 295 170 441 320 441 c 0
 380 441 425 406 425 360 c 0
 425 334 404 314 377 314 c 0
 353 314 338 328 338 352 c 0
 338 370 353 389 353 400 c 0
 353 412 338 420 315 420 c 0
EndSplineSet
Validated: 1
EndChar

StartChar: d
Encoding: 100 100 68
Width: 500
Flags: MW
LayerCount: 2
Fore
SplineSet
463 111 m 1
 475 101 l 1
 423 28 371 -13 329 -13 c 0
 304 -13 287 5 287 32 c 0
 287 55 289 70 300 121 c 1
 232 21 188 -11 120 -11 c 0
 55 -11 15 32 15 103 c 0
 15 253 177 441 307 441 c 0
 346 441 364 425 372 383 c 1
 416 547 l 2
 430 598 431 604 431 617 c 0
 431 638 424 641 369 643 c 1
 369 660 l 1
 433 666 469 672 522 683 c 1
 527 678 l 1
 476 478 455 398 428 306 c 0
 395 196 363 74 363 60 c 0
 363 49 371 40 381 40 c 0
 398 40 409 49 463 111 c 1
356 361 m 0
 356 410 328 418 307 418 c 0
 212 418 102 227 102 103 c 0
 102 64 126 37 160 37 c 0
 252 37 356 209 356 361 c 0
EndSplineSet
Validated: 1
EndChar

StartChar: e
Encoding: 101 101 69
Width: 444
Flags: MW
AnchorPoint: "above" 340 432 basechar 0
LayerCount: 2
Fore
SplineSet
358 109 m 1
 370 97 l 1
 311 30 234 -11 163 -11 c 0
 85 -11 31 45 31 126 c 0
 31 276 188 441 332 441 c 0
 382 441 412 415 412 373 c 0
 412 287 306 211 156 190 c 2
 128 186 l 1
 120 154 118 139 118 124 c 0
 118 70 155 34 212 34 c 0
 255 34 286 50 358 109 c 1
135 208 m 1
 324 254 346 342 346 379 c 0
 346 402 332 418 311 418 c 0
 260 418 186 341 152 252 c 2
 135 208 l 1
EndSplineSet
Validated: 1
EndChar

StartChar: f
Encoding: 102 102 70
Width: 278
Flags: MW
LayerCount: 2
Fore
SplineSet
-71 -143 m 0
 -71 -158 -80 -160 -80 -170 c 0
 -80 -179 -72 -186 -60 -186 c 0
 -18 -186 15 -131 37 -24 c 2
 125 396 l 1
 35 396 l 1
 42 428 l 1
 134 428 l 1
 167 535 216 678 338 678 c 0
 387 678 424 650 424 613 c 0
 424 591 405 573 382 573 c 0
 360 573 345 589 345 613 c 0
 345 628 355 637 355 644 c 0
 355 651 346 656 333 656 c 0
 277 656 240 585 211 428 c 1
 319 428 l 1
 313 396 l 1
 204 396 l 1
 132 76 l 2
 91 -108 21 -207 -68 -207 c 0
 -112 -207 -147 -180 -147 -146 c 0
 -147 -123 -131 -105 -110 -105 c 0
 -89 -105 -71 -122 -71 -143 c 0
EndSplineSet
Validated: 1
EndChar

StartChar: g
Encoding: 103 103 71
Width: 500
Flags: MW
AnchorPoint: "above" 310 432 basechar 0
LayerCount: 2
Fore
SplineSet
297 441 m 0
 375 441 396 405 411 405 c 2
 472 405 l 1
 472 366 l 1
 422 366 l 1
 428 346 431 326 431 310 c 0
 431 232 337 151 246 151 c 0
 222 151 214 155 208 155 c 0
 195 155 172 129 172 114 c 0
 172 63 385 79 385 -60 c 0
 385 -147 301 -206 175 -206 c 0
 74 -206 8 -161 8 -92 c 0
 8 -46 26 -26 125 39 c 1
 106 53 98 65 98 78 c 0
 98 102 116 122 175 162 c 1
 118 188 96 218 96 270 c 0
 96 364 186 441 297 441 c 0
148 28 m 0
 145 28 63 -13 63 -82 c 0
 63 -146 110 -184 190 -184 c 0
 267 -184 325 -144 325 -90 c 0
 325 -20 226 2 153 26 c 0
 151 27 149 28 148 28 c 0
234 172 m 0
 308 172 352 279 352 348 c 0
 352 395 333 419 296 419 c 0
 231 419 174 339 174 247 c 0
 174 200 196 172 234 172 c 0
EndSplineSet
Validated: 1
EndChar

StartChar: h
Encoding: 104 104 72
Width: 500
Flags: MW
LayerCount: 2
Fore
SplineSet
448 374 m 0
 448 316 367 92 367 56 c 0
 367 47 374 38 383 38 c 0
 399 38 411 49 465 117 c 1
 478 105 l 1
 418 18 383 -9 332 -9 c 0
 305 -9 288 7 288 33 c 0
 288 45 295 76 308 125 c 2
 363 332 l 2
 367 348 370 361 370 365 c 0
 370 378 357 390 342 390 c 0
 307 390 239 328 187 249 c 0
 147 188 134 154 94 0 c 1
 19 0 l 1
 154 512 l 2
 171 573 178 596 178 617 c 0
 178 629 160 643 146 643 c 0
 139 643 141 641 137 641 c 2
 111 641 l 1
 111 656 l 1
 171 663 210 670 268 683 c 1
 273 678 l 1
 153 230 l 1
 246 375 317 441 382 441 c 0
 421 441 448 414 448 374 c 0
EndSplineSet
Validated: 1
EndChar

StartChar: i
Encoding: 105 105 73
Width: 278
Flags: MW
LayerCount: 2
Fore
SplineSet
140 36 m 0
 157 36 184 64 222 114 c 1
 235 103 l 1
 178 19 141 -11 95 -11 c 0
 65 -11 49 9 49 46 c 0
 49 66 55 97 71 155 c 2
 119 332 l 2
 125 352 128 368 128 376 c 0
 128 396 118 399 65 400 c 1
 65 416 l 1
 104 419 124 422 225 441 c 1
 228 439 l 1
 134 95 l 2
 128.581 75.4902 124 61 124 51 c 0
 124 44 132 36 140 36 c 0
214 654 m 0
 241 654 264 628 264 599 c 0
 264 571 241 548 215 548 c 0
 186 548 167 569 167 601 c 0
 167 631 187 654 214 654 c 0
EndSplineSet
Validated: 1
EndChar

StartChar: j
Encoding: 106 106 74
Width: 278
Flags: MW
LayerCount: 2
Fore
SplineSet
109 400 m 2
 73 400 l 1
 73 416 l 1
 104 417 154 425 243 441 c 1
 246 439 l 1
 142 28 l 2
 102 -131 42 -207 -45 -207 c 0
 -91 -207 -124 -181 -124 -146 c 0
 -124 -122 -107 -104 -84 -104 c 0
 -61 -104 -43 -120 -43 -141 c 0
 -43 -160 -56 -162 -56 -173 c 0
 -56 -180 -50 -184 -38 -184 c 0
 2 -184 25 -140 59 -3 c 2
 131 289 l 2
 142 332 147 359 147 369 c 0
 147 396 123 400 109 400 c 2
226 654 m 0
 253 654 276 628 276 599 c 0
 276 571 253 548 227 548 c 0
 198 548 179 569 179 601 c 0
 179 632 199 654 226 654 c 0
EndSplineSet
Validated: 1
EndChar

StartChar: k
Encoding: 107 107 75
Width: 444
Flags: MW
LayerCount: 2
Fore
SplineSet
236 258 m 1
 315 78 326 41 354 41 c 0
 369 41 381 52 399 83 c 2
 414 109 l 1
 429 98 l 1
 384 14 358 -11 318 -11 c 0
 292 -11 254 7 179 212 c 1
 137 180 l 1
 89 0 l 1
 14 0 l 1
 141 483 l 2
 148 515 170 585 174 615 c 0
 173 633 156 640 115 640 c 0
 106 640 l 1
 106 656 l 1
 165 663 203 670 262 683 c 1
 267 678 l 1
 147 221 l 1
 186 248 333 361 333 394 c 0
 333 405 319 412 294 412 c 2
 278 412 l 1
 278 428 l 1
 461 428 l 1
 461 412 l 1
 414 409 383 389 236 258 c 1
EndSplineSet
Validated: 1
EndChar

StartChar: l
Encoding: 108 108 76
Width: 278
Flags: MW
LayerCount: 2
Fore
SplineSet
132 32 m 0
 155 32 164 44 228 123 c 1
 241 114 l 1
 176 18 141 -11 89 -11 c 0
 57 -11 40 9 40 45 c 0
 40 50 42 60 45 71 c 2
 182 599 l 2
 185 608 186 614 186 617 c 0
 186 633 166 640 118 640 c 1
 118 656 l 1
 177 663 215 670 274 683 c 1
 279 678 l 1
 128 99 l 2
 127 97 117 60 117 50 c 0
 117 39 122 32 132 32 c 0
EndSplineSet
Validated: 1
EndChar

StartChar: m
Encoding: 109 109 77
Width: 722
Flags: MW
LayerCount: 2
Fore
SplineSet
604 38 m 0
 621 38 634 51 689 117 c 1
 704 105 l 1
 661 45 615 -9 555 -9 c 0
 529 -9 515 7 515 37 c 0
 515 47 519 66 528 103 c 2
 586 333 l 2
 591 351 593 363 593 368 c 0
 593 379 584 389 573 389 c 0
 544 389 494 345 445 277 c 0
 394 206 374 156 334 0 c 1
 259 0 l 1
 322 234 354 355 354 364 c 0
 354 380 347 389 334 389 c 0
 300 389 240 333 184 248 c 0
 150 196 135 159 87 0 c 1
 12 0 l 1
 25 51 28 61 51 143 c 0
 87 270 110 361 110 372 c 0
 110 387 97 394 71 394 c 2
 46 394 l 1
 46 410 l 1
 129 425 150 429 206 441 c 1
 209 439 l 1
 151 230 l 1
 243 375 313 441 374 441 c 0
 408 441 431 416 431 381 c 0
 431 362 416 305 391 229 c 1
 420 275 519 441 613 441 c 0
 647 441 672 414 672 378 c 0
 672 372 670 354 669 350 c 2
 601 99 l 2
 595 75 591 59 591 54 c 0
 591 44 596 38 604 38 c 0
EndSplineSet
Validated: 1
EndChar

StartChar: n
Encoding: 110 110 78
Width: 500
Flags: MW
LayerCount: 2
Fore
SplineSet
460 117 m 1
 474 104 l 1
 405 12 379 -9 334 -9 c 0
 301 -9 287 7 287 45 c 0
 287 55 289.373 68.899 303 120 c 0
 347 285 l 2
 355 316 361 349 361 361 c 0
 361 379 352 390 337 390 c 0
 300 390 249 340 189 248 c 0
 145 180 136 158 89 0 c 1
 14 0 l 1
 110 350 l 2
 111 355 112 361 112 367 c 0
 112 387 99 393 48 394 c 1
 48 410 l 1
 135 426 156 430 210 441 c 1
 213 439 l 1
 146 221 l 1
 249 381 312 441 376 441 c 0
 415 441 442 416 442 380 c 0
 442 366 439 344 433 323 c 2
 376 117 l 2
 362 61 362 61 362 54 c 0
 362 46 370 38 378 38 c 0
 392 38 410 54 439 91 c 2
 460 117 l 1
EndSplineSet
Validated: 1
EndChar

StartChar: o
Encoding: 111 111 79
Width: 500
Flags: MW
AnchorPoint: "above" 332 432 basechar 0
LayerCount: 2
Fore
SplineSet
468 301 m 0
 468 172 337 -11 174 -11 c 0
 83 -11 27 43 27 129 c 0
 27 286 175 441 325 441 c 0
 410 441 468 384 468 301 c 0
189 10 m 0
 301 10 384 208 384 326 c 0
 384 383 356 420 313 420 c 0
 207 420 111 231 111 101 c 0
 111 46 142 10 189 10 c 0
EndSplineSet
Validated: 1
EndChar

StartChar: p
Encoding: 112 112 80
Width: 500
Flags: MW
LayerCount: 2
Fore
SplineSet
89 404 m 2
 56 404 l 1
 54 419 l 1
 106.092 426.423 204.745 441 210 441 c 0
 212.562 441 215 440.688 215 437 c 9
 183 328 l 1
 241 409 289 441 354 441 c 0
 425 441 469 394 469 316 c 0
 469 157 315 -11 169 -11 c 0
 146 -11 128 -7 103 6 c 1
 83 -68 66 -146 66 -160 c 0
 66 -181 83 -190 130 -190 c 1
 130 -205 l 1
 -75 -205 l 1
 -75 -189 l 1
 -3 -187 -19 -161 50 94 c 0
 85 226 121 368 121 377 c 0
 121 390 102 404 89 404 c 2
379 312 m 0
 379 360 367 398 313 398 c 0
 264 398 208 350 182 284 c 0
 153 210 117 79 117 45 c 0
 117 23 137 8 165 8 c 0
 294 8 379 203 379 312 c 0
EndSplineSet
Validated: 1
EndChar

StartChar: q
Encoding: 113 113 81
Width: 500
Flags: MW
LayerCount: 2
Fore
SplineSet
391 -191 m 1
 391 -209 l 1
 150 -209 l 1
 150 -193 l 1
 215 -188 232 -180 244 -140 c 0
 333 153 l 1
 244 26 198 -11 127 -11 c 0
 64 -11 25 34 25 105 c 0
 25 257 186 441 318 441 c 0
 359 441 379 425 395 379 c 1
 410 426 l 1
 483 426 l 1
 319 -151 l 2
 316.938 -159.248 317 -160.6 317 -163 c 0
 317 -181 338 -191 374 -191 c 2
 391 -191 l 1
167 42 m 0
 262 42 380 239 380 358 c 0
 380 392 354 419 321 419 c 0
 229 419 111 234 111 119 c 0
 111 72 133 42 167 42 c 0
EndSplineSet
Validated: 1
EndChar

StartChar: r
Encoding: 114 114 82
Width: 389
Flags: MW
LayerCount: 2
Fore
SplineSet
366 340 m 0
 322 340 336 376 314 376 c 0
 297 376 269 345 236 289 c 0
 190 213 173 170 121 0 c 1
 45 0 l 1
 126 292 l 2
 140.517 344.332 142.132 356.394 142.132 365.749 c 0
 142.132 368.428 142 370.884 142 374 c 0
 142 392 129 402 107 402 c 0
 100 402 97 402 73 397 c 1
 73 414 l 1
 146 426 155 428 228 441 c 1
 231 439 l 1
 178 222 l 1
 192 258 l 2
 209 301 296 441 365 441 c 0
 393 441 412 420 412 389 c 0
 412 358 395 340 366 340 c 0
EndSplineSet
Validated: 1
EndChar

StartChar: s
Encoding: 115 115 83
Width: 389
Flags: MW
AnchorPoint: "above" 242 432 basechar 0
LayerCount: 2
Fore
SplineSet
160 -11 m 0
 121 -11 89 8 56 8 c 0
 46 8 40 3 32 -13 c 1
 16 -13 l 1
 36 146 l 1
 52 146 l 1
 68 51 99 10 154 10 c 0
 198 10 228 42 228 87 c 0
 228 175 109 236 109 331 c 0
 109 398 157 441 230 441 c 0
 267 441 300 424 322 424 c 0
 336 424 344 428 352 442 c 1
 366 442 l 1
 346 303 l 1
 330 303 l 1
 320 381 290 418 238 418 c 0
 203 418 182 397 182 364 c 0
 182 290 304 215 304 119 c 0
 304 43 244 -11 160 -11 c 0
EndSplineSet
Validated: 1
EndChar

StartChar: t
Encoding: 116 116 84
Width: 278
Flags: MW
LayerCount: 2
Fore
SplineSet
296 428 m 1
 291 396 l 1
 207 396 l 1
 119 63 l 2
 118 60 118 59 118 58 c 0
 118 46 124 38 133 38 c 0
 149 38 165 54 214 117 c 1
 227 110 l 1
 164 17 131 -11 85 -11 c 0
 58 -11 37 5 37 27 c 0
 37 46 57 108 60 121 c 2
 132 396 l 1
 58 396 l 1
 57 399 57 401 57 402 c 0
 57 434 127 413 222 537 c 0
 228 545 231 546 237 546 c 0
 242 546 245 543 245 536 c 0
 245 535 245 533 244 531 c 1
 216 428 l 1
 296 428 l 1
EndSplineSet
Validated: 1
EndChar

StartChar: u
Encoding: 117 117 85
Width: 500
Flags: MW
AnchorPoint: "above" 300 432 basechar 0
LayerCount: 2
Fore
SplineSet
118 376 m 0
 118 396 99 400 58 400 c 1
 58 414 l 1
 115 421 151 428 208 441 c 1
 211 439 l 1
 120 76 l 2
 119 73 119 71 119 67 c 0
 119 52 128 42 140 42 c 0
 172 42 221 93 281 188 c 0
 327 261 334 277 391 432 c 1
 465 432 l 1
 386 133 l 2
 367 61 367 61 367 55 c 0
 367 44 371 38 378 38 c 0
 394 38 409 52 461 117 c 1
 475 108 l 1
 407 11 384 -9 337 -9 c 0
 307 -9 289 9 289 39 c 0
 289 60 305 129 334 236 c 1
 219 43 166 -11 95 -11 c 0
 60 -11 42 8 42 44 c 0
 42 62 49 96 67 167 c 2
 104 309 l 2
 113 343 118 368 118 376 c 0
EndSplineSet
Validated: 1
EndChar

StartChar: v
Encoding: 118 118 86
Width: 444
Flags: MW
LayerCount: 2
Fore
SplineSet
375 333 m 0
 375 361 333 367 333 407 c 0
 333 428 348 441 370 441 c 0
 400 441 426 414 426 382 c 0
 426 345 400 280 365 230 c 0
 263 88 170 -18 145 -18 c 0
 138 -18 136 -11 136 17 c 0
 136 75 124 226 114 295 c 0
 100 387 90 404 51 404 c 0
 40 404 32 404 21 403 c 1
 21 416 l 1
 126 433 129 441 152 441 c 0
 174 441 199 238 207 70 c 1
 238 102 l 2
 309 176 375 287 375 333 c 0
EndSplineSet
Validated: 1
EndChar

StartChar: w
Encoding: 119 119 87
Width: 667
Flags: MW
LayerCount: 2
Fore
SplineSet
51 405 m 0
 42 405 43 404 36 404 c 2
 16 404 l 1
 16 417 l 1
 28 419 38 421 42 421 c 0
 121 433 123 441 140 441 c 0
 168 441 188 181 190 126 c 1
 382 430 l 2
 387 438 390 440 395 440 c 0
 401 440 402 437 403 426 c 2
 435 74 l 1
 566 237 600 291 600 334 c 0
 600 365 557 375 557 407 c 0
 557 428 572 441 596 441 c 0
 626 441 648 419 648 389 c 0
 648 283 405 -18 382 -18 c 0
 375 -18 373 -15 371 12 c 0
 342 331 l 1
 253 175 l 2
 186 57 156 -18 134 -18 c 0
 125 -18 123 -10 121 29 c 2
 117 117 l 2
 114 196 102 302 90 359 c 0
 84 394 75 405 51 405 c 0
EndSplineSet
Validated: 1
EndChar

StartChar: x
Encoding: 120 120 88
Width: 444
Flags: MW
LayerCount: 2
Fore
SplineSet
334 44 m 0
 352 44 353 56 402 111 c 1
 416 103 l 1
 358 13 332 -11 294 -11 c 0
 262 -11 249 5 236 56 c 2
 206 176 l 1
 81 3 59 -11 23 -11 c 0
 -7 -11 -27 5 -27 31 c 0
 -27 51 -12 66 7 66 c 0
 30 66 47 47 65 47 c 0
 76 47 95 65 116 95 c 0
 198 212 l 1
 169 335 l 2
 155 395 149 404 124 404 c 0
 115 404 106 402 68 393 c 1
 64 408 l 1
 75 412 l 2
 136 432 170 441 192 441 c 0
 219 441 230 421 244 353 c 2
 255 298 l 1
 324 405 362 441 406 441 c 0
 430 441 447 425 447 404 c 0
 447 383 433 368 412 368 c 0
 392 368 379 385 361 385 c 0
 343 385 307 341 263 264 c 1
 263 244 293 124 303 85 c 0
 310 57 319 44 334 44 c 0
EndSplineSet
Validated: 1
EndChar

StartChar: y
Encoding: 121 121 89
Width: 444
Flags: MW
LayerCount: 2
Fore
SplineSet
15 417 m 1
 112 435 125 438 158 441 c 1
 173 441 229 276 244 188 c 2
 264 72 l 1
 349 213 386 291 386 331 c 0
 386 368 332 363 332 404 c 0
 332 426 348 441 371 441 c 0
 401 441 426 416 426 386 c 0
 426 258 147 -206 27 -206 c 0
 -2 -206 -24 -187 -24 -162 c 0
 -24 -140 -7 -123 15 -123 c 0
 38 -123 62 -151 76 -151 c 0
 108 -151 205 -30 205 8 c 0
 205 25 181 142 164 207 c 0
 118 379 103 404 46 404 c 0
 35 404 28 403 15 400 c 1
 15 417 l 1
EndSplineSet
Validated: 1
EndChar

StartChar: z
Encoding: 122 122 90
Width: 389
Flags: MW
AnchorPoint: "above" 240 432 basechar 0
LayerCount: 2
Fore
SplineSet
269 -81 m 0
 193 -81 122 5 53 5 c 0
 36 5 23 0 7 -13 c 1
 -2 -4 l 1
 308 368 l 1
 162 368 l 2
 115 368 102 359 81 309 c 1
 65 313 l 1
 96 428 l 1
 380 428 l 1
 380 417 l 1
 90 73 l 1
 224 43 207 -60 281 -60 c 0
 297 -60 308 -54 308 -45 c 0
 308 -35 294 -20 294 0 c 0
 294 18 308 31 328 31 c 0
 349 31 363 16 363 -5 c 0
 363 -45 319 -81 269 -81 c 0
EndSplineSet
Validated: 1
EndChar

StartChar: braceleft
Encoding: 123 123 91
Width: 400
Flags: MW
LayerCount: 2
Fore
SplineSet
51 -99 m 0
 51 -38 117 136 117 198 c 0
 117 227 104 241 65 255 c 1
 129 272 150 296 170 369 c 0
 218 547 l 1
 249 653 294 687 407 687 c 1
 404 676 l 1
 342 660 316 631 295 552 c 2
 250 384 l 2
 228 301 202 272 137 255 c 1
 176 238 192 219 192 192 c 0
 192 145 126 -57 126 -100 c 0
 126 -137 141 -155 179 -166 c 1
 176 -177 l 1
 84 -174 51 -154 51 -99 c 0
EndSplineSet
Validated: 1
EndChar

StartChar: bar
Encoding: 124 124 92
Width: 275
Flags: MW
LayerCount: 2
Fore
SplineSet
105 -18 m 1
 105 666 l 1
 171 666 l 1
 171 -18 l 1
 105 -18 l 1
EndSplineSet
Validated: 1
EndChar

StartChar: braceright
Encoding: 125 125 93
Width: 400
Flags: MW
LayerCount: 2
Fore
SplineSet
208 318 m 0
 208 366 274 571 274 609 c 0
 274 646 259 665 221 676 c 1
 224 687 l 1
 315 684 349 663 349 609 c 0
 349 550 283 376 283 312 c 0
 283 283 296 269 335 255 c 1
 271 238 250 214 230 141 c 0
 182 -37 l 1
 151 -143 105 -177 -7 -177 c 1
 -4 -166 l 1
 58 -150 84 -121 105 -42 c 2
 150 126 l 2
 172 209 197 238 263 255 c 1
 224 272 208 291 208 318 c 0
EndSplineSet
Validated: 1
EndChar

StartChar: asciitilde
Encoding: 126 126 94
Width: 541
Flags: MW
LayerCount: 2
Fore
SplineSet
163 320 m 0
 263 320 297 252 374 252 c 0
 405 252 422 264 448 303 c 1
 502 271 l 1
 456 207 425 186 379 186 c 0
 279 186 245 254 168 254 c 0
 137 254 120 242 94 203 c 1
 40 235 l 1
 86 299 117 320 163 320 c 0
EndSplineSet
Validated: 1
EndChar

StartChar: exclamdown
Encoding: 161 161 95
Width: 389
Flags: MW
LayerCount: 2
Fore
SplineSet
241 281 m 1
 154 -114 166 -205 99 -205 c 0
 73 -205 59 -188 59 -154 c 0
 59 -83 95 -67 224 285 c 1
 241 281 l 1
270 474 m 0
 299 474 321 451 321 419 c 0
 321 393 296 368 269 368 c 0
 240 368 215 393 215 422 c 0
 215 450 240 474 270 474 c 0
EndSplineSet
Validated: 1
EndChar

StartChar: cent
Encoding: 162 162 96
Width: 500
Flags: MW
LayerCount: 2
Fore
SplineSet
185 -7 m 1
 157 -1 77 22 77 140 c 0
 77 262 171 414 342 440 c 1
 384 560 l 1
 414 560 l 1
 372 440 l 1
 434 435 472 407 472 360 c 0
 472 334 452 314 424 314 c 0
 400 314 385 328 385 352 c 0
 385 370 400 389 400 400 c 0
 400 412 388 419 365 420 c 1
 228 29 l 1
 236 26 242 25 252 25 c 0
 303 25 341 47 397 106 c 1
 413 96 l 1
 353 21 299 -11 227 -11 c 0
 222 -11 220 -11 215 -10 c 1
 168 -143 l 1
 137 -143 l 1
 185 -7 l 1
334 417 m 1
 188 375 163 193 163 139 c 0
 163 94 175 64 202 41 c 1
 334 417 l 1
EndSplineSet
Validated: 1
EndChar

StartChar: sterling
Encoding: 163 163 97
Width: 500
Flags: MW
LayerCount: 2
Fore
SplineSet
478 553 m 0
 419 553 466 641 402 641 c 0
 345 641 322 587 280 361 c 1
 403 361 l 1
 396 319 l 1
 270 319 l 1
 244 209 238 193 197 104 c 1
 268 77 315 66 357 66 c 0
 386 66 408 73 436 93 c 2
 446 100 l 1
 457 91 l 1
 432 29 382 -6 315 -6 c 0
 266 -6 235 8 171 57 c 1
 132 8 110 -6 75 -6 c 0
 36 -6 10 20 10 58 c 0
 10 98 49 126 104 126 c 0
 119 126 120 126 160 115 c 1
 185 319 l 1
 72 319 l 1
 81 361 l 1
 191 361 l 1
 215 495 275 670 424 670 c 0
 479 670 517 639 517 594 c 0
 517 567 503 553 478 553 c 0
146 73 m 1
 116 94 107 98 86 98 c 0
 54 98 32 80 32 53 c 0
 32 32 51 16 75 16 c 0
 105 16 134 39 146 73 c 1
EndSplineSet
Validated: 1
EndChar

StartChar: currency
Encoding: 164 164 98
Width: 500
Flags: MW
LayerCount: 2
Fore
SplineSet
-22 103 m 1
 76 199 l 1
 47 241 35 278 35 325 c 0
 35 373 47 411 76 451 c 1
 -22 549 l 1
 28 597 l 1
 124 501 l 1
 167 529 204 540 251 540 c 0
 299 540 338 528 376 501 c 1
 474 597 l 1
 522 549 l 1
 426 451 l 1
 453 410 465 373 465 326 c 0
 465 279 454 242 426 199 c 1
 522 103 l 1
 474 53 l 1
 376 151 l 1
 337 123 298 110 251 110 c 0
 205 110 166 123 124 151 c 1
 28 53 l 1
 -22 103 l 1
253 476 m 0
 170 476 103 410 103 327 c 0
 103 242 169 174 251 174 c 0
 332 174 397 241 397 326 c 0
 397 408 332 476 253 476 c 0
EndSplineSet
Validated: 1
EndChar

StartChar: yen
Encoding: 165 165 99
Width: 500
Flags: MW
LayerCount: 2
Fore
SplineSet
483 606 m 0
 483 631 454 634 414 637 c 1
 414 653 l 1
 603 653 l 1
 603 637 l 1
 571 623 562 616 530 576 c 2
 349 352 l 1
 500 352 l 1
 488 312 l 1
 318 312 l 1
 312 304 l 1
 288 222 l 1
 468 222 l 1
 456 182 l 1
 276 182 l 1
 251 103 245 79 245 57 c 0
 245 22 269 20 337 16 c 1
 337 0 l 1
 52 0 l 1
 56 16 l 1
 119 20 150 38 165 90 c 0
 192 182 l 1
 27 182 l 1
 39 222 l 1
 203 222 l 1
 226 302 l 1
 223 312 l 1
 60 312 l 1
 72 352 l 1
 212 352 l 1
 149 571 l 1
 132 625 127 629 61 637 c 1
 61 653 l 1
 300 653 l 1
 300 637 l 1
 236 631 225 626 225 601 c 0
 225 586 236 543 264 447 c 2
 293 347 l 1
 335 395 483 564 483 606 c 0
EndSplineSet
Validated: 1
EndChar

StartChar: brokenbar
Encoding: 166 166 100
Width: 275
Flags: MW
LayerCount: 2
Fore
SplineSet
105 -18 m 1
 105 257 l 1
 171 257 l 1
 171 -18 l 1
 105 -18 l 1
105 391 m 1
 105 666 l 1
 171 666 l 1
 171 391 l 1
 105 391 l 1
EndSplineSet
Validated: 1
EndChar

StartChar: section
Encoding: 167 167 101
Width: 500
Flags: MW
LayerCount: 2
Fore
SplineSet
156 -41 m 0
 156 -91 114 -80 114 -104 c 0
 114 -124 148 -141 185 -141 c 0
 245 -141 287 -104 287 -51 c 0
 287 -21 275 3 237 46 c 2
 161 133 l 2
 114 186 90 239 90 286 c 0
 90 353 138 409 196 409 c 0
 213 409 232 405 249 398 c 1
 251 401 l 1
 201 462 184 497 184 541 c 0
 184 614 245 666 331 666 c 0
 407 666 461 625 461 567 c 0
 461 533 441 512 409 512 c 0
 382 512 363 531 363 557 c 0
 363 590 397 597 397 614 c 0
 397 631 371 645 337 645 c 0
 280 645 245 613 245 562 c 0
 245 536 254 510 271 490 c 2
 394 340 l 2
 420 308 435 267 435 226 c 0
 435 151 387 100 317 100 c 0
 303 100 296 102 284 107 c 1
 282 104 l 1
 335 36 345 15 345 -25 c 0
 345 -103 277 -162 189 -162 c 0
 113 -162 53 -115 53 -54 c 0
 53 -19 74 2 109 2 c 0
 138 2 156 -14 156 -41 c 0
377 192 m 0
 377 261 277 388 213 388 c 0
 177 388 147 359 147 322 c 0
 147 251 254 121 312 121 c 0
 347 121 377 154 377 192 c 0
EndSplineSet
Validated: 1
EndChar

StartChar: dieresis
Encoding: 168 168 102
Width: 333
Flags: MW
LayerCount: 2
Fore
SplineSet
157 606 m 0
 182 606 205 582 205 557 c 0
 205 530 183 508 156 508 c 0
 129 508 107 530 107 558 c 0
 107 584 129 606 157 606 c 0
357 606 m 0
 382 606 405 582 405 557 c 0
 405 530 383 508 356 508 c 0
 329 508 307 530 307 558 c 0
 307 584 329 606 357 606 c 0
EndSplineSet
Validated: 1
EndChar

StartChar: copyright
Encoding: 169 169 103
Width: 760
Flags: MW
LayerCount: 2
Fore
SplineSet
409 523 m 0
 456 523 529 508 529 484 c 2
 529 415 l 1
 513 415 l 1
 503 474 468 503 407 503 c 0
 317 503 268 442 268 331 c 0
 268 219 319 156 409 156 c 0
 466 156 501 181 529 240 c 1
 545 240 l 1
 530 172 l 2
 526 149 448 136 398 136 c 0
 272 136 191 209 191 323 c 0
 191 441 280 523 409 523 c 0
380 666 m 0
 572 666 719 515 719 318 c 0
 719 133 568 -18 382 -18 c 0
 192 -18 41 133 41 323 c 0
 41 513 192 666 380 666 c 0
381 624 m 0
 226 624 96 487 96 323 c 0
 96 160 226 24 381 24 c 0
 534 24 664 160 664 319 c 0
 664 488 538 624 381 624 c 0
EndSplineSet
Validated: 1
EndChar

StartChar: ordfeminine
Encoding: 170 170 104
Width: 276
Flags: MW
LayerCount: 2
Fore
SplineSet
307 447 m 1
 310 447 323 462 343 482 c 1
 350 472 l 1
 301 417 286 406 260 406 c 0
 241 406 229 416 229 432 c 0
 229 448 232 458 246 493 c 1
 197 425 169 406 120 406 c 0
 72 406 42 433 42 476 c 0
 42 569 143 676 231 676 c 0
 265 676 285 665 290 641 c 1
 297 671 l 1
 299 673 l 1
 352 675 l 1
 319 559 302 493 298 472 c 2
 295 457 l 1
 294 454 294 451 294 449 c 0
 294 446 296 443 298 443 c 0
 300 443 307 447 307 447 c 1
269 620 m 0
 269 636 264 658 245 658 c 0
 194 658 115 552 115 480 c 0
 115 460 129 440 144 440 c 0
 213 440 269 579 269 620 c 0
EndSplineSet
Validated: 1
EndChar

StartChar: guillemotleft
Encoding: 171 171 105
Width: 500
Flags: MW
LayerCount: 2
Fore
SplineSet
202 37 m 0
 190 37 66 197 53 216 c 1
 53 225 l 1
 89 252 l 2
 146 296 154 303 180 326 c 0
 246 384 270 403 276 403 c 0
 280 403 283 399 283 395 c 0
 283 367 196 291 127 217 c 1
 147 177 l 1
 183 110 209 54 209 44 c 0
 209 40 206 37 202 37 c 0
364 37 m 0
 352 37 228 197 215 216 c 1
 215 225 l 1
 251 252 l 2
 308 296 316 303 342 326 c 0
 408 384 432 403 438 403 c 0
 442 403 445 399 445 395 c 0
 445 367 358 291 289 217 c 1
 298 199 306 182 309 177 c 0
 345 110 371 54 371 44 c 0
 371 40 368 37 364 37 c 0
EndSplineSet
Validated: 1
EndChar

StartChar: logicalnot
Encoding: 172 172 106
Width: 675
Flags: MW
LayerCount: 2
Fore
SplineSet
524 108 m 1
 524 320 l 1
 86 320 l 1
 86 386 l 1
 590 386 l 1
 590 108 l 1
 524 108 l 1
EndSplineSet
Validated: 1
EndChar

StartChar: registered
Encoding: 174 174 107
Width: 760
Flags: MW
LayerCount: 2
Fore
SplineSet
500 146 m 2
 470 146 463 182 380 307 c 1
 333 307 l 1
 333 209 l 2
 333 166 333 166 381 161 c 1
 381 146 l 1
 221 146 l 1
 221 161 l 1
 269 166 269 166 269 209 c 2
 269 448 l 2
 269 491 269 491 221 496 c 1
 221 511 l 1
 396 511 l 2
 466 511 510 475 510 420 c 0
 510 373 483 338 431 317 c 1
 488 239 l 2
 519 197 543 170 563 155 c 1
 563 146 l 1
 500 146 l 2
333 492 m 1
 333 325 l 1
 375 325 l 2
 419 325 443 357 443 414 c 0
 443 465 419 492 374 492 c 2
 333 492 l 1
380 666 m 0
 572 666 719 515 719 318 c 0
 719 133 568 -18 382 -18 c 0
 192 -18 41 133 41 323 c 0
 41 513 192 666 380 666 c 0
381 624 m 0
 226 624 96 487 96 323 c 0
 96 160 226 24 381 24 c 0
 534 24 664 160 664 319 c 0
 664 488 538 624 381 624 c 0
EndSplineSet
Validated: 1
EndChar

StartChar: macron
Encoding: 175 175 108
Width: 333
Flags: MW
LayerCount: 2
Fore
SplineSet
411 583 m 1
 400 532 l 1
 99 532 l 1
 110 583 l 1
 411 583 l 1
EndSplineSet
Validated: 1
EndChar

StartChar: degree
Encoding: 176 176 109
Width: 400
Flags: MW
LayerCount: 2
Fore
SplineSet
244 676 m 0
 324 676 387 613 387 533 c 0
 387 452 324 390 242 390 c 0
 164 390 101 454 101 533 c 0
 101 613 164 676 244 676 c 0
244 642 m 0
 187 642 140 592 140 533 c 0
 140 474 187 424 243 424 c 0
 301 424 348 473 348 533 c 0
 348 592 300 642 244 642 c 0
EndSplineSet
Validated: 1
EndChar

StartChar: plusminus
Encoding: 177 177 110
Width: 675
Flags: MW
LayerCount: 2
Fore
SplineSet
86 0 m 1
 86 66 l 1
 590 66 l 1
 590 0 l 1
 86 0 l 1
305 348 m 1
 305 568 l 1
 371 568 l 1
 371 348 l 1
 590 348 l 1
 590 282 l 1
 371 282 l 1
 371 122 l 1
 305 122 l 1
 305 282 l 1
 86 282 l 1
 86 348 l 1
 305 348 l 1
EndSplineSet
Validated: 1
EndChar

StartChar: twosuperior
Encoding: 178 178 111
Width: 300
Flags: MW
LayerCount: 2
Fore
SplineSet
169 580 m 1
 200 653 254 676 304 676 c 0
 365 676 415 630 415 575 c 0
 415 540 403 523 316 439 c 2
 202 329 l 1
 204 324 l 1
 312 324 l 2
 348 324 361 331 377 358 c 1
 388 350 l 1
 355 271 l 1
 124 271 l 1
 124 289 l 1
 257 419 l 2
 319 479 350 526 350 558 c 0
 350 595 315 625 272 625 c 0
 236 625 211 610 182 572 c 1
 169 580 l 1
EndSplineSet
Validated: 1
EndChar

StartChar: threesuperior
Encoding: 179 179 112
Width: 300
Flags: MW
LayerCount: 2
Fore
SplineSet
320 392 m 0
 320 470 270 489 207 489 c 1
 207 498 l 1
 307 516 354 547 354 592 c 0
 354 622 332 644 304 644 c 0
 278 644 260 635 231 608 c 1
 221 615 l 1
 241 653 281 676 326 676 c 0
 380 676 421 643 421 600 c 0
 421 561 397 540 320 513 c 1
 338 504 383 491 383 425 c 0
 383 333 306 268 198 268 c 0
 151 268 125 282 125 307 c 0
 125 322 138 335 155 335 c 0
 182 335 204 299 236 299 c 0
 284 299 320 339 320 392 c 0
EndSplineSet
Validated: 1
EndChar

StartChar: acute
Encoding: 180 180 113
Width: 333
Flags: MW
LayerCount: 2
Fore
SplineSet
180 494 m 1
 342 654 l 2
 349 660 357 664 367 664 c 0
 387 664 403 648 403 628 c 0
 403 616 398 607 386 600 c 2
 215 494 l 1
 180 494 l 1
EndSplineSet
Validated: 1
EndChar

StartChar: micro
Encoding: 181 181 114
Width: 500
Flags: MW
LayerCount: 2
Fore
SplineSet
73 18 m 0
 73 -31 75 -17 75 -66 c 0
 75 -153 47 -209 4 -209 c 0
 -19 -209 -30 -194 -30 -164 c 0
 -30 -84 16 -63 42 54 c 2
 127 428 l 1
 215 428 l 1
 148 144 l 1
 146 137 145 123 145 114 c 0
 145 72 172 45 214 45 c 0
 257 45 301 70 336 115 c 1
 409 428 l 1
 497 428 l 1
 419 92 l 1
 413 70 413 68 413 58 c 0
 413 40 422 30 439 30 c 0
 456 30 470 37 495 56 c 1
 490 42 447 -10 385 -10 c 0
 347 -10 328 10 328 49 c 0
 328 59 329 66 332 80 c 1
 279 18 231 -10 178 -10 c 0
 125 -10 94 14 75 66 c 1
 74 45 73 34 73 18 c 0
EndSplineSet
Validated: 1
EndChar

StartChar: paragraph
Encoding: 182 182 115
Width: 523
Flags: MW
LayerCount: 2
Fore
SplineSet
92 403 m 0
 92 500 132 653 359 653 c 2
 616 653 l 1
 610 632 l 1
 534 627 526 622 513 574 c 0
 357 -11 l 2
 354 -20 342 -61 342 -76 c 0
 342 -90 356 -96 391 -100 c 0
 394 -100 404 -101 414 -102 c 1
 409 -123 l 1
 261 -123 l 1
 461 632 l 1
 403 632 l 1
 203 -123 l 1
 55 -123 l 1
 60 -102 l 1
 106 -98 122 -95 134 -89 c 0
 156 -82 199 115 245 283 c 1
 112 288 92 354 92 403 c 0
334 632 m 1
 216 624 169 487 169 406 c 0
 169 349 197 310 255 304 c 1
 334 632 l 1
EndSplineSet
Validated: 1
EndChar

StartChar: middot
Encoding: 183 183 116
Width: 250
Flags: MW
LayerCount: 2
Fore
SplineSet
192 286 m 0
 217 286 240 262 240 237 c 0
 240 210 218 188 191 188 c 0
 164 188 142 210 142 238 c 0
 142 264 164 286 192 286 c 0
EndSplineSet
EndChar

StartChar: cedilla
Encoding: 184 184 117
Width: 333
Flags: MW
LayerCount: 2
Fore
SplineSet
21 -96 m 1
 81 0 l 1
 119 0 l 1
 75 -66 l 1
 85 -64 92 -63 100 -63 c 0
 150 -63 182 -90 182 -131 c 0
 182 -181 132 -217 63 -217 c 0
 35 -217 12 -212 -30 -196 c 1
 -13 -167 l 1
 17 -178 34 -182 55 -182 c 0
 89 -182 108 -167 108 -141 c 0
 108 -115 89 -97 62 -97 c 0
 52 -97 44 -99 30 -104 c 1
 21 -96 l 1
EndSplineSet
Validated: 1
EndChar

StartChar: onesuperior
Encoding: 185 185 118
Width: 250
Flags: MW
LayerCount: 2
Fore
SplineSet
223 654 m 1
 323 670 326 675 348 675 c 0
 349 675 351 676 351 676 c 1
 354 676 l 2
 356 676 359 673 359 671 c 0
 359 669 358 663 355 655 c 0
 269 381 l 2
 257 343 250 316 250 307 c 0
 250 292 261 288 299 287 c 1
 299 271 l 1
 118 271 l 1
 118 287 l 1
 165 292 178 297 183 312 c 2
 273 597 l 2
 277 609 278 614 278 618 c 0
 278 628.988 270.142 635.689 261.671 635.689 c 0
 260.12 635.689 258.548 635.464 257 635 c 2
 223 635 l 1
 223 654 l 1
EndSplineSet
Validated: 1
EndChar

StartChar: ordmasculine
Encoding: 186 186 119
Width: 310
Flags: MW
LayerCount: 2
Fore
SplineSet
265 676 m 0
 322 676 362 641 362 592 c 0
 362 500 262 406 164 406 c 0
 105 406 67 439 67 489 c 0
 67 584 164 676 265 676 c 0
289 607 m 0
 289 642 275 654 255 654 c 0
 201 654 140 559 140 476 c 0
 140 448 155 430 178 430 c 0
 241 430 289 541 289 607 c 0
EndSplineSet
Validated: 1
EndChar

StartChar: guillemotright
Encoding: 187 187 120
Width: 500
Flags: MW
LayerCount: 2
Fore
SplineSet
298 403 m 0
 311 403 439 236 447 224 c 1
 447 215 l 1
 356 145 346 137 320 114 c 0
 256 58 230 37 224 37 c 0
 220 37 217 41 217 45 c 0
 217 75 314 157 373 223 c 1
 353 263 l 1
 317 330 291 386 291 396 c 0
 291 400 294 403 298 403 c 0
136 403 m 0
 149 403 277 236 285 224 c 1
 285 215 l 1
 194 145 184 137 158 114 c 0
 94 58 68 37 62 37 c 0
 58 37 55 41 55 45 c 0
 55 75 152 157 211 223 c 1
 191 263 l 1
 155 330 129 386 129 396 c 0
 129 400 132 403 136 403 c 0
EndSplineSet
Validated: 1
EndChar

StartChar: onequarter
Encoding: 188 188 121
Width: 750
Flags: MW
LayerCount: 2
Fore
SplineSet
770 147 m 1
 761 104 l 1
 703 104 l 1
 673 0 l 1
 610 0 l 1
 642 105 l 1
 474 105 l 1
 487 147 l 1
 758 406 l 1
 794 406 l 1
 715 147 l 1
 770 147 l 1
711 333 m 1
 522 147 l 1
 651 147 l 1
 711 333 l 1
707 676 m 1
 252 -10 l 1
 201 -10 l 1
 656 676 l 1
 707 676 l 1
272 287 m 1
 272 271 l 1
 91 271 l 1
 91 287 l 1
 138 292 151 297 156 312 c 2
 246 597 l 2
 250 609 251 614 251 618 c 0
 251 630.653 243.173 635.479 232.321 635.479 c 0
 230.308 635.479 228.191 635.313 226 635 c 2
 196 635 l 1
 196 654 l 1
 266 666 l 2
 293 671 321 676 326 676 c 0
 329 676 331 674 331 671 c 0
 331 667 330 660 328 655 c 0
 242 381 l 2
 230 343 223 316 223 307 c 0
 223 292 234 288 272 287 c 1
EndSplineSet
Validated: 1
EndChar

StartChar: onehalf
Encoding: 189 189 122
Width: 750
Flags: MW
LayerCount: 2
Fore
SplineSet
679 676 m 1
 224 -10 l 1
 173 -10 l 1
 628 676 l 1
 679 676 l 1
183 654 m 1
 283 671 286 675 308 675 c 0
 309 675 311 676 311 676 c 1
 313 676 l 2
 316 676 318 674 318 671 c 0
 318 670 318.111 669.333 318.111 668.407 c 0
 318.111 666.556 317.667 663.667 315 655 c 0
 229 381 l 2
 217 342 210 315 210 307 c 0
 210 292 221 288 259 287 c 1
 259 271 l 1
 78 271 l 1
 78 287 l 1
 125 292 138 297 143 312 c 2
 233 597 l 2
 238 612 238 612 238 617 c 0
 238 632 229.333 635 214 635 c 2
 183 635 l 1
 183 654 l 1
547 309 m 1
 578 383 633 406 683 406 c 0
 743 406 793 359 793 304 c 0
 793 269 781 252 694 168 c 2
 580 58 l 1
 582 53 l 1
 690 53 l 2
 726 53 739 60 755 87 c 1
 766 79 l 1
 733 0 l 1
 502 0 l 1
 502 18 l 1
 635 148 l 2
 696 208 728 255 728 287 c 0
 728 324 693 354 650 354 c 0
 614 354 589 339 560 301 c 1
 547 309 l 1
EndSplineSet
Validated: 1
EndChar

StartChar: threequarters
Encoding: 190 190 123
Width: 750
Flags: MW
LayerCount: 2
Fore
SplineSet
782 147 m 1
 773 104 l 1
 715 104 l 1
 685 0 l 1
 622 0 l 1
 654 105 l 1
 486 105 l 1
 499 147 l 1
 770 406 l 1
 806 406 l 1
 727 147 l 1
 782 147 l 1
723 333 m 1
 534 147 l 1
 663 147 l 1
 723 333 l 1
720 676 m 1
 265 -10 l 1
 214 -10 l 1
 669 676 l 1
 720 676 l 1
288 392 m 0
 288 470 238 489 175 489 c 1
 175 498 l 1
 275 516 322 547 322 592 c 0
 322 622 300 644 272 644 c 0
 246 644 228 635 199 608 c 1
 189 615 l 1
 209 653 249 676 294 676 c 0
 348 676 389 643 389 600 c 0
 389 561 365 540 288 513 c 1
 306 504 351 491 351 425 c 0
 351 333 274 268 166 268 c 0
 119 268 93 282 93 307 c 0
 93 322 106 335 123 335 c 0
 150 335 172 299 204 299 c 0
 252 299 288 339 288 392 c 0
EndSplineSet
Validated: 1
EndChar

StartChar: questiondown
Encoding: 191 191 124
Width: 500
Flags: MW
LayerCount: 2
Fore
SplineSet
252 -135 m 0
 252 -116 237 -102 237 -83 c 0
 237 -63 253 -48 277 -48 c 0
 301 -48 316 -66 316 -96 c 0
 316 -160 258 -205 175 -205 c 0
 86 -205 28 -154 28 -76 c 0
 28 65 238 101 277 256 c 2
 284 285 l 1
 301 283 l 1
 283 184 273 161 189 67 c 0
 125 -5 102 -46 102 -99 c 0
 102 -153 131 -183 182 -183 c 0
 225 -183 252 -165 252 -135 c 0
314 473 m 0
 344 473 367 450 367 421 c 0
 367 391 344 368 315 368 c 0
 286 368 262 392 262 421 c 0
 262 448 286 473 314 473 c 0
EndSplineSet
Validated: 1
EndChar

StartChar: AE
Encoding: 198 198 131
Width: 889
Flags: MW
LayerCount: 2
Fore
SplineSet
221 234 m 1
 197 203 96 88 96 47 c 0
 96 28 107 22 160 16 c 1
 160 0 l 1
 -27 0 l 1
 -27 16 l 1
 -3 22 9 32 57 92 c 2
 426 557 l 2
 456 594 458 598 458 610 c 0
 458 626 447 634 420 636 c 0
 416 636 405 637 394 638 c 1
 394 653 l 1
 911 653 l 1
 878 500 l 1
 861 502 l 1
 862 515 862 532 862 538 c 0
 862 608 834 620 670 620 c 0
 623 620 615 615 606 583 c 2
 545 361 l 1
 704 362 714 367 756 458 c 1
 774 454 l 1
 705 222 l 1
 688 226 l 1
 692 250 694 264 694 278 c 0
 694 319 673 328 576 328 c 2
 536 328 l 1
 478 122 465 74 465 62 c 0
 465 42 481 33 516 33 c 2
 546 33 l 2
 696 33 750 60 826 169 c 1
 844 164 l 1
 780 0 l 1
 282 0 l 1
 282 16 l 1
 343 22 351 27 362 64 c 0
 411 234 l 1
 221 234 l 1
249 271 m 1
 422 271 l 1
 517 613 l 1
 249 271 l 1
EndSplineSet
Validated: 1
EndChar

StartChar: Ccedilla
Encoding: 199 199 132
Width: 667
Flags: MW
LayerCount: 2
Fore
SplineSet
472 666 m 0
 539 666 602 642 630 642 c 0
 650 642 660 648 668 664 c 1
 689 664 l 1
 652 465 l 1
 634 468 l 1
 624 576 573 630 481 630 c 0
 415 630 352 602 304 553 c 0
 226 472 178 351 178 232 c 0
 178 103 242 27 353 27 c 0
 435 27 493 57 583 145 c 1
 600 131 l 1
 510 26 430 -18 327 -18 c 0
 311 -18 295 -17 277 -14 c 1
 242 -66 l 1
 252 -64 259 -63 267 -63 c 0
 317 -63 349 -90 349 -131 c 0
 349 -181 299 -217 230 -217 c 0
 202 -217 179 -212 137 -196 c 1
 154 -167 l 1
 183 -178 201 -182 222 -182 c 0
 256 -182 275 -167 275 -141 c 0
 275 -115 256 -97 229 -97 c 0
 219 -97 211 -99 197 -104 c 1
 188 -96 l 1
 244 -6 l 1
 135 26 66 122 66 243 c 0
 66 465 259 666 472 666 c 0
EndSplineSet
Validated: 1
EndChar

StartChar: Eth
Encoding: 208 208 141
Width: 722
Flags: MW
LayerCount: 2
Fore
SplineSet
700 384 m 0
 700 168 518 0 245 0 c 2
 -8 0 l 1
 -8 16 l 1
 48 26 57 32 73 90 c 0
 138 326 l 1
 48 326 l 1
 60 368 l 1
 150 368 l 1
 196 532 l 2
 203 556 207 580 207 596 c 0
 207 623 193 631 130 637 c 1
 130 653 l 1
 408 653 l 2
 586 653 700 548 700 384 c 0
589 408 m 0
 589 493 557 623 377 623 c 0
 335 623 319 616 313 594 c 2
 250 368 l 1
 403 368 l 1
 391 326 l 1
 238 326 l 1
 192 162 l 2
 176 106 170 79 170 67 c 0
 170 41 189 30 235 30 c 0
 447 30 589 181 589 408 c 0
EndSplineSet
Validated: 1
EndChar

StartChar: multiply
Encoding: 215 215 148
Width: 675
Flags: MW
LayerCount: 2
Fore
SplineSet
289 253 m 1
 93 449 l 1
 141 497 l 1
 337 300 l 1
 534 497 l 1
 582 449 l 1
 385 253 l 1
 582 56 l 1
 534 8 l 1
 337 205 l 1
 141 8 l 1
 93 56 l 1
 289 253 l 1
EndSplineSet
Validated: 1
EndChar

StartChar: Oslash
Encoding: 216 216 149
Width: 722
Flags: MW
LayerCount: 2
Fore
SplineSet
60 222 m 0
 60 468 304 666 468 666 c 0
 505 666 536 660 573 644 c 1
 625 722 l 1
 669 722 l 1
 605 626 l 1
 638 600 699 548 699 431 c 0
 699 205 491 -18 281 -18 c 0
 250 -18 225 -12 187 3 c 1
 113 -105 l 1
 69 -105 l 1
 155 22 l 1
 89 70 60 132 60 222 c 0
464 633 m 0
 285 633 165 345 165 176 c 0
 165 138 172 108 190 74 c 1
 546 607 l 1
 521 625 497 633 464 633 c 0
570 574 m 1
 215 44 l 1
 237 23 261 15 295 15 c 0
 366 15 428 53 483 132 c 0
 545 222 594 373 594 475 c 0
 594 514 586 545 570 574 c 1
EndSplineSet
Validated: 1
EndChar

StartChar: Thorn
Encoding: 222 222 155
Width: 611
Flags: MW
LayerCount: 2
Fore
SplineSet
569 369 m 0
 569 287 514 170 295 170 c 0
 253 170 230 173 206 180 c 1
 189 120 l 2
 180 87 177 74 177 62 c 0
 177 28 182 25 245 16 c 1
 245 0 l 1
 0 0 l 1
 0 16 l 1
 57 24 65 30 82 90 c 0
 200 515 l 2
 213 561 217 581 217 595 c 0
 217 622 203 630 146 637 c 1
 146 653 l 1
 384 653 l 1
 384 637 l 1
 344 632 329 623 322 595 c 0
 302 518 l 1
 358 518 l 2
 494 518 569 465 569 369 c 0
466 368 m 0
 466 432 444 488 332 488 c 0
 304 488 292 480 286 459 c 2
 215 211 l 1
 245 206 250 206 267 206 c 0
 381 206 466 236 466 368 c 0
EndSplineSet
Validated: 1
EndChar

StartChar: germandbls
Encoding: 223 223 156
Width: 500
Flags: MW
LayerCount: 2
Fore
SplineSet
493 548 m 0
 493 482 458 432 330 384 c 1
 330 381 l 1
 442 367 454 274 454 244 c 0
 454 133 369 -13 241 -13 c 0
 193 -13 161 14 161 53 c 0
 161 81 179 100 205 100 c 0
 228 100 243 84 243 60 c 0
 243 40 231 30 231 22 c 0
 231 15 240 9 249 9 c 0
 343 9 367 221 367 262 c 0
 367 332 341 367 286 369 c 0
 266 370 260 374 260 384 c 0
 260 394 264 397 277 397 c 0
 358 397 413 470 413 577 c 0
 413 628 391 656 351 656 c 0
 293 656 244 582 206 438 c 0
 95 12 l 2
 59 -125 -10 -207 -90 -207 c 0
 -137 -207 -168 -182 -168 -145 c 0
 -168 -119 -153 -103 -129 -103 c 0
 -106 -103 -89 -118 -89 -139 c 0
 -89 -157 -101 -167 -101 -175 c 0
 -101 -180 -94 -183 -83 -183 c 0
 -34 -183 -7 -139 23 -4 c 0
 95 315 l 2
 153 571 230 679 354 679 c 0
 437 679 493 626 493 548 c 0
EndSplineSet
Validated: 1
EndChar

StartChar: ae
Encoding: 230 230 163
Width: 667
Flags: MW
LayerCount: 2
Fore
SplineSet
588 113 m 1
 598 101 l 1
 542 33 466 -11 403 -11 c 0
 340 -11 296 40 296 111 c 0
 296 125 298 135 302 151 c 1
 217 27 171 -11 107 -11 c 0
 58 -11 23 28 23 83 c 0
 23 241 179 441 303 441 c 0
 337 441 353 430 369 394 c 1
 388 437 l 1
 459 439 l 1
 437 377 l 1
 484 423 518 441 559 441 c 0
 609 441 640 414 640 371 c 0
 640 267 483 227 384 198 c 1
 378 170 376 159 376 137 c 0
 376 71 400 36 446 36 c 0
 489 36 529 57 588 113 c 1
350 370 m 0
 350 401 331 421 302 421 c 0
 218 421 109 222 109 92 c 0
 109 58 122 39 143 39 c 0
 234 39 350 244 350 370 c 0
390 223 m 1
 469 246 574 284 574 379 c 0
 574 403 562 416 539 416 c 0
 451 416 403 263 390 223 c 1
EndSplineSet
Validated: 1
EndChar

StartChar: ccedilla
Encoding: 231 231 164
Width: 444
Flags: MW
LayerCount: 2
Fore
SplineSet
316 420 m 0
 157 420 116 199 116 139 c 0
 116 68 150 25 207 25 c 0
 256 25 295 47 350 106 c 1
 366 96 l 1
 306 19 252 -11 176 -11 c 2
 168 -11 l 1
 131 -66 l 1
 141 -64 148 -63 156 -63 c 0
 206 -63 238 -90 238 -131 c 0
 238 -181 188 -217 119 -217 c 0
 91 -217 68 -212 26 -196 c 1
 43 -167 l 1
 72 -178 90 -182 111 -182 c 0
 145 -182 164 -167 164 -141 c 0
 164 -115 145 -97 118 -97 c 0
 108 -97 100 -99 86 -104 c 1
 77 -96 l 1
 133 -6 l 1
 66 10 30 60 30 139 c 0
 30 295 170 441 320 441 c 0
 380 441 425 406 425 360 c 0
 425 334 404 314 377 314 c 0
 353 314 338 328 338 352 c 0
 338 370 353 389 353 400 c 0
 353 412 338 420 316 420 c 0
EndSplineSet
Validated: 1
EndChar

StartChar: eth
Encoding: 240 240 173
Width: 500
Flags: MW
LayerCount: 2
Fore
SplineSet
324 567 m 1
 207 516 l 1
 174 545 l 1
 297 599 l 1
 262 632 236 649 194 666 c 1
 229 683 l 1
 274 673 311 655 351 622 c 1
 450 665 l 1
 482 637 l 1
 381 592 l 1
 442 519 467 452 467 359 c 0
 467 161 331 -11 174 -11 c 0
 83 -11 27 43 27 129 c 0
 27 280 173 441 310 441 c 0
 348 441 377 424 394 392 c 1
 396 393 l 1
 386 462 364 515 324 567 c 1
189 10 m 0
 301 10 384 208 384 326 c 0
 384 383 356 420 313 420 c 0
 207 420 111 229 111 101 c 0
 111 47 142 10 189 10 c 0
EndSplineSet
Validated: 1
EndChar

StartChar: divide
Encoding: 247 247 180
Width: 675
Flags: MW
LayerCount: 2
Fore
SplineSet
590 220 m 1
 86 220 l 1
 86 286 l 1
 590 286 l 1
 590 220 l 1
338 100 m 0
 368 100 394 74 394 43 c 0
 394 13 368 -11 336 -11 c 0
 308 -11 283 14 283 43 c 0
 283 74 308 100 338 100 c 0
338 517 m 0
 368 517 394 491 394 460 c 0
 394 431 368 406 337 406 c 0
 308 406 283 431 283 460 c 0
 283 491 308 517 338 517 c 0
EndSplineSet
Validated: 1
EndChar

StartChar: oslash
Encoding: 248 248 181
Width: 500
Flags: MW
LayerCount: 2
Fore
SplineSet
124 -4 m 1
 48 20 28 78 28 130 c 0
 28 283 178 441 323 441 c 0
 327 441 332 441 339 440 c 1
 394 554 l 1
 428 554 l 1
 370 435 l 1
 447 413 469 352 469 298 c 0
 469 165 330 -11 176 -11 c 0
 167 -11 162 -11 156 -9 c 1
 95 -135 l 1
 60 -135 l 1
 124 -4 l 1
318 420 m 0
 202 420 112 222 112 97 c 0
 112 70 121 48 140 29 c 1
 328 418 l 1
 323 419 320 420 318 420 c 0
189 10 m 0
 299 10 385 201 385 325 c 0
 385 360 376 385 357 406 c 1
 167 14 l 1
 175 11 180 10 189 10 c 0
EndSplineSet
Validated: 1
EndChar

StartChar: thorn
Encoding: 254 254 187
Width: 500
Flags: MW
LayerCount: 2
Fore
SplineSet
130 -190 m 1
 130 -205 l 1
 -75 -205 l 1
 -75 -189 l 1
 -32 -188 -20 -176 -8 -130 c 2
 179 573 l 2
 186 596 188 607 188 616 c 0
 188 638 182 641 123 643 c 1
 123 660 l 1
 190 668 226 674 275 683 c 1
 280 678 l 1
 216 433 199 366 189 335 c 1
 191 333 l 1
 237 406 290 441 353 441 c 0
 426 441 469 394 469 315 c 0
 469 157 315 -11 169 -11 c 0
 146 -11 128 -7 103 6 c 1
 84 -67 66 -146 66 -159 c 0
 66 -182 83 -190 130 -190 c 1
166 8 m 0
 286 8 379 190 379 312 c 0
 379 370 358 398 317 398 c 0
 263 398 209 353 182 284 c 0
 153 210 117 79 117 45 c 0
 117 23 137 8 166 8 c 0
EndSplineSet
Validated: 1
EndChar

StartChar: Aogonek
Encoding: 260 260 193
Width: 611
Flags: MW
LayerCount: 2
Fore
SplineSet
374 226 m 1
 154 226 l 1
 97 113 l 2
 80 79 77 70 77 51 c 0
 77 26 85 21 136 16 c 1
 136 0 l 1
 -51 0 l 1
 -51 16 l 1
 -11 24 0 34 78 168 c 0
 368 668 l 1
 394 668 l 1
 488 102 l 1
 501 29 507 21 564 16 c 1
 564 0 l 1
 553 -11 548 -27 548 -49 c 0
 548 -85 570 -106 607 -106 c 0
 638 -106 663 -96 690 -74 c 1
 707 -92 l 1
 672 -143 630 -169 582 -169 c 0
 530 -169 487 -126 487 -73 c 0
 487 -46 493 -30 515 0 c 1
 318 0 l 1
 318 16 l 1
 382 22 396 31 396 69 c 0
 396 77 395 86 394 95 c 0
 374 226 l 1
175 262 m 1
 369 262 l 1
 325 522 l 1
 175 262 l 1
EndSplineSet
Validated: 1
EndChar

StartChar: aogonek
Encoding: 261 261 194
Width: 500
Flags: MW
LayerCount: 2
Fore
SplineSet
384 41 m 0
 399 41 430 76 464 110 c 1
 476 100 l 1
 428 41 399 12 372 -4 c 0
 348 -17 341 -28 341 -52 c 0
 341 -85 364 -106 400 -106 c 0
 431 -106 456 -96 483 -74 c 1
 500 -92 l 1
 465 -143 423 -169 375 -169 c 0
 323 -169 280 -126 280 -74 c 0
 280 -48 288 -26 306 0 c 1
 299 8 297 15 297 31 c 0
 297 55 300 68 320 146 c 1
 232 22 189 -11 119 -11 c 0
 55 -11 17 30 17 100 c 0
 17 258 171 441 303 441 c 0
 346 441 375 420 383 383 c 1
 394 431 l 1
 397 434 l 1
 458 441 l 1
 465 438 l 1
 463 429 462 427 459 417 c 0
 412 245 370 74 370 54 c 0
 370 47 376 41 384 41 c 0
365 358 m 0
 365 395 341 419 304 419 c 0
 184 419 101 180 101 113 c 0
 101 67 124 38 159 38 c 0
 257 38 365 235 365 358 c 0
EndSplineSet
Validated: 1
EndChar

StartChar: dcroat
Encoding: 273 273 206
Width: 500
Flags: MW
LayerCount: 2
Fore
SplineSet
415 544 m 1
 249 544 l 1
 257 579 l 1
 425 579 l 1
 430 598 431 606 431 616 c 0
 431 638 424 641 369 643 c 1
 369 660 l 1
 433 666 469 672 522 683 c 1
 527 678 l 1
 501 579 l 1
 558 579 l 1
 550 544 l 1
 492 544 l 1
 457 407 455 398 428 306 c 0
 395 197 363 75 363 60 c 0
 363 49 371 40 381 40 c 0
 398 40 409 49 463 111 c 1
 475 101 l 1
 423 28 371 -13 329 -13 c 0
 304 -13 287 5 287 32 c 0
 287 55 289 70 300 121 c 1
 232 21 188 -11 120 -11 c 0
 55 -11 15 32 15 103 c 0
 15 253 177 441 307 441 c 0
 346 441 364 425 372 383 c 1
 415 544 l 1
311 418 m 0
 310 418 308 418 307 418 c 0
 279 418 245 400 218 372 c 0
 152 302 102 186 102 103 c 0
 102 64 126 37 160 37 c 0
 252 37 356 209 356 361 c 0
 356 397 341 416 311 418 c 0
EndSplineSet
Validated: 1
EndChar

StartChar: Eogonek
Encoding: 280 280 213
Width: 611
Flags: MW
LayerCount: 2
Fore
SplineSet
256 33 m 0
 445 33 484 78 552 170 c 1
 568 162 l 1
 506 0 l 2
 497 -23 492 -44 492 -56 c 0
 492 -85 517 -106 551 -106 c 0
 582 -106 607 -96 634 -74 c 1
 651 -92 l 1
 616 -143 574 -169 526 -169 c 0
 473 -169 431 -126 431 -72 c 0
 431 -45 438 -27 459 0 c 1
 -1 0 l 1
 -1 16 l 1
 55 26 64 33 80 90 c 0
 203 532 l 2
 208 550 214 585 214 596 c 0
 214 623 199 631 137 637 c 1
 137 653 l 1
 634 653 l 1
 603 500 l 1
 582 502 l 1
 583 519 584 534 584 547 c 0
 584 607 549 620 392 620 c 0
 336 620 325 616 319 594 c 2
 253 361 l 1
 288 362 320 363 332 363 c 0
 423 367 432 373 470 458 c 1
 488 454 l 1
 420 222 l 1
 400 227 l 1
 405 249 407 262 407 279 c 0
 407 312 394 325 330 325 c 2
 322 325 l 2
 310 325 279 326 244 328 c 1
 189 119 176 113 176 67 c 0
 176 43 200 33 256 33 c 0
EndSplineSet
Validated: 1
EndChar

StartChar: eogonek
Encoding: 281 281 214
Width: 444
Flags: MW
LayerCount: 2
Fore
SplineSet
370 97 m 1
 324 42 285 12 285 -53 c 0
 285 -85 309 -106 344 -106 c 0
 375 -106 400 -96 427 -74 c 1
 444 -92 l 1
 409 -143 367 -169 319 -169 c 0
 267 -169 224 -126 224 -75 c 0
 224 -42 235 -16 262 14 c 1
 226 -4 198 -11 164 -11 c 0
 85 -11 31 45 31 126 c 0
 31 276 188 441 332 441 c 0
 382 441 412 415 412 373 c 0
 412 287 306 211 156 190 c 2
 128 186 l 1
 120 154 118 139 118 124 c 0
 118 70 155 34 212 34 c 0
 255 34 286 50 358 109 c 1
 370 97 l 1
135 208 m 1
 324 254 346 342 346 379 c 0
 346 402 332 418 311 418 c 0
 260 418 186 341 152 252 c 2
 135 208 l 1
EndSplineSet
Validated: 1
EndChar

StartChar: Hbar
Encoding: 294 294 227
Width: 722
Flags: MW
LayerCount: 2
Fore
SplineSet
577 526 m 1
 585 550 590 580 590 594 c 0
 590 622 578 630 520 637 c 1
 520 653 l 1
 767 653 l 1
 767 637 l 1
 710 627 702 621 685 563 c 1
 675 526 l 1
 725 526 l 1
 713 475 l 1
 661 475 l 1
 553 82 l 2
 551 74 550 68 550 58 c 0
 550 30 564 22 628 16 c 1
 628 0 l 1
 355 0 l 1
 355 16 l 1
 420 23 442 38 456 90 c 0
 521 326 l 1
 236 326 l 1
 170 82 l 2
 168 75 167 67 167 60 c 0
 167 31 178 24 238 16 c 1
 238 0 l 1
 -8 0 l 1
 -8 16 l 1
 48 26 57 31 73 90 c 0
 180 475 l 1
 126 475 l 1
 139 526 l 1
 194 526 l 1
 202 550 207 580 207 594 c 0
 207 623 192 631 130 637 c 1
 130 653 l 1
 403 653 l 1
 403 637 l 1
 343 633 317 614 302 563 c 1
 292 526 l 1
 577 526 l 1
563 475 m 1
 278 475 l 1
 248 368 l 1
 533 368 l 1
 563 475 l 1
EndSplineSet
Validated: 1
EndChar

StartChar: hbar
Encoding: 295 295 228
Width: 500
Flags: MW
LayerCount: 2
Fore
SplineSet
146 643 m 0
 139 643 141 641 137 641 c 2
 111 641 l 1
 111 656 l 1
 171 663 210 670 268 683 c 1
 273 678 l 1
 246 579 l 1
 418 579 l 1
 410 544 l 1
 237 544 l 1
 153 230 l 1
 246 375 317 441 382 441 c 0
 421 441 448 414 448 374 c 0
 448 316 367 92 367 56 c 0
 367 47 374 38 383 38 c 0
 399 38 411 49 465 117 c 1
 478 105 l 1
 418 18 383 -9 332 -9 c 0
 305 -9 288 7 288 33 c 0
 288 45 295 76 308 125 c 2
 363 332 l 2
 367 348 370 361 370 365 c 0
 370 378 357 390 342 390 c 0
 307 390 239 328 187 249 c 0
 147 188 134 154 94 0 c 1
 19 0 l 1
 162 544 l 1
 109 544 l 1
 117 579 l 1
 172 579 l 1
 176 595 178 608 178 617 c 0
 178 629 160 643 146 643 c 0
EndSplineSet
Validated: 1
EndChar

StartChar: Iogonek
Encoding: 302 302 235
Width: 333
Flags: MW
LayerCount: 2
Fore
SplineSet
137 653 m 1
 384 653 l 1
 384 637 l 1
 327 627 318 622 302 563 c 0
 179 120 l 2
 170 88 168 76 168 57 c 0
 168 29 179 23 236 16 c 1
 236 0 l 1
 225 -14 220 -29 220 -49 c 0
 220 -85 242 -106 279 -106 c 0
 310 -106 335 -96 362 -74 c 1
 379 -92 l 1
 344 -143 302 -169 254 -169 c 0
 202 -169 159 -126 159 -73 c 0
 159 -46 165 -31 186 0 c 1
 -8 0 l 1
 -8 16 l 1
 48 26 57 31 73 90 c 0
 196 532 l 2
 203 557 207 580 207 594 c 0
 207 622 195 630 137 637 c 1
 137 653 l 1
EndSplineSet
Validated: 1
EndChar

StartChar: iogonek
Encoding: 303 303 236
Width: 278
Flags: MW
LayerCount: 2
Fore
SplineSet
140 36 m 0
 157 36 184 64 222 114 c 1
 235 103 l 1
 149 -27 119 9 119 -50 c 0
 119 -85 141 -106 178 -106 c 0
 209 -106 234 -96 261 -74 c 1
 278 -92 l 1
 243 -144 201 -169 153 -169 c 0
 100 -169 58 -126 58 -72 c 0
 58 -48 63 -32 80 -9 c 1
 58 -1 49 15 49 46 c 0
 49 66 55 97 71 155 c 2
 119 332 l 1
 125 352 128 368 128 376 c 0
 128 396 118 399 65 400 c 1
 65 416 l 1
 104 419 124 422 225 441 c 1
 228 439 l 1
 140 117 l 1
 139 115 l 1
 139 113 l 1
 137 105 134 98 134 95 c 0
 127 76 124 61 124 51 c 0
 124 44 132 36 140 36 c 0
214 654 m 0
 241 654 264 628 264 599 c 0
 264 571 241 548 215 548 c 0
 186 548 167 569 167 601 c 0
 167 631 187 654 214 654 c 0
EndSplineSet
Validated: 1
EndChar

StartChar: dotlessi
Encoding: 305 305 238
Width: 278
Flags: MW
LayerCount: 2
Fore
SplineSet
140 36 m 0
 157 36 184 64 222 114 c 1
 235 103 l 1
 178 19 141 -11 95 -11 c 0
 65 -11 49 9 49 46 c 0
 49 66 55 97 71 155 c 2
 119 332 l 2
 125 352 128 368 128 376 c 0
 128 396 118 399 65 400 c 1
 65 416 l 1
 104 419 124 422 225 441 c 1
 228 439 l 1
 140 117 l 26
 133 91 124 63 124 51 c 0
 124 44 132 36 140 36 c 0
EndSplineSet
Validated: 1
EndChar

StartChar: ij
Encoding: 307 307 240
Width: 553
Flags: MW
LayerCount: 2
Fore
SplineSet
526 599 m 0
 526 572 504 548 477 548 c 0
 447 548 429 571 429 600 c 0
 429 628 446 654 476 654 c 0
 505 654 526 626 526 599 c 0
264 599 m 0
 264 572 242 548 215 548 c 0
 185 548 167 571 167 600 c 0
 167 628 184 654 214 654 c 0
 243 654 264 626 264 599 c 0
484 439 m 1
 380 28 l 2
 356 -66 311 -207 192 -207 c 0
 152 -207 114 -187 114 -143 c 0
 114 -122 135 -104 155 -104 c 0
 175 -104 195 -119 195 -140 c 0
 195 -159 182 -162 182 -173 c 0
 182 -184 195 -184 202 -184 c 0
 259 -184 287 -45 297 -3 c 0
 360 250 l 1
 313 173 217 -11 114 -11 c 0
 74 -11 59 9 59 48 c 0
 59 128 135 302 135 371 c 0
 135 397 114 400 93 400 c 0
 75 400 l 1
 75 414 l 1
 125 420 176 429 225 441 c 1
 228 439 l 1
 218 399 136 86 136 67 c 0
 136 53 143 42 158 42 c 0
 224 42 386 310 386 378 c 0
 386 397 358 401 336 401 c 0
 326 401 316 400 311 400 c 1
 311 416 l 1
 368 419 425 431 481 441 c 1
 484 439 l 1
EndSplineSet
Validated: 1
LCarets2: 1 0 
Ligature2: "'dlig' Discretionary Ligatures in Latin subtable" i j
EndChar

StartChar: kgreenlandic
Encoding: 312 312 245
Width: 444
Flags: MW
LayerCount: 2
Fore
SplineSet
461 412 m 1
 392 409 285 301 236 258 c 1
 247 231 316 41 353 41 c 0
 381 41 402 89 414 109 c 1
 429 98 l 1
 407 56 373 -11 318 -11 c 0
 259 -11 196 162 179 212 c 1
 137 180 l 1
 89 0 l 1
 14 0 l 1
 99 324 l 2
 104 341 114 369 114 387 c 0
 114 408.987 83.7848 412.476 61.6079 412.476 c 0
 55.5434 412.476 50.08 412.215 46 412 c 1
 46 428 l 1
 98 434 151 443 202 455 c 1
 207 450 l 1
 148 225 l 1
 150 223 l 1
 181 247 333 360 333 393 c 0
 333 410.286 307.689 412.138 290.05 412.138 c 0
 285.24 412.138 281 412 278 412 c 1
 278 428 l 1
 461 428 l 1
 461 412 l 1
EndSplineSet
Validated: 1
EndChar

StartChar: Lslash
Encoding: 321 321 254
Width: 556
Flags: MW
LayerCount: 2
Fore
SplineSet
273 36 m 0
 429 36 477 57 539 185 c 1
 559 179 l 1
 501 0 l 1
 -8 0 l 1
 -8 16 l 1
 48 26 57 31 73 90 c 0
 127 284 l 1
 28 225 l 1
 41 273 l 1
 140 332 l 1
 196 532 l 2
 203 557 207 580 207 594 c 0
 207 623 192 631 130 637 c 1
 130 653 l 1
 403 653 l 1
 403 637 l 1
 343 633 316 614 302 563 c 0
 253 388 l 1
 396 473 l 1
 382 424 l 1
 240 341 l 1
 206 218 l 1
 179 125 168 80 168 70 c 0
 168 44 194 36 273 36 c 0
EndSplineSet
Validated: 1
EndChar

StartChar: lslash
Encoding: 322 322 255
Width: 278
Flags: MW
LayerCount: 2
Fore
SplineSet
133 32 m 0
 166 32 210 101 228 123 c 1
 241 114 l 1
 176 18 142 -11 90 -11 c 0
 58 -11 41 8 41 45 c 0
 41 84 84 220 109 314 c 1
 37 278 l 1
 49 324 l 1
 121 360 l 1
 165 525 186 608 186 616 c 0
 186 633 167 640 118 640 c 1
 118 656 l 1
 177 663 215 670 274 683 c 1
 279 678 l 1
 209 410 l 1
 307 460 l 1
 295 414 l 1
 197 364 l 1
 128 99 l 1
 128 97 l 1
 127 96 126 93 126 89 c 0
 121 70 118 57 118 50 c 0
 118 38 123 32 133 32 c 0
EndSplineSet
Validated: 1
EndChar

StartChar: Eng
Encoding: 330 330 263
Width: 667
Flags: MW
LayerCount: 2
Fore
SplineSet
727 637 m 1
 645 620 644 561 623 488 c 2
 491 28 l 2
 465 -63 420 -207 303 -207 c 0
 263 -207 225 -187 225 -143 c 0
 225 -122 246 -104 266 -104 c 0
 286 -104 306 -119 306 -140 c 0
 306 -159 293 -162 293 -173 c 0
 293 -184 306 -184 313 -184 c 0
 382 -184 429 -25 444 26 c 1
 233 529 l 1
 229 529 l 1
 117 113 l 2
 113 96 108 78 108 61 c 0
 108 22 148 18 178 16 c 1
 178 0 l 1
 -20 0 l 1
 -20 16 l 1
 58 27 64 97 83 164 c 2
 202 581 l 1
 184 621 159 634 116 637 c 1
 116 653 l 1
 277 653 l 1
 483 158 l 1
 486 158 l 1
 587 534 l 2
 591 550 598 567 598 584 c 0
 598 631 568 634 528 637 c 1
 528 653 l 1
 727 653 l 1
 727 637 l 1
EndSplineSet
Validated: 1
EndChar

StartChar: eng
Encoding: 331 331 264
Width: 500
Flags: MW
LayerCount: 2
Fore
SplineSet
433 323 m 2
 352 28 l 2
 305.1 -142.81 252 -207 165 -207 c 0
 119 -207 86 -181 86 -146 c 0
 86 -122 103 -104 126 -104 c 0
 149 -104 167 -120 167 -141 c 0
 167 -160 154 -162 154 -173 c 0
 154 -180 160 -184 172 -184 c 0
 212 -184 233.596 -133.724 269 -3 c 2
 347 285 l 2
 355.206 315.298 361 349 361 361 c 0
 361 379 352 390 337 390 c 0
 300 390 249 340 189 248 c 0
 145 180 136 158 89 0 c 1
 14 0 l 1
 110 350 l 2
 111 355 112 361 112 367 c 0
 112 387 99 393 48 394 c 1
 48 410 l 1
 135 426 156 430 210 441 c 1
 213 439 l 1
 146 221 l 1
 249 381 312 441 376 441 c 0
 415 441 442 416 442 380 c 0
 442 366 438.824 344.049 433 323 c 2
EndSplineSet
Validated: 1
EndChar

StartChar: OE
Encoding: 338 338 271
Width: 944
Flags: MW
LayerCount: 2
Fore
SplineSet
443 666 m 0
 495 666 565 653 595 653 c 2
 964 653 l 1
 933 503 l 1
 917 503 l 1
 917 594 909 620 797 620 c 2
 701 620 l 2
 680 620 671 612 664 588 c 2
 600 361 l 1
 612 361 l 2
 759 361 769 366 810 456 c 1
 828 452 l 1
 762 222 l 1
 742 224 l 1
 745 246 748 249 748 266 c 0
 748 313 732 322 653 325 c 2
 591 328 l 1
 539 138 l 2
 539 136 524 88 524 69 c 0
 524 42 542 33 599 33 c 0
 744 33 803 62 883 172 c 1
 899 166 l 1
 834 0 l 1
 488 0 l 2
 406 0 339 -8 276 -8 c 0
 146 -8 49 92 49 225 c 0
 49 457 236 666 443 666 c 0
448 634 m 0
 273 634 157 388 157 202 c 0
 157 84 206 24 301 24 c 0
 395 24 424 77 458 199 c 2
 531 467 l 2
 551 540 551 540 551 555 c 0
 551 601 508 634 448 634 c 0
EndSplineSet
Validated: 1
EndChar

StartChar: oe
Encoding: 339 339 272
Width: 667
Flags: MW
LayerCount: 2
Fore
SplineSet
593 105 m 1
 604 94 l 1
 530 20 470 -12 407 -12 c 0
 362 -12 327 11 303 56 c 1
 252 6 216 -11 165 -11 c 0
 81 -11 20 51 20 135 c 0
 20 279 165 441 294 441 c 0
 347 441 389 411 406 361 c 1
 474 423 511 441 565 441 c 0
 616 441 646 415 646 373 c 0
 646 265 469 208 419 203 c 0
 395 201 387 197 383 185 c 0
 378 169 373 135 373 114 c 0
 373 65 404 30 448 30 c 0
 486 30 515 45 593 105 c 1
170 9 m 0
 288 9 343 293 343 352 c 0
 343 392 320 418 284 418 c 0
 189 418 103 229 103 100 c 0
 103 44 129 9 170 9 c 0
392 215 m 1
 474 241 485 245 511 264 c 0
 554 296 580 339 580 377 c 0
 580 401 567 416 546 416 c 0
 523 416 448 397 392 215 c 1
EndSplineSet
Validated: 1
EndChar

StartChar: Scedilla
Encoding: 350 350 283
Width: 500
Flags: MW
LayerCount: 2
Fore
SplineSet
309 666 m 0
 380 666 411 641 440 641 c 0
 462 641 471 646 485 667 c 1
 508 667 l 1
 468 468 l 1
 450 471 l 1
 447 561 429 633 329 633 c 0
 261 633 219 594 219 531 c 0
 219 482 228 468 318 377 c 0
 408 286 431 247 431 182 c 0
 431 68 344 -18 229 -18 c 0
 218 -18 210 -17 193 -15 c 1
 159 -66 l 1
 169 -64 175 -63 184 -63 c 0
 234 -63 266 -90 266 -131 c 0
 266 -181 216 -217 147 -217 c 0
 118 -217 96 -212 54 -196 c 1
 71 -167 l 1
 100 -178 118 -182 139 -182 c 0
 173 -182 192 -167 192 -141 c 0
 192 -115 172 -97 146 -97 c 0
 135 -97 127 -99 114 -104 c 1
 105 -96 l 1
 160 -7 l 1
 115 8 91 18 73 18 c 0
 53 18 42 8 35 -15 c 1
 17 -15 l 1
 51 208 l 1
 71 206 l 1
 70 199 69 191 69 183 c 0
 69 88 132 17 215 17 c 0
 288 17 344 75 344 150 c 0
 344 281 131 350 131 499 c 0
 131 597 205 666 309 666 c 0
EndSplineSet
Validated: 1
EndChar

StartChar: scedilla
Encoding: 351 351 284
Width: 389
Flags: MW
LayerCount: 2
Fore
SplineSet
182 364 m 0
 182 290 304 215 304 119 c 0
 304 43 244 -11 159 -11 c 0
 154 -11 149 -11 141 -10 c 1
 103 -66 l 1
 113 -64 120 -63 128 -63 c 0
 178 -63 210 -90 210 -131 c 0
 210 -181 160 -217 91 -217 c 0
 63 -217 40 -212 -2 -196 c 1
 15 -167 l 1
 45 -178 62 -182 83 -182 c 0
 117 -182 136 -167 136 -141 c 0
 136 -115 117 -97 90 -97 c 0
 80 -97 72 -99 58 -104 c 1
 49 -96 l 1
 108 -2 l 1
 78 6 69 8 56 8 c 0
 46 8 40 3 32 -13 c 1
 16 -13 l 1
 36 146 l 1
 52 146 l 1
 68 51 99 10 154 10 c 0
 198 10 228 42 228 87 c 0
 228 175 109 236 109 331 c 0
 109 398 157 441 230 441 c 0
 267 441 300 424 322 424 c 0
 336 424 344 428 352 442 c 1
 366 442 l 1
 346 303 l 1
 330 303 l 1
 320 381 290 418 238 418 c 0
 203 418 182 397 182 364 c 0
EndSplineSet
Validated: 1
EndChar

StartChar: uni0162
Encoding: 354 354 287
Width: 556
Flags: MW
LayerCount: 2
Fore
SplineSet
189 0 m 1
 65 0 l 1
 65 16 l 1
 131 21 155 37 171 90 c 1
 315 618 l 1
 294 618 l 0
 159 618 127 598 77 495 c 1
 59 499 l 1
 101 653 l 1
 633 653 l 1
 589 490 l 1
 572 492 l 1
 574 509 575 524 575 537 c 0
 575 593 543 618 471 618 c 2
 416 618 l 1
 277 120 l 0
 268 86 265 74 265 61 c 0
 265 31 277 22 317 19 c 0
 323 19 338 17 355 16 c 1
 355 0 l 1
 227 0 l 1
 183 -66 l 1
 193 -64 200 -63 208 -63 c 0
 258 -63 290 -90 290 -131 c 0
 290 -181 240 -217 171 -217 c 0
 143 -217 120 -212 78 -196 c 1
 95 -167 l 1
 125 -178 142 -182 163 -182 c 0
 197 -182 216 -167 216 -141 c 0
 216 -115 197 -97 170 -97 c 0
 160 -97 152 -99 138 -104 c 1
 129 -96 l 1
 189 0 l 1
EndSplineSet
Validated: 1
EndChar

StartChar: uni0163
Encoding: 355 355 288
Width: 278
Flags: MW
LayerCount: 2
Fore
SplineSet
105 -10 m 1
 61 -77 l 1
 71 -75 78 -74 86 -74 c 0
 136 -74 168 -101 168 -142 c 0
 168 -192 118 -228 49 -228 c 0
 21 -228 -2 -223 -44 -207 c 1
 -27 -178 l 1
 3 -189 20 -193 41 -193 c 0
 75 -193 94 -178 94 -152 c 0
 94 -126 75 -108 48 -108 c 0
 38 -108 30 -110 16 -115 c 1
 7 -107 l 1
 69 -9 l 1
 50 -4 37 10 37 27 c 0
 37 46 57 107 60 121 c 2
 132 396 l 1
 58 396 l 1
 57 399 57 401 57 402 c 0
 57 413 64 419 89 427 c 0
 158 446 220 546 237 546 c 0
 242 546 245 543 245 536 c 0
 245 535 245 533 244 531 c 1
 216 428 l 1
 296 428 l 1
 291 396 l 1
 207 396 l 1
 119 63 l 2
 118 60 118 59 118 58 c 0
 118 46 124 38 133 38 c 0
 149 38 165 54 214 117 c 1
 227 110 l 1
 174 32 141 -1 105 -10 c 1
EndSplineSet
Validated: 1
EndChar

StartChar: Tbar
Encoding: 358 358 291
Width: 556
Flags: MW
LayerCount: 2
Fore
SplineSet
101 653 m 1
 633 653 l 1
 589 490 l 1
 572 492 l 1
 574 509 575 524 575 537 c 0
 575 593 543 618 471 618 c 2
 416 618 l 1
 345 362 l 1
 443 362 l 1
 432 311 l 1
 330 311 l 1
 277 120 l 2
 268 86 265 74 265 61 c 0
 265 31 277 22 317 19 c 0
 323 19 338 17 355 16 c 1
 355 0 l 1
 65 0 l 1
 65 16 l 1
 131 21 157 37 171 90 c 0
 231 311 l 1
 131 311 l 1
 142 362 l 1
 245 362 l 1
 315 618 l 1
 294 618 l 2
 159 618 127 598 77 495 c 1
 59 499 l 1
 101 653 l 1
EndSplineSet
Validated: 1
EndChar

StartChar: tbar
Encoding: 359 359 292
Width: 278
Flags: MW
LayerCount: 2
Fore
SplineSet
216 428 m 1
 296 428 l 1
 291 396 l 1
 207 396 l 1
 179 290 l 1
 270 290 l 1
 258 239 l 1
 166 239 l 1
 119 63 l 2
 118 60 118 59 118 58 c 0
 118 46 124 38 133 38 c 0
 149 38 165 54 214 117 c 1
 227 110 l 1
 164 17 131 -11 85 -11 c 0
 58 -11 37 5 37 27 c 0
 37 46 57 108 60 121 c 2
 91 239 l 1
 13 239 l 1
 25 290 l 1
 104 290 l 1
 132 396 l 1
 58 396 l 1
 57 399 57 401 57 402 c 0
 57 434 127 413 222 537 c 0
 228 545 231 546 237 546 c 0
 242 546 245 543 245 536 c 0
 245 535 245 533 244 531 c 1
 216 428 l 1
EndSplineSet
Validated: 1
EndChar

StartChar: Uogonek
Encoding: 370 370 303
Width: 722
Flags: MW
LayerCount: 2
Fore
SplineSet
637 591 m 0
 637 626 609 633 566 637 c 1
 566 653 l 1
 765 653 l 1
 765 637 l 1
 703 623 699 618 661 488 c 2
 578 203 l 2
 543 88 469 8 469 -52 c 0
 469 -85 492 -106 528 -106 c 0
 559 -106 584 -96 611 -74 c 1
 628 -92 l 1
 593 -143 551 -169 503 -169 c 0
 451 -169 408 -126 408 -75 c 0
 408 -44 418 -19 443 10 c 1
 404 -10 366 -18 319 -18 c 0
 194 -18 102 51 102 147 c 0
 102 187 115 251 145 359 c 2
 198 551 l 1
 202 568 205 584 205 596 c 0
 205 625 194 631 127 637 c 1
 127 653 l 1
 400 653 l 1
 400 637 l 1
 307 627 307 585 290 527 c 0
 223 296 192 175 192 141 c 0
 192 71 249 23 332 23 c 0
 514 23 544 242 563 304 c 0
 611 473 637 575 637 591 c 0
EndSplineSet
Validated: 1
EndChar

StartChar: uogonek
Encoding: 371 371 304
Width: 500
Flags: MW
LayerCount: 2
Fore
SplineSet
118 376 m 0
 118 396 99 400 58 400 c 1
 58 414 l 1
 115 421 151 428 208 441 c 1
 211 439 l 1
 120 76 l 2
 119 73 119 71 119 67 c 0
 119 52 128 42 140 42 c 0
 172 42 221 93 281 188 c 0
 327 261 334 277 391 432 c 1
 465 432 l 1
 386 133 l 2
 367 61 367 61 367 55 c 0
 367 44 371 38 378 38 c 0
 394 38 409 52 461 117 c 1
 475 108 l 1
 425 37 407 16 380 1 c 0
 347 -17 341 -26 341 -51 c 0
 341 -85 364 -106 400 -106 c 0
 431 -106 456 -96 483 -74 c 1
 500 -92 l 1
 465 -144 423 -169 375 -169 c 0
 323 -169 280 -126 280 -74 c 0
 280 -48 288 -26 306 -1 c 1
 295 8 289 22 289 39 c 0
 289 60 305 129 334 236 c 1
 219 43 166 -11 95 -11 c 0
 60 -11 42 8 42 44 c 0
 42 62 49 96 67 167 c 0
 104 309 l 2
 113 343 118 368 118 376 c 0
EndSplineSet
Validated: 1
EndChar

StartChar: longs
Encoding: 383 383 316
Width: 278
Flags: MW
LayerCount: 2
Fore
SplineSet
-71 -143 m 0
 -71 -158 -80 -160 -80 -170 c 0
 -80 -179 -72 -186 -60 -186 c 0
 -18 -186 15 -131 37 -24 c 0
 125 396 l 1
 35 396 l 1
 42 428 l 1
 134 428 l 1
 167 535 216 678 338 678 c 0
 387 678 424 650 424 613 c 0
 424 591 405 573 382 573 c 0
 360 573 345 589 345 613 c 0
 345 628 355 637 355 644 c 0
 355 651 346 656 333 656 c 0
 277 656 246 584 211 428 c 0
 132 76 l 2
 91 -108 21 -207 -68 -207 c 0
 -112 -207 -147 -180 -147 -146 c 0
 -147 -123 -131 -105 -110 -105 c 0
 -89 -105 -71 -122 -71 -143 c 0
EndSplineSet
Validated: 1
EndChar

StartChar: uni01C2
Encoding: 450 450 317
Width: 600
Flags: MW
LayerCount: 2
Fore
SplineSet
584 376 m 1
 571 326 l 1
 343 326 l 1
 307 180 l 1
 535 180 l 1
 522 130 l 1
 294 130 l 1
 235 -108 l 1
 185 -108 l 1
 244 130 l 1
 16 130 l 1
 29 180 l 1
 257 180 l 1
 293 326 l 1
 65 326 l 1
 78 376 l 1
 306 376 l 1
 365 614 l 1
 415 614 l 1
 356 376 l 1
 584 376 l 1
EndSplineSet
Validated: 1
EndChar

StartChar: uni01E4
Encoding: 484 484 339
Width: 722
Flags: MW
LayerCount: 2
Fore
SplineSet
722 303 m 1
 636 298 633 269 615 191 c 1
 706 191 l 1
 693 147 l 1
 603 147 l 1
 576 44 l 1
 512 4 421 -18 345 -18 c 0
 192 -18 52 76 52 240 c 0
 52 458 233 666 457 666 c 0
 525 666 591 632 630 632 c 0
 657 632 679 643 693 666 c 1
 708 662 l 1
 659 465 l 1
 641 468 l 1
 634 573 563 632 461 632 c 0
 263 632 162 390 162 221 c 0
 162 94 235 19 364 19 c 0
 464 19 484 59 508 147 c 1
 415 147 l 1
 428 191 l 1
 519 191 l 1
 524 213 534 243 534 266 c 0
 534 302 481 301 456 303 c 1
 456 319 l 1
 722 319 l 1
 722 303 l 1
EndSplineSet
Validated: 1
EndChar

StartChar: uni01E5
Encoding: 485 485 340
Width: 500
Flags: MW
LayerCount: 2
Fore
SplineSet
472 366 m 1
 422 366 l 1
 428 347 431 327 431 307 c 0
 431 224 325 151 248 151 c 0
 235 151 221 155 208 155 c 0
 194 155 172 128 172 115 c 0
 172 62 384 76 385 -64 c 1
 415 -64 l 1
 408 -105 l 1
 377 -105 l 1
 347 -186 246 -206 170 -206 c 0
 106 -206 18 -181 9 -105 c 1
 -26 -105 l 1
 -19 -64 l 1
 12 -64 l 1
 27 -20 88 15 125 39 c 1
 112 49 98 61 98 79 c 0
 98 113 150 145 175 162 c 1
 125 184 96 213 96 271 c 0
 96 373 199 441 294 441 c 0
 352 441 406 405 411 405 c 2
 472 405 l 1
 472 366 l 1
352 351 m 0
 352 389 337 419 295 419 c 0
 217 419 174 316 174 250 c 0
 174 209 189 172 236 172 c 0
 313 172 352 289 352 351 c 0
321 -64 m 1
 306 -27 179 28 147 28 c 0
 122 28 68 -38 64 -64 c 1
 321 -64 l 1
323 -105 m 1
 64 -105 l 1
 74 -162 134 -184 186 -184 c 0
 238 -184 310 -165 323 -105 c 1
EndSplineSet
Validated: 1
EndChar

StartChar: uni01EA
Encoding: 490 490 345
Width: 730
Flags: MW
LayerCount: 2
Fore
SplineSet
403 -105 m 1
 420 -123 l 1
 385 -174 343 -200 295 -200 c 0
 243 -200 200 -157 200 -105 c 0
 200 -70.5834 212.237 -43.5087 241.496 -15.1617 c 1
 133.921 1.94473 60 94.8198 60 221 c 0
 60 467 299 666 474 666 c 0
 603 666 699 566 699 432 c 0
 699 244.193 525.357 -17.4618 278.761 -17.9991 c 1
 266.92 -41.9823 261 -63.9912 261 -86 c 0
 261 -116 286 -137 320 -137 c 0
 351 -137 376 -127 403 -105 c 1
295 15 m 0
 474 15 594 306 594 481 c 0
 594 575 544 633 465 633 c 0
 392 633 331 595 275 514 c 0
 215 427 165 278 165 184 c 0
 165 76 211 15 295 15 c 0
EndSplineSet
EndChar

StartChar: uni01EB
Encoding: 491 491 346
Width: 500
Flags: M
LayerCount: 2
Fore
SplineSet
297 -105 m 1
 314 -123 l 1
 279 -174 237 -200 189 -200 c 0
 137 -200 94 -157 94 -105 c 0
 94 -67.9616 108.172 -39.4264 142.481 -8.65767 c 1
 70.2436 2.56513 27 53.4273 27 129 c 0
 27 286 175 441 325 441 c 0
 410 441 468 384 468 301 c 0
 468 172.623 338.263 -9.23277 176.361 -10.9872 c 1
 162.12 -37.7274 155 -61.8637 155 -86 c 0
 155 -116 180 -137 214 -137 c 0
 245 -137 270 -127 297 -105 c 1
189 10 m 0
 301 10 384 208 384 326 c 0
 384 383 356 420 313 420 c 0
 207 420 111 231 111 101 c 0
 111 46 142 10 189 10 c 0
EndSplineSet
EndChar

StartChar: uni0228
Encoding: 552 552 388
Width: 604
Flags: M
LayerCount: 2
Fore
SplineSet
249 33 m 0
 438 33 477 78 545 170 c 1
 561 162 l 1
 499 0 l 1
 229.333 -1.38778e-17 l 1
 186 -65 l 1
 196 -63 203 -62 211 -62 c 0
 261 -62 293 -89 293 -130 c 0
 293 -180 243 -216 174 -216 c 0
 146 -216 123 -211 81 -195 c 1
 98 -166 l 1
 128 -177 145 -181 166 -181 c 0
 200 -181 219 -166 219 -140 c 0
 219 -114 200 -96 173 -96 c 0
 163 -96 155 -98 141 -103 c 1
 132 -95 l 1
 191.375 1.77636e-15 l 1
 -8 0 l 1
 -8 16 l 1
 48 26 57 33 73 90 c 2
 196 532 l 2
 201 550 207 585 207 596 c 0
 207 623 192 631 130 637 c 1
 130 653 l 1
 627 653 l 1
 596 500 l 1
 575 502 l 1
 576 519 577 534 577 547 c 0
 577 607 542 620 385 620 c 0
 329 620 318.215 615.94 312 594 c 2
 246 361 l 1
 281 362 313 363 325 363 c 0
 416 367 425 373 463 458 c 1
 481 454 l 1
 413 222 l 1
 393 227 l 1
 398 249 400 262 400 279 c 0
 400 312 387 325 323 325 c 2
 315 325 l 2
 303 325 272 326 237 328 c 1
 182 119 169 113 169 67 c 0
 169 43 193 33 249 33 c 0
EndSplineSet
Validated: 1
EndChar

StartChar: uni0229
Encoding: 553 553 389
Width: 444
Flags: M
LayerCount: 2
Fore
SplineSet
135 208 m 1
 324 254 346 342 346 379 c 0
 346 402 332 418 311 418 c 0
 260 418 186.336 340.871 152 252 c 2
 135 208 l 1
358 109 m 1
 370 97 l 1
 311.928 31.0535 236.417 -9.70421 166.354 -10.9696 c 1
 125 -73 l 1
 135 -71 142 -70 150 -70 c 0
 200 -70 232 -97 232 -138 c 0
 232 -188 182 -224 113 -224 c 0
 85 -224 62 -219 20 -203 c 1
 37 -174 l 1
 67 -185 84 -189 105 -189 c 0
 139 -189 158 -174 158 -148 c 0
 158 -122 139 -104 112 -104 c 0
 102 -104 94 -106 80 -111 c 1
 71 -103 l 1
 130.652 -7.55711 l 1
 70.4651 5.77887 31 56.754 31 126 c 0
 31 276 188 441 332 441 c 0
 382 441 412 415 412 373 c 0
 412 287 305.941 211.42 156 190 c 2
 128 186 l 1
 120 154 118 139 118 124 c 0
 118 70 155 34 212 34 c 0
 255 34 286 50 358 109 c 1
EndSplineSet
Validated: 1
EndChar

StartChar: uni0292
Encoding: 658 658 400
Width: 389
Flags: MW
LayerCount: 2
Fore
SplineSet
380 417 m 1
 205 210 l 1
 292 190 342 137 342 44 c 0
 342 -107 210 -209 66 -209 c 0
 28 -209 -48 -203 -48 -150 c 0
 -48 -121 -28 -111 -1 -111 c 0
 46 -111 78 -171 134 -171 c 0
 216 -171 262 -83 262 -11 c 0
 262 86 227 137 133 158 c 1
 308 368 l 1
 162 368 l 2
 114 368 99 355 81 309 c 1
 65 313 l 1
 96 428 l 1
 380 428 l 1
 380 417 l 1
EndSplineSet
Validated: 1
EndChar

StartChar: circumflex
Encoding: 710 710 401
Width: 333
Flags: MW
LayerCount: 2
Fore
SplineSet
297 661 m 1
 385 492 l 1
 349 492 l 1
 267 596 l 1
 130 492 l 1
 91 492 l 1
 248 661 l 1
 297 661 l 1
EndSplineSet
Validated: 1
EndChar

StartChar: caron
Encoding: 711 711 402
Width: 333
Flags: MW
LayerCount: 2
Fore
SplineSet
426 661 m 1
 263 492 l 1
 217 492 l 1
 121 661 l 1
 158 661 l 1
 248 556 l 1
 390 661 l 1
 426 661 l 1
EndSplineSet
Validated: 1
EndChar

StartChar: breve
Encoding: 728 728 403
Width: 333
Flags: MW
LayerCount: 2
Fore
SplineSet
418 650 m 1
 402 573 350 492 247 492 c 0
 143 492 117 561 117 650 c 1
 146 650 l 1
 151 588 190 551 254 551 c 0
 315 551 364 587 389 650 c 1
 418 650 l 1
EndSplineSet
Validated: 1
EndChar

StartChar: dotaccent
Encoding: 729 729 404
Width: 333
Flags: MW
LayerCount: 2
Fore
SplineSet
257 606 m 0
 282 606 305 582 305 557 c 0
 305 530 283 508 256 508 c 0
 229 508 207 530 207 558 c 0
 207 584 229 606 257 606 c 0
EndSplineSet
Validated: 1
EndChar

StartChar: ring
Encoding: 730 730 405
Width: 333
Flags: MW
LayerCount: 2
Fore
SplineSet
254 707 m 0
 309 707 355 662 355 607 c 0
 355 553 310 508 255 508 c 0
 199 508 155 552 155 608 c 0
 155 662 200 707 254 707 c 0
254 673 m 0
 219 673 189 643 189 608 c 0
 189 571 218 542 254 542 c 0
 292 542 321 570 321 607 c 0
 321 643 291 673 254 673 c 0
EndSplineSet
Validated: 1
EndChar

StartChar: ogonek
Encoding: 731 731 406
Width: 333
Flags: MW
LayerCount: 2
Fore
SplineSet
183 -74 m 1
 200 -92 l 1
 165 -143 123 -169 75 -169 c 0
 23 -169 -20 -126 -20 -74 c 0
 -20 -30 0 2 50 40 c 1
 74 40 l 1
 52 5 41 -25 41 -55 c 0
 41 -85 66 -106 100 -106 c 0
 131 -106 156 -96 183 -74 c 1
EndSplineSet
Validated: 1
EndChar

StartChar: tilde
Encoding: 732 732 407
Width: 333
Flags: MW
LayerCount: 2
Fore
SplineSet
200 623 m 0
 252 623 313 580 348 580 c 0
 375 580 388 591 399 624 c 1
 427 624 l 1
 413 557 380 520 332 520 c 0
 300 520 216 564 180 564 c 0
 155 564 139 549 129 517 c 1
 100 517 l 1
 120 594 148 623 200 623 c 0
EndSplineSet
Validated: 1
EndChar

StartChar: hungarumlaut
Encoding: 733 733 408
Width: 333
Flags: MW
LayerCount: 2
Fore
SplineSet
93 494 m 1
 255 654 l 2
 262 660 270 664 280 664 c 0
 300 664 316 648 316 628 c 0
 316 616 311 607 299 600 c 2
 128 494 l 1
 93 494 l 1
263 494 m 1
 425 654 l 2
 432 660 440 664 450 664 c 0
 470 664 486 648 486 628 c 0
 486 616 481 607 469 600 c 2
 298 494 l 1
 263 494 l 1
EndSplineSet
Validated: 1
EndChar

StartChar: gravecomb
Encoding: 768 768 409
Width: 0
Flags: MW
AnchorPoint: "above" -104 432 mark 0
LayerCount: 2
Fore
SplineSet
-107 492 m 1
 -247 598 l 2
 -252 602 -266 612 -266 629 c 0
 -266 649 -252 664 -230 664 c 0
 -223 664 -210 664 -192 641 c 2
 -76 492 l 1
 -107 492 l 1
EndSplineSet
Validated: 1
EndChar

StartChar: acutecomb
Encoding: 769 769 410
Width: 0
Flags: MW
AnchorPoint: "above" -164 432 mark 0
LayerCount: 2
Fore
SplineSet
20 600 m 2
 -151 494 l 1
 -186 494 l 1
 -24 654 l 2
 -18 660 -10 664 1 664 c 0
 22 664 37 647 37 629 c 0
 37 614 31 607 20 600 c 2
EndSplineSet
Validated: 1
EndChar

StartChar: uni0302
Encoding: 770 770 411
Width: 0
Flags: MW
LayerCount: 2
Fore
SplineSet
-125 661 m 1
 -37 492 l 1
 -73 492 l 1
 -155 596 l 1
 -292 492 l 1
 -331 492 l 1
 -174 661 l 1
 -125 661 l 1
EndSplineSet
Validated: 1
EndChar

StartChar: tildecomb
Encoding: 771 771 412
Width: 0
Flags: MW
LayerCount: 2
Fore
SplineSet
-40 520 m 0
 -71 520 -155 564 -190 564 c 0
 -218 564 -235 545 -242 517 c 1
 -271 517 l 1
 -261 555 -244 623 -170 623 c 0
 -116 623 -63 580 -25 580 c 0
 13 580 21 603 28 624 c 1
 56 624 l 1
 45 557 5 520 -40 520 c 0
EndSplineSet
Validated: 1
EndChar

StartChar: uni0304
Encoding: 772 772 413
Width: 0
Flags: MW
LayerCount: 2
Fore
SplineSet
48 583 m 1
 48 532 l 1
 -242 532 l 1
 -242 583 l 1
 48 583 l 1
EndSplineSet
Validated: 1
EndChar

StartChar: uni0305
Encoding: 773 773 414
Width: 0
Flags: MW
LayerCount: 2
Fore
SplineSet
-351 601 m 1
 112 601 l 1
 112 547 l 1
 -351 547 l 1
 -351 601 l 1
EndSplineSet
Validated: 1
EndChar

StartChar: uni0306
Encoding: 774 774 415
Width: 0
Flags: MW
LayerCount: 2
Fore
SplineSet
6 650 m 1
 35 650 l 1
 21 563 -47 492 -133 492 c 0
 -266 492 -266 608 -266 650 c 1
 -237 650 l 1
 -237 634 -227 551 -128 551 c 0
 -29 551 5 646 6 650 c 1
EndSplineSet
Validated: 1
EndChar

StartChar: uni0307
Encoding: 775 775 416
Width: 0
Flags: MW
LayerCount: 2
Fore
SplineSet
-201 606 m 0
 -184 606 -153 590 -153 557 c 0
 -153 530 -175 508 -202 508 c 0
 -229 508 -251 529 -251 558 c 0
 -251 591 -221 606 -201 606 c 0
EndSplineSet
Validated: 1
EndChar

StartChar: diaeresiscomb
Encoding: 776 776 417
Width: 0
Flags: MW
LayerCount: 2
Fore
SplineSet
-211 606 m 0
 -194 606 -163 590 -163 557 c 0
 -163 530 -185 508 -212 508 c 0
 -239 508 -261 529 -261 558 c 0
 -261 591 -231 606 -211 606 c 0
-11 606 m 0
 6 606 37 590 37 557 c 0
 37 530 15 508 -12 508 c 0
 -39 508 -61 529 -61 558 c 0
 -61 591 -31 606 -11 606 c 0
EndSplineSet
Validated: 1
EndChar

StartChar: hookabovecomb
Encoding: 777 777 418
Width: 0
Flags: MW
LayerCount: 2
Fore
SplineSet
-25 624 m 0
 -25 560 -89 558 -109 515 c 1
 -134 515 l 1
 -121 578 -72 568 -72 628 c 0
 -72 643 -79 655 -101 655 c 0
 -152 655 -136 619 -142 600 c 0
 -144 593 -151 583 -162 583 c 0
 -173 583 -176 588 -176 596 c 0
 -176 627 -140 674 -86 674 c 0
 -64 674 -25 664 -25 624 c 0
EndSplineSet
EndChar

StartChar: uni030A
Encoding: 778 778 419
Width: 0
Flags: MW
LayerCount: 2
Fore
SplineSet
-216 590 m 0
 -216 644 -174 690 -116 690 c 0
 -62 690 -16 645 -16 590 c 0
 -16 535 -62 491 -116 491 c 0
 -173 491 -216 536 -216 590 c 0
-182 590 m 0
 -182 565 -163 525 -117 525 c 0
 -79 525 -50 553 -50 590 c 0
 -50 626 -79 656 -117 656 c 0
 -162 656 -182 615 -182 590 c 0
EndSplineSet
Validated: 1
EndChar

StartChar: uni030B
Encoding: 779 779 420
Width: 0
Flags: MW
LayerCount: 2
Fore
SplineSet
-39 600 m 2
 -210 494 l 1
 -245 494 l 1
 -83 654 l 2
 -77 660 -69 664 -58 664 c 0
 -37 664 -22 647 -22 629 c 0
 -22 614 -28 607 -39 600 c 2
131 600 m 2
 -40 494 l 1
 -75 494 l 1
 87 654 l 2
 93 660 101 664 112 664 c 0
 133 664 148 647 148 629 c 0
 148 614 142 607 131 600 c 2
EndSplineSet
Validated: 1
EndChar

StartChar: uni030C
Encoding: 780 780 421
Width: 0
Flags: MW
AnchorPoint: "above" -137 432 mark 0
LayerCount: 2
Fore
SplineSet
61 661 m 1
 -102 492 l 1
 -148 492 l 1
 -244 661 l 1
 -207 661 l 1
 -117 556 l 1
 25 661 l 1
 61 661 l 1
EndSplineSet
Validated: 1
EndChar

StartChar: uni030D
Encoding: 781 781 422
Width: 0
Flags: MW
LayerCount: 2
Fore
SplineSet
-38 680 m 0
 -38 662 -92 544 -109 507 c 1
 -126 507 l 1
 -113 652 -114 703 -63 703 c 0
 -50 703 -38 695 -38 680 c 0
EndSplineSet
Validated: 1
EndChar

StartChar: uni030E
Encoding: 782 782 423
Width: 0
Flags: MW
LayerCount: 2
Fore
SplineSet
27 680 m 0
 27 662 -27 544 -44 507 c 1
 -61 507 l 1
 -48 652 -49 703 2 703 c 0
 15 703 27 695 27 680 c 0
-107 680 m 0
 -107 662 -161 544 -178 507 c 1
 -195 507 l 1
 -182 652 -183 703 -132 703 c 0
 -119 703 -107 695 -107 680 c 0
EndSplineSet
Validated: 1
EndChar

StartChar: uni030F
Encoding: 783 783 424
Width: 0
Flags: MW
LayerCount: 2
Fore
SplineSet
-306 636 m 0
 -306 645 -298 678 -263 678 c 0
 -249 678 -242 678 -225 655 c 2
 -119 507 l 1
 -159 507 l 1
 -286 604 l 2
 -294 610 -306 619 -306 636 c 0
-150 636 m 0
 -150 645 -142 678 -107 678 c 0
 -93 678 -86 678 -69 655 c 2
 37 507 l 1
 -3 507 l 1
 -130 604 l 2
 -138 610 -150 619 -150 636 c 0
EndSplineSet
Validated: 1
EndChar

StartChar: uni0310
Encoding: 784 784 425
Width: 0
Flags: MW
LayerCount: 2
Fore
SplineSet
5 664 m 1
 34 664 l 1
 23 633 -24 507 -152 507 c 0
 -210 507 -256 538 -256 606 c 0
 -256 623 -253 642 -247 664 c 1
 -218 664 l 1
 -219 658 -219 652 -219 646 c 0
 -219 596 -191 567 -134 567 c 0
 -58 567 -28 614 5 664 c 1
-161 667 m 0
 -161 686 -146 717 -113 717 c 0
 -86 717 -63 694 -63 667 c 0
 -63 639 -86 617 -113 617 c 0
 -147 617 -161 647 -161 667 c 0
EndSplineSet
Validated: 1
EndChar

StartChar: uni0311
Encoding: 785 785 426
Width: 0
Flags: MW
LayerCount: 2
Fore
SplineSet
-8 506 m 1
 -13 556 -17 603 -93 603 c 0
 -157 603 -204 567 -231 506 c 1
 -260 506 l 1
 -231 615 -150 663 -78 663 c 0
 10 663 26 604 26 557 c 0
 26 535 23 516 21 506 c 1
 -8 506 l 1
EndSplineSet
Validated: 1
EndChar

StartChar: uni0312
Encoding: 786 786 427
Width: 0
Flags: MW
LayerCount: 2
Fore
SplineSet
-141 596 m 0
 -141 680 -63 738 -4 738 c 0
 19 738 41 734 59 725 c 1
 44 701 l 1
 30 707 15 709 -8 709 c 0
 -42 709 -90 676 -90 628 c 0
 -90 612 -81 603 -61 603 c 0
 -47 603 -40 608 -24 608 c 0
 1 608 13 600 13 582 c 0
 13 548 -16 523 -53 523 c 0
 -109 523 -141 550 -141 596 c 0
EndSplineSet
Validated: 1
EndChar

StartChar: uni0313
Encoding: 787 787 428
Width: 0
Flags: MW
LayerCount: 2
Fore
SplineSet
-67 664 m 0
 -67 580 -145 523 -203 523 c 0
 -226 523 -249 527 -267 536 c 1
 -252 560 l 1
 -238 554 -222 552 -199 552 c 0
 -166 552 -117 585 -117 632 c 0
 -117 649 -127 658 -147 658 c 0
 -162 658 -167 653 -184 653 c 0
 -208 653 -221 661 -221 680 c 0
 -221 713 -192 738 -154 738 c 0
 -98 738 -67 711 -67 664 c 0
EndSplineSet
Validated: 1
EndChar

StartChar: uni0314
Encoding: 788 788 429
Width: 0
Flags: MW
LayerCount: 2
Fore
SplineSet
-159 658 m 0
 -204 658 -212 609 -212 597 c 0
 -212 570 -191 552 -165 552 c 0
 -142 552 -125 554 -108 560 c 1
 -106 536 l 1
 -130 527 -154 523 -177 523 c 0
 -224 523 -254 557 -254 600 c 0
 -254 631 -224 738 -106 738 c 0
 -84 738 -64 728 -64 706 c 0
 -64 677 -87 653 -125 653 c 0
 -141 653 -145 658 -159 658 c 0
EndSplineSet
Validated: 1
EndChar

StartChar: uni0315
Encoding: 789 789 430
Width: 0
Flags: MW
LayerCount: 2
Fore
SplineSet
-7 604 m 0
 -7 635 23 676 69 676 c 0
 88 676 130 667 130 616 c 0
 130 538 32 452 -29 433 c 1
 -33 452 l 1
 45 494 74 539 79 558 c 0
 79.5438 559.631 79.7919 561.131 79.7919 562.494 c 0
 79.7919 568.648 74.7311 572 69 572 c 0
 63 572 57 568 44 568 c 0
 21 568 -7 576 -7 604 c 0
EndSplineSet
Validated: 1
EndChar

StartChar: uni0316
Encoding: 790 790 431
Width: 0
Flags: MW
LayerCount: 2
Fore
SplineSet
-223 -296 m 1
 -263 -296 l 1
 -390 -199 l 2
 -398 -192 -409 -182 -409 -166 c 0
 -409 -163 -408 -160 -407 -156 c 0
 -407 -154 -398 -125 -367 -125 c 2
 -363 -125 l 2
 -350 -125 -345 -126 -329 -148 c 2
 -223 -296 l 1
EndSplineSet
Validated: 1
EndChar

StartChar: uni0317
Encoding: 791 791 432
Width: 0
Flags: MW
LayerCount: 2
Fore
SplineSet
-472 -296 m 1
 -284 -148 l 2
 -256 -126 -251 -125 -237 -125 c 0
 -234 -125 l 0
 -213 -125 -209 -139 -209 -148 c 0
 -209 -152 -210 -155 -210 -156 c 0
 -216 -177 -237 -191 -251 -199 c 2
 -432 -296 l 1
 -472 -296 l 1
EndSplineSet
Validated: 1
EndChar

StartChar: uni0318
Encoding: 792 792 433
Width: 0
Flags: MW
LayerCount: 2
Fore
SplineSet
-272 -309 m 1
 -440 -309 l 1
 -440 -255 l 1
 -257 -255 l 1
 -221 -127 l 1
 -167 -127 l 1
 -253 -438 l 1
 -307 -438 l 1
 -272 -309 l 1
EndSplineSet
Validated: 1
EndChar

StartChar: uni0319
Encoding: 793 793 434
Width: 0
Flags: MW
LayerCount: 2
Fore
SplineSet
-317 -309 m 1
 -352 -438 l 1
 -406 -438 l 1
 -320 -127 l 1
 -266 -127 l 1
 -302 -255 l 1
 -134 -255 l 1
 -134 -309 l 1
 -317 -309 l 1
EndSplineSet
Validated: 1
EndChar

StartChar: uni031A
Encoding: 794 794 435
Width: 0
Flags: MW
LayerCount: 2
Fore
SplineSet
158 742 m 1
 92 505 l 1
 38 505 l 1
 89 688 l 1
 -79 688 l 1
 -79 742 l 1
 158 742 l 1
EndSplineSet
Validated: 1
EndChar

StartChar: uni031B
Encoding: 795 795 436
Width: 0
Flags: MW
LayerCount: 2
Fore
SplineSet
124 498 m 0
 124 400 26 333 -46 333 c 0
 -57 333 -98 335 -113 358 c 1
 -103 392 l 1
 -91 373 -68 361 -40 361 c 0
 17 361 61 403 61 433 c 0
 61 464 -24 437 -24 485 c 0
 -24 501 -7 564 61 564 c 0
 101 564 124 538 124 498 c 0
EndSplineSet
Validated: 1
EndChar

StartChar: uni031C
Encoding: 796 796 437
Width: 0
Flags: MW
LayerCount: 2
Fore
SplineSet
-362 -259 m 0
 -362 -208 -309 -132 -232 -132 c 0
 -216 -132 -201 -136 -190 -143 c 1
 -214 -173 l 1
 -222 -168 -230 -166 -241 -166 c 0
 -288 -166 -326 -213 -326 -248 c 0
 -326 -271 -314 -297 -278 -297 c 0
 -267 -297 -256 -294 -245 -290 c 1
 -239 -320 l 1
 -254 -327 -271 -331 -287 -331 c 0
 -334 -331 -362 -300 -362 -259 c 0
EndSplineSet
Validated: 1
EndChar

StartChar: uni031D
Encoding: 797 797 438
Width: 0
Flags: MW
LayerCount: 2
Fore
SplineSet
-349 -312 m 1
 -298 -129 l 1
 -244 -129 l 1
 -295 -312 l 1
 -182 -312 l 1
 -182 -366 l 1
 -478 -366 l 1
 -478 -312 l 1
 -349 -312 l 1
EndSplineSet
Validated: 1
EndChar

StartChar: uni031E
Encoding: 798 798 439
Width: 0
Flags: MW
LayerCount: 2
Fore
SplineSet
-316 -231 m 1
 -430 -231 l 1
 -430 -177 l 1
 -134 -177 l 1
 -134 -231 l 1
 -262 -231 l 1
 -313 -414 l 1
 -367 -414 l 1
 -316 -231 l 1
EndSplineSet
Validated: 1
EndChar

StartChar: uni031F
Encoding: 799 799 440
Width: 0
Flags: MW
LayerCount: 2
Fore
SplineSet
-174 -231 m 1
 -174 -285 l 1
 -276 -285 l 1
 -304 -387 l 1
 -358 -387 l 1
 -330 -285 l 1
 -417 -285 l 1
 -417 -231 l 1
 -315 -231 l 1
 -287 -129 l 1
 -233 -129 l 1
 -261 -231 l 1
 -174 -231 l 1
EndSplineSet
Validated: 1
EndChar

StartChar: uni0320
Encoding: 800 800 441
Width: 0
Flags: MW
LayerCount: 2
Fore
SplineSet
-472 -177 m 1
 -176 -177 l 1
 -176 -231 l 1
 -472 -231 l 1
 -472 -177 l 1
EndSplineSet
Validated: 1
EndChar

StartChar: uni0321
Encoding: 801 801 442
Width: 0
Flags: MW
LayerCount: 2
Fore
SplineSet
-120 -145 m 0
 -120 -167 -140 -193 -168 -197 c 1
 -160 -203 -150 -207 -139 -207 c 0
 -109 -207 -78 -182 -70 -152 c 2
 -28 0 l 1
 -85 0 l 1
 -79 23 l 1
 -31 23 l 1
 -18 31 -9 39 -1 46 c 1
 7 35 l 1
 -45 -152 l 2
 -57 -196 -101 -231 -145 -231 c 0
 -182 -231 -206 -206 -206 -175 c 0
 -206 -125 -163 -115 -151 -115 c 0
 -132 -115 -120 -128 -120 -145 c 0
EndSplineSet
Validated: 1
EndChar

StartChar: uni0322
Encoding: 802 802 443
Width: 0
Flags: MW
LayerCount: 2
Fore
SplineSet
37 -145 m 0
 37 -179 -11 -231 -64 -231 c 0
 -100 -231 -123 -207 -123 -174 c 0
 -123 -167 -122 -160 -120 -152 c 2
 -68 35 l 1
 -54 46 l 1
 -50 39 -45 31 -38 23 c 1
 10 23 l 1
 4 0 l 1
 -53 0 l 1
 -95 -152 l 2
 -96 -157 -97 -162 -97 -166 c 0
 -97 -190 -81 -207 -56 -207 c 0
 -45 -207 -33 -203 -23 -197 c 1
 -38 -195 -48 -183 -48 -168 c 0
 -48 -145 -26 -115 6 -115 c 0
 25 -115 37 -128 37 -145 c 0
EndSplineSet
Validated: 1
EndChar

StartChar: dotbelowcomb
Encoding: 803 803 444
Width: 0
Flags: MW
LayerCount: 2
Fore
SplineSet
-386 -175 m 0
 -386 -156 -371 -125 -338 -125 c 0
 -311 -125 -288 -148 -288 -175 c 0
 -288 -203 -311 -225 -338 -225 c 0
 -372 -225 -386 -195 -386 -175 c 0
EndSplineSet
Validated: 1
EndChar

StartChar: uni0324
Encoding: 804 804 445
Width: 0
Flags: MW
LayerCount: 2
Fore
SplineSet
-460 -175 m 0
 -460 -156 -445 -125 -412 -125 c 0
 -385 -125 -362 -148 -362 -175 c 0
 -362 -203 -385 -225 -412 -225 c 0
 -446 -225 -460 -195 -460 -175 c 0
-261 -175 m 0
 -261 -156 -246 -125 -213 -125 c 0
 -186 -125 -163 -148 -163 -175 c 0
 -163 -203 -186 -225 -213 -225 c 0
 -247 -225 -261 -195 -261 -175 c 0
EndSplineSet
Validated: 1
EndChar

StartChar: uni0325
Encoding: 805 805 446
Width: 0
Flags: MW
LayerCount: 2
Fore
SplineSet
-471 -232 m 0
 -471 -178 -428 -132 -372 -132 c 0
 -317 -132 -272 -177 -272 -232 c 0
 -272 -287 -317 -331 -372 -331 c 0
 -429 -331 -471 -286 -471 -232 c 0
-372 -166 m 0
 -417 -166 -437 -207 -437 -231 c 0
 -437 -256 -418 -297 -373 -297 c 0
 -335 -297 -306 -268 -306 -232 c 0
 -306 -196 -335 -166 -372 -166 c 0
EndSplineSet
Validated: 1
EndChar

StartChar: uni0326
Encoding: 806 806 447
Width: 0
Flags: MW
LayerCount: 2
Fore
SplineSet
-355 -200 m 0
 -355 -171 -327 -127 -279 -127 c 0
 -260 -127 -219 -136 -219 -187 c 0
 -219 -266 -319 -352 -378 -370 c 1
 -381 -351 l 1
 -304 -309 -275 -264 -270 -245 c 0
 -269.456 -243.369 -269.208 -241.869 -269.208 -240.506 c 0
 -269.208 -234.352 -274.269 -231 -280 -231 c 0
 -285 -231 -293 -235 -305 -235 c 0
 -327 -235 -355 -228 -355 -200 c 0
EndSplineSet
Validated: 1
EndChar

StartChar: uni0327
Encoding: 807 807 448
Width: 0
Flags: MW
LayerCount: 2
Fore
SplineSet
-353 -96 m 1
 -293 0 l 1
 -255 0 l 1
 -299 -66 l 1
 -290 -64 -284 -63 -272 -63 c 0
 -228 -63 -192 -87 -192 -130 c 0
 -192 -198 -265 -217 -314 -217 c 0
 -338 -217 -372 -209 -404 -196 c 1
 -387 -167 l 1
 -369 -174 -346 -182 -321 -182 c 0
 -266 -182 -266 -150 -266 -138 c 0
 -266 -114 -288 -97 -312 -97 c 0
 -323 -97 -334 -100 -344 -104 c 1
 -353 -96 l 1
EndSplineSet
Validated: 1
EndChar

StartChar: uni0328
Encoding: 808 808 449
Width: 0
Flags: MW
LayerCount: 2
Fore
SplineSet
-247 0 m 1
 -280 -21 -312 -51 -312 -81 c 0
 -312 -99 -300 -109 -285 -109 c 0
 -255 -109 -230 -92 -202 -73 c 1
 -187 -89 l 1
 -222 -128 -273 -165 -318 -165 c 0
 -352 -165 -374 -147 -374 -113 c 0
 -374 -67 -338 -26 -293 0 c 1
 -247 0 l 1
EndSplineSet
Validated: 1
EndChar

StartChar: uni0329
Encoding: 809 809 450
Width: 0
Flags: MW
LayerCount: 2
Fore
SplineSet
-371 -304 m 0
 -371 -286 -310 -156 -298 -131 c 1
 -281 -131 l 1
 -295 -255 -290 -327 -344 -327 c 0
 -358 -327 -371 -319 -371 -304 c 0
EndSplineSet
Validated: 1
EndChar

StartChar: uni032A
Encoding: 810 810 451
Width: 0
Flags: MW
LayerCount: 2
Fore
SplineSet
-202 -231 m 1
 -405 -231 l 1
 -438 -349 l 1
 -492 -349 l 1
 -444 -177 l 1
 -133 -177 l 1
 -181 -349 l 1
 -235 -349 l 1
 -202 -231 l 1
EndSplineSet
Validated: 1
EndChar

StartChar: uni032B
Encoding: 811 811 452
Width: 0
Flags: MW
LayerCount: 2
Fore
SplineSet
-285 -204 m 0
 -277.462 -204 -275.722 -205.74 -275.722 -215.464 c 0
 -275.722 -223.799 -277 -238 -277 -262 c 0
 -277 -298 -272 -336 -240 -336 c 0
 -205 -336 -196 -285 -196 -246 c 0
 -196 -188 -213 -179 -213 -163 c 0
 -213 -157 -208 -153 -203 -153 c 0
 -191 -153 -144 -195 -144 -259 c 0
 -144 -286 -160 -373 -226 -373 c 0
 -262 -373 -299 -355 -313 -319 c 1
 -350 -355 -397 -373 -433 -373 c 0
 -460 -373 -473 -357 -473 -329 c 0
 -473 -243 -364 -153 -335 -153 c 0
 -331 -153 -329 -155 -329 -158 c 0
 -329 -166 -418 -251 -418 -320 c 0
 -418 -332 -412 -336 -399 -336 c 0
 -333 -336 -307 -204 -285 -204 c 0
EndSplineSet
Validated: 1
EndChar

StartChar: uni032C
Encoding: 812 812 453
Width: 0
Flags: MW
LayerCount: 2
Fore
SplineSet
-145 -165 m 1
 -316 -332 l 1
 -378 -332 l 1
 -456 -165 l 1
 -422 -165 l 1
 -329 -268 l 1
 -179 -165 l 1
 -145 -165 l 1
EndSplineSet
Validated: 1
EndChar

StartChar: uni032D
Encoding: 813 813 454
Width: 0
Flags: MW
LayerCount: 2
Fore
SplineSet
-161 -333 m 1
 -195 -333 l 1
 -289 -230 l 1
 -438 -333 l 1
 -472 -333 l 1
 -302 -166 l 1
 -240 -166 l 1
 -161 -333 l 1
EndSplineSet
Validated: 1
EndChar

StartChar: uni032E
Encoding: 814 814 455
Width: 0
Flags: MW
LayerCount: 2
Fore
SplineSet
-145 -154 m 1
 -116 -154 l 1
 -127 -185 -174 -311 -302 -311 c 0
 -360 -311 -406 -280 -406 -212 c 0
 -406 -195 -403 -176 -397 -154 c 1
 -368 -154 l 1
 -369 -160 -369 -166 -369 -172 c 0
 -369 -222 -341 -251 -284 -251 c 0
 -208 -251 -178 -204 -145 -154 c 1
EndSplineSet
Validated: 1
EndChar

StartChar: uni032F
Encoding: 815 815 456
Width: 0
Flags: MW
LayerCount: 2
Fore
SplineSet
-194 -312 m 1
 -199 -262 -203 -215 -279 -215 c 0
 -343 -215 -390 -251 -417 -312 c 1
 -446 -312 l 1
 -417 -203 -336 -155 -264 -155 c 0
 -176 -155 -160 -214 -160 -261 c 0
 -160 -283 -163 -302 -165 -312 c 1
 -194 -312 l 1
EndSplineSet
Validated: 1
EndChar

StartChar: uni0330
Encoding: 816 816 457
Width: 0
Flags: MW
LayerCount: 2
Fore
SplineSet
-138 -175 m 1
 -109 -175 l 1
 -127 -209 -165 -281 -243 -281 c 0
 -274 -281 -292 -271 -317 -257 c 2
 -337 -246 l 2
 -348 -240 -359 -235 -371 -235 c 0
 -409 -235 -428 -264 -439 -281 c 1
 -468 -281 l 1
 -448 -237 -402 -180 -335 -180 c 0
 -314 -180 -294 -186 -274 -198 c 2
 -253 -210 l 2
 -243 -216 -224 -225 -209 -225 c 0
 -182 -225 -166 -215 -138 -175 c 1
EndSplineSet
Validated: 1
EndChar

StartChar: uni0331
Encoding: 817 817 458
Width: 0
Flags: MW
LayerCount: 2
Fore
SplineSet
-422 -177 m 1
 -126 -177 l 1
 -126 -231 l 1
 -422 -231 l 1
 -422 -177 l 1
EndSplineSet
Validated: 1
EndChar

StartChar: uni0332
Encoding: 818 818 459
Width: 0
Flags: MW
LayerCount: 2
Fore
SplineSet
-538 -177 m 1
 -75 -177 l 1
 -75 -231 l 1
 -538 -231 l 1
 -538 -177 l 1
EndSplineSet
Validated: 1
EndChar

StartChar: uni0333
Encoding: 819 819 460
Width: 0
Flags: MW
LayerCount: 2
Fore
SplineSet
-538 -177 m 1
 -75 -177 l 1
 -75 -231 l 1
 -538 -231 l 1
 -538 -177 l 1
-568 -285 m 1
 -105 -285 l 1
 -105 -339 l 1
 -568 -339 l 1
 -568 -285 l 1
EndSplineSet
Validated: 1
EndChar

StartChar: uni0334
Encoding: 820 820 461
Width: 0
Flags: MW
LayerCount: 2
Fore
SplineSet
-47 312 m 1
 -18 312 l 1
 -37 278 -75 206 -153 206 c 0
 -184 206 -202 216 -227 230 c 2
 -247 241 l 2
 -257 247 -269 252 -281 252 c 0
 -319 252 -338 223 -349 206 c 1
 -378 206 l 1
 -358 250 -312 307 -245 307 c 0
 -224 307 -204 300 -184 289 c 2
 -163 277 l 2
 -153 271 -134 262 -119 262 c 0
 -92 262 -75 272 -47 312 c 1
EndSplineSet
Validated: 1
EndChar

StartChar: uni0335
Encoding: 821 821 462
Width: 0
Flags: MW
LayerCount: 2
Fore
SplineSet
-362 244 m 1
 -149 244 l 1
 -149 201 l 1
 -362 201 l 1
 -362 244 l 1
EndSplineSet
Validated: 1
EndChar

StartChar: uni0336
Encoding: 822 822 463
Width: 0
Flags: MW
LayerCount: 2
Fore
SplineSet
-490 244 m 1
 -58 244 l 1
 -58 201 l 1
 -490 201 l 1
 -490 244 l 1
EndSplineSet
Validated: 1
EndChar

StartChar: uni0337
Encoding: 823 823 464
Width: 0
Flags: MW
LayerCount: 2
Fore
SplineSet
-474 148 m 1
 -20 336 l 1
 -13 297 l 1
 -467 109 l 1
 -474 148 l 1
EndSplineSet
Validated: 1
EndChar

StartChar: uni0338
Encoding: 824 824 465
Width: 0
Flags: MW
LayerCount: 2
Fore
SplineSet
-448 81 m 1
 -46 395 l 1
 -24 364 l 1
 -425 50 l 1
 -448 81 l 1
EndSplineSet
Validated: 1
EndChar

StartChar: uni0339
Encoding: 825 825 466
Width: 0
Flags: MW
LayerCount: 2
Fore
SplineSet
-355 -297 m 0
 -308 -297 -271 -249 -271 -215 c 0
 -271 -193 -284 -166 -320 -166 c 0
 -331 -166 -341 -168 -351 -173 c 1
 -359 -143 l 1
 -344 -136 -327 -132 -311 -132 c 0
 -264 -132 -235 -164 -235 -205 c 0
 -235 -257 -288 -331 -366 -331 c 0
 -382 -331 -397 -327 -408 -320 c 1
 -384 -290 l 1
 -377 -294 -366 -297 -355 -297 c 0
EndSplineSet
Validated: 1
EndChar

StartChar: uni033A
Encoding: 826 826 467
Width: 0
Flags: MW
LayerCount: 2
Fore
SplineSet
-246 -231 m 1
 -213 -113 l 1
 -159 -113 l 1
 -207 -285 l 1
 -518 -285 l 1
 -470 -113 l 1
 -416 -113 l 1
 -449 -231 l 1
 -246 -231 l 1
EndSplineSet
Validated: 1
EndChar

StartChar: uni033B
Encoding: 827 827 468
Width: 0
Flags: MW
LayerCount: 2
Fore
SplineSet
-298 -383 m 1
 -256 -231 l 1
 -409 -231 l 1
 -451 -383 l 1
 -298 -383 l 1
-448 -177 m 1
 -187 -177 l 1
 -259 -438 l 1
 -520 -438 l 1
 -448 -177 l 1
EndSplineSet
Validated: 1
EndChar

StartChar: uni033C
Encoding: 828 828 469
Width: 0
Flags: MW
LayerCount: 2
Fore
SplineSet
-208 -229 m 0
 -300 -229 -286 -342 -328 -342 c 0
 -336 -342 -338.4 -338 -338.4 -330.768 c 0
 -338.4 -319.92 -333 -301.8 -333 -279 c 0
 -333 -249 -346 -228 -385 -228 c 0
 -402 -228 -423 -232 -439 -237 c 0
 -441.551 -237.85 -443.621 -238.219 -445.276 -238.219 c 0
 -449.46 -238.219 -451 -235.866 -451 -233 c 0
 -451 -221 -392 -165 -347 -165 c 0
 -329 -165 -301 -181 -301 -245 c 2
 -301 -249 l 1
 -280 -210 -243 -165 -204 -165 c 0
 -153 -165 -142 -207 -142 -229 c 0
 -142 -233.648 -143.8 -238.295 -149.724 -238.295 c 0
 -151.448 -238.295 -153.521 -237.902 -156 -237 c 0
 -169 -232 -190 -229 -208 -229 c 0
EndSplineSet
Validated: 1
EndChar

StartChar: uni033D
Encoding: 829 829 470
Width: 0
Flags: MW
LayerCount: 2
Fore
SplineSet
-291 542 m 1
 -188 622 l 1
 -246 703 l 1
 -198 742 l 1
 -139 660 l 1
 -34 742 l 1
 -9 702 l 1
 -112 622 l 1
 -53 543 l 1
 -105 506 l 1
 -160 583 l 1
 -259 506 l 1
 -291 542 l 1
EndSplineSet
Validated: 1
EndChar

StartChar: uni033E
Encoding: 830 830 471
Width: 0
Flags: MW
LayerCount: 2
Fore
SplineSet
-106 581 m 0
 -106 609 -135 618 -135 648 c 0
 -135 706 -63 731 -3 749 c 1
 1 733 l 1
 -49 713 -69 693 -69 665 c 0
 -69 638 -40 626 -40 595 c 0
 -40 552 -83 528 -172 494 c 1
 -177 510 l 1
 -126 529 -106 549 -106 581 c 0
EndSplineSet
Validated: 1
EndChar

StartChar: uni033F
Encoding: 831 831 472
Width: 0
Flags: MW
LayerCount: 2
Fore
SplineSet
-322 601 m 1
 141 601 l 1
 141 547 l 1
 -322 547 l 1
 -322 601 l 1
-292 709 m 1
 171 709 l 1
 171 655 l 1
 -292 655 l 1
 -292 709 l 1
EndSplineSet
Validated: 1
EndChar

StartChar: uni0360
Encoding: 864 864 473
Width: 0
Flags: MW
LayerCount: 2
Fore
SplineSet
353 510 m 1
 335 503 l 1
 294 561 238 636 -9 636 c 0
 -109 636 -322 636 -465 503 c 1
 -478 512 l 1
 -413 580 -238 704 3 704 c 0
 171 704 297 631 353 510 c 1
EndSplineSet
Validated: 1
EndChar

StartChar: uni0361
Encoding: 865 865 474
Width: 0
Flags: MW
LayerCount: 2
Fore
SplineSet
-181 667 m 0
 -43 667 61 583 206 583 c 0
 302 583 402 650 436 687 c 1
 453 682 l 1
 418 634 335 521 171 521 c 0
 79 521 -131 605 -218 605 c 0
 -313 605 -414 536 -445 501 c 1
 -463 506 l 1
 -427 554 -345 667 -181 667 c 0
EndSplineSet
Validated: 1
EndChar

StartChar: uni0374
Encoding: 884 884 475
Width: 199
Flags: MW
LayerCount: 2
Fore
SplineSet
48 557 m 1
 31 567 l 1
 57 610 144 780 193 780 c 0
 212 780 229 767 229 747 c 0
 229 712 81 587 48 557 c 1
EndSplineSet
Validated: 1
EndChar

StartChar: uni0375
Encoding: 885 885 476
Width: 199
Flags: MW
LayerCount: 2
Fore
SplineSet
198 -10 m 1
 172 -53 84 -223 35 -223 c 0
 16 -223 0 -210 0 -190 c 0
 0 -155 148 -30 181 0 c 1
 198 -10 l 1
EndSplineSet
Validated: 1
EndChar

StartChar: ypogegrammeni
Encoding: 890 890 477
Width: 332
Flags: MW
LayerCount: 2
Fore
SplineSet
182 -112 m 5
 168 -170 126 -200 67 -200 c 4
 34 -200 9 -189 9 -152 c 4
 9 -110 18 -93 28 -52 c 5
 104 -52 l 5
 95 -89 86 -104 86 -143 c 4
 86 -155 92 -163 105 -163 c 4
 133 -163 151 -136 157 -112 c 5
 182 -112 l 5
EndSplineSet
EndChar

StartChar: anoteleia
Encoding: 903 903 481
Width: 250
Flags: MW
LayerCount: 2
Fore
SplineSet
184 411 m 0
 184 378 158 352 125 352 c 0
 92 352 66 378 66 411 c 0
 66 444 92 470 125 470 c 0
 158 470 184 444 184 411 c 0
EndSplineSet
Validated: 1
EndChar

StartChar: Alpha
Encoding: 913 913 489
Width: 641
Flags: MW
LayerCount: 2
Fore
SplineSet
614 0 m 1
 368 0 l 1
 368 16 l 1
 404 19 446 20 446 66 c 0
 446 119 432 174 424 226 c 1
 204 226 l 1
 187 192 127 96 127 51 c 0
 127 17 160 18 186 16 c 1
 186 0 l 1
 -1 0 l 1
 -1 16 l 1
 62 31 98 117 128 168 c 2
 418 668 l 1
 444 668 l 1
 538 102 l 2
 548 42 549 21 614 16 c 1
 614 0 l 1
419 262 m 1
 375 521 l 1
 225 262 l 1
 419 262 l 1
EndSplineSet
Validated: 1
EndChar

StartChar: Beta
Encoding: 914 914 490
Width: 581
Flags: MW
LayerCount: 2
Fore
SplineSet
578 504 m 0
 578 407 487 368 406 352 c 1
 406 350 l 1
 478 319 529 286 529 199 c 0
 529 58 385 0 264 0 c 2
 -18 0 l 1
 -18 16 l 1
 37 25 48 35 63 90 c 2
 186 532 l 1
 192 552 197 573 197 594 c 0
 197 636 151 635 120 637 c 1
 120 653 l 1
 378 653 l 2
 477 653 578 621 578 504 c 0
477 519 m 0
 477 591 435 623 365 623 c 0
 360 623 l 0
 335 623 310 622 303 595 c 2
 238 363 l 1
 270 362 l 1
 280 362 l 2
 385 362 477 394 477 519 c 0
421 208 m 0
 421 332 320 330 228 331 c 1
 217 285 161 103 161 75 c 0
 161 38 192 30 223 30 c 0
 339 30 421 86 421 208 c 0
EndSplineSet
Validated: 1
EndChar

StartChar: Gamma
Encoding: 915 915 491
Width: 611
Flags: MW
LayerCount: 2
Fore
SplineSet
644 653 m 1
 613 500 l 1
 592 502 l 1
 593 516 594 529 594 543 c 0
 594 612 526 621 464 621 c 0
 444 621 425 620 409 620 c 0
 401 620 391 621 381 621 c 0
 358 621 335 617 329 594 c 2
 196 120 l 2
 190 99 185 78 185 56 c 0
 185 19 226 19 253 16 c 1
 253 0 l 1
 9 0 l 1
 9 16 l 1
 64 26 74 34 90 90 c 0
 213 532 l 2
 218 550 224 574 224 593 c 0
 224 635 178 635 147 637 c 1
 147 653 l 1
 644 653 l 1
EndSplineSet
Validated: 1
EndChar

StartChar: uni0394
Encoding: 916 916 492
Width: 660
Flags: MW
LayerCount: 2
Fore
SplineSet
617 0 m 1
 -5 0 l 1
 467 666 l 1
 476 666 l 1
 617 0 l 1
501 34 m 1
 401 505 l 1
 61 34 l 1
 501 34 l 1
EndSplineSet
Validated: 1
EndChar

StartChar: Epsilon
Encoding: 917 917 493
Width: 611
Flags: MW
LayerCount: 2
Fore
SplineSet
299 360 m 0
 425 360 435 399 460 458 c 1
 478 454 l 1
 410 222 l 1
 390 227 l 1
 394 242 397 258 397 274 c 2
 397 282 l 2
 397 327 378 322 234 328 c 1
 225 295 166 99 166 67 c 0
 166 35 212 33 235 33 c 0
 387 33 453 45 542 170 c 1
 558 162 l 1
 496 0 l 1
 -11 0 l 1
 -11 16 l 1
 44 26 54 34 70 90 c 0
 193 532 l 2
 198 550 204 574 204 593 c 0
 204 635 158 635 127 637 c 1
 127 653 l 1
 624 653 l 1
 593 500 l 1
 572 502 l 1
 573 516 574 529 574 543 c 0
 574 612 506 621 444 621 c 0
 424 621 405 620 389 620 c 0
 381 620 371 621 361 621 c 0
 338 621 316 617 309 594 c 0
 243 361 l 1
 251 361 l 2
 265 361 282 360 299 360 c 0
EndSplineSet
Validated: 1
EndChar

StartChar: Zeta
Encoding: 918 918 494
Width: 606
Flags: MW
LayerCount: 2
Fore
SplineSet
606 639 m 1
 123 36 l 1
 284 36 l 2
 417 36 475 47 534 171 c 1
 553 168 l 1
 499 0 l 1
 -6 0 l 1
 -6 14 l 1
 473 617 l 1
 302 617 l 2
 189 617 142 603 93 502 c 1
 74 507 l 1
 120 653 l 1
 606 653 l 1
 606 639 l 1
EndSplineSet
Validated: 1
EndChar

StartChar: Eta
Encoding: 919 919 495
Width: 742
Flags: MW
LayerCount: 2
Fore
SplineSet
797 637 m 1
 741 627 731 620 715 563 c 0
 697 496 579 99 579 58 c 0
 579 18 629 19 658 16 c 1
 658 0 l 1
 385 0 l 1
 385 16 l 1
 440 23 470 31 486 90 c 2
 551 326 l 1
 266 326 l 1
 252 273 196 102 196 58 c 0
 196 21 241 20 268 16 c 1
 268 0 l 1
 22 0 l 1
 22 16 l 1
 77 26 87 34 103 90 c 0
 226 532 l 1
 232 552 237 573 237 594 c 0
 237 635 190 635 160 637 c 1
 160 653 l 1
 433 653 l 1
 433 637 l 1
 381 633 347 618 332 563 c 2
 278 368 l 1
 563 368 l 1
 578 422 620 532 620 594 c 0
 620 633 580 634 550 637 c 1
 550 653 l 1
 797 653 l 1
 797 637 l 1
EndSplineSet
Validated: 1
EndChar

StartChar: Theta
Encoding: 920 920 496
Width: 672
Flags: MW
LayerCount: 2
Fore
SplineSet
679 423 m 0
 679 213 475 -18 259 -18 c 0
 118 -18 40 94 40 227 c 0
 40 422 244 666 447 666 c 0
 592 666 679 565 679 423 c 0
574 472 m 0
 574 559 541 633 443 633 c 0
 257 633 145 335 145 181 c 0
 145 97 177 15 275 15 c 0
 462 15 574 317 574 472 c 0
526 426 m 1
 478 233 l 1
 461 233 l 1
 463 240 465 248 465 256 c 0
 465 276 441 293 422 293 c 2
 276 293 l 2
 249 293 218 258 212 233 c 1
 196 233 l 1
 244 426 l 1
 261 426 l 1
 260 422 259 417 259 413 c 0
 259 393 270 364 294 364 c 2
 440 364 l 2
 474 364 504 393 509 426 c 1
 526 426 l 1
EndSplineSet
Validated: 1
EndChar

StartChar: Iota
Encoding: 921 921 497
Width: 333
Flags: MW
LayerCount: 2
Fore
SplineSet
384 637 m 1
 328 627 318 620 302 563 c 2
 179 120 l 2
 173 99 168 78 168 56 c 0
 168 19 209 19 236 16 c 1
 236 0 l 1
 -8 0 l 1
 -8 16 l 1
 47 26 57 34 73 90 c 0
 196 532 l 1
 202 552 207 573 207 594 c 0
 207 633 167 634 137 637 c 1
 137 653 l 1
 384 653 l 1
 384 637 l 1
EndSplineSet
Validated: 1
EndChar

StartChar: Kappa
Encoding: 922 922 498
Width: 667
Flags: MW
LayerCount: 2
Fore
SplineSet
712 637 m 1
 685 633 659 617 637 601 c 2
 337 375 l 1
 511 72 l 2
 540 22 552 22 608 16 c 1
 608 0 l 1
 333 0 l 1
 333 16 l 1
 352 18 408 17 408 46 c 0
 408 98 263 324 255 338 c 1
 247 339 l 1
 237 302 173 102 173 62 c 0
 173 17 210 20 245 16 c 1
 245 0 l 1
 -3 0 l 1
 -3 16 l 1
 55 26 63 32 79 90 c 2
 202 532 l 1
 208 552 213 573 213 594 c 0
 213 635 166 635 136 637 c 1
 136 653 l 1
 409 653 l 1
 409 637 l 1
 357 632 323 618 308 563 c 2
 257 375 l 1
 263 374 l 1
 269 378 551 562 551 612 c 0
 551 638 508 635 490 637 c 1
 490 653 l 1
 712 653 l 1
 712 637 l 1
EndSplineSet
Validated: 1
EndChar

StartChar: Lambda
Encoding: 923 923 499
Width: 641
Flags: MW
LayerCount: 2
Fore
SplineSet
604 0 m 1
 358 0 l 1
 358 16 l 1
 394 19 436 20 436 66 c 0
 436 76 436 85 434 95 c 0
 365 521 l 1
 137 113 l 2
 125.863 93.0713 117 75 117 51 c 0
 117 17 150 18 176 16 c 1
 176 0 l 1
 -11 0 l 1
 -11 16 l 1
 52 31 88 117 118 168 c 2
 408 668 l 1
 434 668 l 1
 528 102 l 2
 538 42 539 21 604 16 c 1
 604 0 l 1
EndSplineSet
Validated: 1
EndChar

StartChar: Mu
Encoding: 924 924 500
Width: 833
Flags: MW
LayerCount: 2
Fore
SplineSet
873 637 m 1
 815 627 807 621 791 563 c 2
 668 120 l 1
 663 100 657 80 657 60 c 0
 657 15 700 19 734 16 c 1
 734 0 l 1
 461 0 l 1
 461 16 l 1
 518 21 546 34 562 91 c 0
 689 553 l 1
 686 553 l 1
 314 0 l 1
 297 0 l 1
 237 536 l 1
 233 536 l 1
 118 113 l 2
 114 98 109 79 109 63 c 0
 109 23 149 18 180 16 c 1
 180 0 l 1
 -18 0 l 1
 -18 16 l 1
 53 27 62 84 80 146 c 0
 186 518 l 2
 190 532 208 587 208 598 c 0
 208 632 159 637 134 637 c 1
 134 653 l 1
 315 653 l 1
 370 164 l 1
 373 164 l 1
 706 653 l 1
 873 653 l 1
 873 637 l 1
EndSplineSet
Validated: 1
EndChar

StartChar: Nu
Encoding: 925 925 501
Width: 657
Flags: MW
LayerCount: 2
Fore
SplineSet
727 637 m 1
 645 620 644 561 623 488 c 2
 479 -15 l 1
 461 -15 l 1
 233 529 l 1
 229 529 l 1
 117 113 l 1
 113 96 108 78 108 61 c 0
 108 22 148 18 178 16 c 1
 178 0 l 1
 -20 0 l 1
 -20 16 l 1
 58 27 64 97 83 164 c 2
 202 581 l 1
 184 621 159 634 116 637 c 1
 116 653 l 1
 277 653 l 1
 483 158 l 1
 486 158 l 1
 587 534 l 1
 591 550 598 567 598 584 c 0
 598 631 568 634 528 637 c 1
 528 653 l 1
 727 653 l 1
 727 637 l 1
EndSplineSet
Validated: 1
EndChar

StartChar: Xi
Encoding: 926 926 502
Width: 678
Flags: MW
LayerCount: 2
Fore
SplineSet
684 653 m 1
 640 478 l 1
 626 478 l 1
 629 491 632 503 632 516 c 0
 632 558 601 569 564 569 c 2
 251 569 l 2
 181 569 167 537 145 478 c 1
 130 478 l 1
 174 653 l 1
 684 653 l 1
531 434 m 1
 477 218 l 1
 463 218 l 1
 465 226 467 234 467 242 c 0
 467 270 448 284 421 284 c 2
 258 284 l 2
 219 284 189 255 182 218 c 1
 168 218 l 1
 222 434 l 1
 236 434 l 1
 236 432 l 2
 236 426 233 419 233 412 c 0
 233 385 255 372 280 372 c 2
 443 372 l 2
 474 372 517 400 517 434 c 1
 531 434 l 1
565 175 m 1
 521 0 l 1
 11 0 l 1
 55 175 l 1
 70 175 l 1
 67 163 65 151 65 139 c 0
 65 96 95 84 133 84 c 2
 456 84 l 2
 507 84 542 129 551 175 c 1
 565 175 l 1
EndSplineSet
Validated: 1
EndChar

StartChar: Omicron
Encoding: 927 927 503
Width: 682
Flags: MW
LayerCount: 2
Fore
SplineSet
689 423 m 0
 689 213 485 -18 269 -18 c 0
 128 -18 50 94 50 227 c 0
 50 422 254 666 457 666 c 0
 602 666 689 565 689 423 c 0
584 472 m 0
 584 559 551 633 453 633 c 0
 267 633 155 335 155 181 c 0
 155 97 187 15 285 15 c 0
 472 15 584 317 584 472 c 0
EndSplineSet
Validated: 1
EndChar

StartChar: Pi
Encoding: 928 928 504
Width: 749
Flags: MW
LayerCount: 2
Fore
SplineSet
777 637 m 1
 721 627 711 620 695 563 c 0
 677 496 559 99 559 58 c 0
 559 18 609 19 638 16 c 1
 638 0 l 1
 365 0 l 1
 365 16 l 1
 420 23 450 31 466 90 c 0
 585 518 l 1
 591 538 596 559 596 580 c 0
 596 623 560 623 526 623 c 2
 409 623 l 2
 357 623 322 601 308 549 c 0
 290 483 176 99 176 58 c 0
 176 21 221 20 248 16 c 1
 248 0 l 1
 2 0 l 1
 2 16 l 1
 57 26 67 34 83 90 c 0
 206 532 l 1
 212 552 217 573 217 594 c 0
 217 635 170 635 140 637 c 1
 140 653 l 1
 777 653 l 1
 777 637 l 1
EndSplineSet
Validated: 1
EndChar

StartChar: Rho
Encoding: 929 929 505
Width: 611
Flags: MW
LayerCount: 2
Fore
SplineSet
605 501 m 0
 605 363 467 305 348 305 c 0
 312 305 277 305 242 313 c 1
 226 256 177 115 177 59 c 0
 177 18 213 20 245 16 c 1
 245 0 l 1
 0 0 l 1
 0 16 l 1
 57 25 66 32 82 90 c 2
 200 515 l 2
 205 534 217 574 217 592 c 0
 217 633 177 634 146 637 c 1
 146 653 l 1
 399 653 l 2
 499 653 605 621 605 501 c 0
502 507 m 0
 502 601 448 623 362 623 c 0
 341 623 328 616 322 595 c 2
 251 347 l 1
 266 345 281 342 296 342 c 0
 414 342 502 368 502 507 c 0
EndSplineSet
Validated: 1
EndChar

StartChar: Sigma
Encoding: 931 931 506
Width: 657
Flags: MW
LayerCount: 2
Fore
SplineSet
688 653 m 1
 657 478 l 1
 640 478 l 1
 641 485 641 492 641 498 c 0
 641 579 573 623 498 623 c 2
 330 623 l 2
 320 623 293 618 293 604 c 0
 293 586 464 381 490 350 c 1
 149 86 l 1
 462 86 l 2
 512 86 555 128 563 177 c 1
 582 177 l 1
 538 0 l 1
 -26 0 l 1
 398 328 l 1
 139 653 l 1
 688 653 l 1
EndSplineSet
Validated: 1
EndChar

StartChar: Tau
Encoding: 932 932 507
Width: 596
Flags: MW
LayerCount: 2
Fore
SplineSet
643 653 m 1
 599 490 l 1
 582 492 l 1
 584 505 585 518 585 531 c 0
 585 610 532 619 474 619 c 0
 458 619 442 618 426 618 c 1
 287 120 l 2
 282 102 275 82 275 63 c 0
 275 11 325 19 365 16 c 1
 365 0 l 1
 75 0 l 1
 75 16 l 1
 130 21 165 30 181 90 c 0
 325 618 l 1
 319 618 l 0
 197 618 145 617 87 495 c 1
 69 499 l 1
 111 653 l 1
 643 653 l 1
EndSplineSet
Validated: 1
EndChar

StartChar: Upsilon
Encoding: 933 933 508
Width: 676
Flags: MW
LayerCount: 2
Fore
SplineSet
607 488 m 0
 585 488 571 508 571 529 c 0
 571 570 625 590 625 609 c 0
 625 628 605 631 590 631 c 0
 490 631 406 372 386 299 c 0
 370 239 326 121 326 56 c 0
 326 19 367 19 394 16 c 1
 394 0 l 1
 150 0 l 1
 150 16 l 1
 205 26 216 34 231 90 c 2
 286 291 l 2
 301 347 312 405 312 463 c 0
 312 519 292 631 217 631 c 0
 199 631 169 625 169 602 c 0
 169 587 190 575 190 550 c 0
 190 521 156 488 128 488 c 0
 94 488 82 517 82 547 c 0
 82 606 141 672 202 672 c 0
 328 672 365 526 366 425 c 1
 420 518 500 672 625 672 c 0
 667 672 696 635 696 595 c 0
 696 550 655 488 607 488 c 0
EndSplineSet
Validated: 1
EndChar

StartChar: Phi
Encoding: 934 934 509
Width: 722
Flags: MW
LayerCount: 2
Fore
SplineSet
355 113 m 1
 350 94 346 75 346 56 c 0
 346 19 387 19 414 16 c 1
 414 0 l 1
 170 0 l 1
 170 16 l 1
 239 28 240 47 257 112 c 1
 148 112 19 153 19 283 c 0
 19 457 190 560 349 560 c 0
 360 560 370 560 381 559 c 1
 383 570 385 582 385 594 c 0
 385 633 345 634 315 637 c 1
 315 653 l 1
 562 653 l 1
 562 637 l 1
 505 627 495 618 479 560 c 1
 583 560 726 524 726 395 c 0
 726 228 550 111 393 111 c 0
 380 111 367 111 355 113 c 1
619 398 m 0
 619 486 553 528 471 529 c 1
 363 141 l 1
 507 141 619 252 619 398 c 0
373 529 m 1
 218 529 122 422 122 269 c 0
 122 178 180 142 265 141 c 1
 373 529 l 1
EndSplineSet
Validated: 1
EndChar

StartChar: Chi
Encoding: 935 935 510
Width: 611
Flags: MW
LayerCount: 2
Fore
SplineSet
655 637 m 1
 601 619 567 585 530 542 c 2
 361 348 l 1
 463 90 l 2
 488 27 503 24 567 16 c 1
 567 0 l 1
 294 0 l 1
 294 16 l 1
 325 18 370 14 370 56 c 0
 370 106 310 224 292 269 c 1
 141 97 l 2
 130 84 120 68 120 51 c 0
 120 16 160 16 185 16 c 1
 185 0 l 1
 -29 0 l 1
 -29 16 l 1
 45 31 67 73 274 313 c 1
 168 576 l 2
 148 625 127 634 76 637 c 1
 76 653 l 1
 340 653 l 1
 340 637 l 1
 311 634 269 631 269 593 c 0
 269 561 333 417 343 393 c 1
 369 422 508 564 508 601 c 0
 508 633 471 635 447 637 c 1
 447 653 l 1
 655 653 l 1
 655 637 l 1
EndSplineSet
Validated: 1
EndChar

StartChar: Psi
Encoding: 936 936 511
Width: 863
Flags: MW
LayerCount: 2
Fore
SplineSet
944 649 m 1
 941 637 l 1
 892 630 862 645 821 487 c 0
 783 338 759 207 461 193 c 1
 449 150 430 101 430 56 c 0
 430 19 471 19 498 16 c 1
 498 0 l 1
 254 0 l 1
 254 16 l 1
 309 26 319 34 335 90 c 2
 364 193 l 1
 266 199 127 220 127 346 c 0
 127 426 171 499 171 578 c 0
 171 632 153 630 109 637 c 1
 112 649 l 1
 139 649 l 2
 199 649 255 648 255 570 c 0
 255 490 216 413 216 333 c 0
 216 232 295 231 374 229 c 1
 458 532 l 1
 464 552 469 573 469 594 c 0
 469 633 429 634 399 637 c 1
 399 653 l 1
 646 653 l 1
 646 637 l 1
 590 627 580 620 564 563 c 2
 471 229 l 1
 503 230 541 229 572 238 c 0
 767 293 679 593 841 641 c 0
 867 649 895 649 922 649 c 2
 944 649 l 1
EndSplineSet
Validated: 1
EndChar

StartChar: Omega
Encoding: 937 937 512
Width: 744
Flags: MW
LayerCount: 2
Fore
SplineSet
97 307 m 0
 97 332 101 360 109 389 c 0
 130 464 243 677 510 677 c 0
 661 677 758 597 758 476 c 0
 758 450 753 423 745 393 c 0
 708 258 604 160 469 124 c 1
 452 81 l 1
 586 81 l 2
 647 81 672 117 683 153 c 1
 707 153 l 1
 659 0 l 1
 387 0 l 1
 441 147 l 1
 604 195 645 420 645 488 c 0
 645 581 583 641 498 641 c 0
 375 641 206 505 206 275 c 0
 206 219 216 174 281 147 c 1
 250 0 l 1
 -22 0 l 1
 14 153 l 1
 38 153 l 1
 36 144 35 136 35 129 c 0
 35 97 53 81 98 81 c 2
 229 81 l 1
 240 124 l 1
 173 138 97 204 97 307 c 0
EndSplineSet
Validated: 1
EndChar

StartChar: Iotadieresis
Encoding: 938 938 513
Width: 333
Flags: MW
LayerCount: 2
Fore
SplineSet
434 761 m 0
 434 734 413 713 386 713 c 0
 359 713 338 734 338 761 c 0
 338 788 359 809 386 809 c 0
 413 809 434 788 434 761 c 0
282 761 m 0
 282 734 261 713 234 713 c 0
 207 713 186 734 186 761 c 0
 186 788 207 809 234 809 c 0
 261 809 282 788 282 761 c 0
384 637 m 1
 328 627 318 620 302 563 c 2
 179 120 l 2
 173 99 168 78 168 56 c 0
 168 19 209 19 236 16 c 1
 236 0 l 1
 -8 0 l 1
 -8 16 l 1
 47 26 57 34 73 90 c 0
 196 532 l 1
 202 552 207 573 207 594 c 0
 207 633 167 634 137 637 c 1
 137 653 l 1
 384 653 l 1
 384 637 l 1
EndSplineSet
Validated: 1
EndChar

StartChar: Upsilondieresis
Encoding: 939 939 514
Width: 696
Flags: MW
LayerCount: 2
Fore
SplineSet
630 759 m 0
 630 732 609 711 582 711 c 0
 555 711 534 732 534 759 c 0
 534 786 555 807 582 807 c 0
 609 807 630 786 630 759 c 0
440 759 m 0
 440 732 419 711 392 711 c 0
 365 711 344 732 344 759 c 0
 344 786 365 807 392 807 c 0
 419 807 440 786 440 759 c 0
657 488 m 0
 635 488 621 508 621 529 c 0
 621 570 675 590 675 609 c 0
 675 628 655 631 640 631 c 0
 540 631 456 372 436 299 c 0
 420 239 376 121 376 56 c 0
 376 19 417 19 444 16 c 1
 444 0 l 1
 200 0 l 1
 200 16 l 1
 255 26 266 34 281 90 c 2
 336 291 l 2
 351 347 362 405 362 463 c 0
 362 519 342 631 267 631 c 0
 249 631 219 625 219 602 c 0
 219 587 240 575 240 550 c 0
 240 521 206 488 178 488 c 0
 144 488 132 517 132 547 c 0
 132 606 191 672 252 672 c 0
 378 672 415 526 416 425 c 1
 470 518 550 672 675 672 c 0
 717 672 746 635 746 595 c 0
 746 550 705 488 657 488 c 0
EndSplineSet
Validated: 1
EndChar

StartChar: alpha
Encoding: 945 945 519
Width: 587
Flags: MW
LayerCount: 2
Fore
SplineSet
549 451 m 1
 445 204 418 211 398 151 c 0
 397 147 397 143 397 139 c 0
 397 117 411 63 439 63 c 0
 463 63 482 85 488 107 c 1
 507 107 l 1
 496 66 473 -10 421 -10 c 0
 376 -10 368 33 368 73 c 0
 368 89 369 106 370 118 c 1
 368 118 l 1
 325 49 242 -10 158 -10 c 0
 60 -10 9 61 9 153 c 0
 9 295 135 461 285 461 c 0
 369 461 394 392 394 323 c 0
 394 312 393 302 392 291 c 1
 394 291 l 1
 465 451 l 1
 549 451 l 1
368 314 m 0
 368 372 350 432 282 432 c 0
 166 432 96 224 96 129 c 0
 96 73 115 19 180 19 c 0
 299 19 368 216 368 314 c 0
EndSplineSet
Validated: 1
EndChar

StartChar: beta
Encoding: 946 946 520
Width: 534
Flags: MW
LayerCount: 2
Fore
SplineSet
514 242 m 0
 514 188 464 -8 273 -8 c 0
 220 -8 171 20 171 74 c 2
 171 81 l 1
 200 81 l 1
 199 78 199 76 199 73 c 0
 199 39 238 15 271 15 c 0
 363 15 424 154 424 249 c 0
 424 308 405 369 344 369 c 0
 320 369 299 353 281 353 c 0
 264 353 256 361 256 375 c 0
 256 409 287 415 295 415 c 0
 317 415 334 397 352 397 c 0
 412 397 458 499 458 559 c 0
 458 607 435 647 379 647 c 0
 279 647 246 541 230 467 c 2
 82 -201 l 1
 0 -201 l 1
 132 396 l 2
 161 526 237 675 396 675 c 0
 475 675 541 640 541 565 c 0
 541 463 443 409 367 384 c 1
 456 372 514 325 514 242 c 0
EndSplineSet
Validated: 1
EndChar

StartChar: delta
Encoding: 948 948 521
Width: 534
Flags: MW
LayerCount: 2
Fore
SplineSet
185 -10 m 0
 83 -10 13 48 13 147 c 0
 13 281 136 405 277 405 c 0
 297 405 316 402 335 397 c 1
 337 399 l 1
 287 438 188 476 188 548 c 0
 188 619 259 673 329 673 c 0
 400 673 452 622 458 556 c 1
 432 556 l 1
 424 608 384 650 327 650 c 0
 292 650 245 626 245 588 c 0
 245 521 478 465 478 282 c 0
 478 133 345 -10 185 -10 c 0
381 269 m 0
 381 331 354 377 283 377 c 0
 155 377 106 242 106 140 c 0
 106 78 127 18 203 18 c 0
 323 18 381 174 381 269 c 0
EndSplineSet
Validated: 1
EndChar

StartChar: epsilon
Encoding: 949 949 522
Width: 426
Flags: MW
LayerCount: 2
Fore
SplineSet
-10 92 m 0
 -10 189 99 236 142 243 c 1
 100 247 53 274 53 322 c 0
 53 417 175 461 254 461 c 0
 296 461 395 452 395 393 c 0
 395 367 377 341 349 341 c 0
 290 341 332 437 253 437 c 0
 188 437 143 372 143 311 c 0
 143 281 157 252 191 252 c 0
 228 252 251 276 277 276 c 0
 292 276 303 267 303 251 c 0
 303 228 282 210 259 210 c 0
 235 210 217 228 193 228 c 0
 128 228 85 163 85 103 c 0
 85 50 122 26 172 26 c 0
 243 26 288 63 326 119 c 1
 348 108 l 1
 298 26 226 -10 131 -10 c 0
 68 -10 -10 18 -10 92 c 0
EndSplineSet
Validated: 1
EndChar

StartChar: zeta
Encoding: 950 950 523
Width: 480
Flags: MW
LayerCount: 2
Fore
SplineSet
352 479 m 0
 324 479 296 479 267 484 c 1
 178 417 79 258 79 153 c 0
 79 80 143 69 210 69 c 0
 238 69 266 71 290 71 c 0
 342 71 401 66 401 7 c 0
 401 -108 260 -174 143 -174 c 0
 121 -174 79 -172 79 -146 c 0
 79 -121 105 -111 130 -111 c 0
 166 -111 200 -128 237 -128 c 0
 288 -128 350 -92 350 -43 c 0
 350 -14 307 -7 263 -7 c 0
 229 -7 195 -11 178 -11 c 0
 86 -11 20 10 20 102 c 0
 20 240 128 396 240 488 c 1
 192 494 115 524 115 575 c 0
 115 643 214 670 278 670 c 0
 291 670 305 669 318 667 c 1
 312 644 l 1
 302 646 291 647 281 647 c 0
 236 647 187 615 187 573 c 0
 187 537 230 512 266 507 c 1
 322 545 376 567 447 567 c 0
 466 567 499 562 499 541 c 0
 499 494 393 479 352 479 c 0
EndSplineSet
Validated: 1
EndChar

StartChar: eta
Encoding: 951 951 524
Width: 534
Flags: MW
LayerCount: 2
Fore
SplineSet
341 -224 m 1
 257 -224 l 1
 394 326 l 1
 398 341 401 357 401 373 c 0
 401 402 390 425 357 425 c 0
 209 425 147 88 125 0 c 1
 40 0 l 1
 130 359 l 2
 133 370 136 382 136 394 c 0
 136 409 129 420 112 420 c 0
 74 420 53 350 45 320 c 1
 21 320 l 1
 37 383 71 461 147 461 c 0
 192 461 211 436 211 393 c 0
 211 360 203 329 196 297 c 1
 199 297 l 1
 232 371 295 461 385 461 c 0
 446 461 482 436 482 372 c 0
 482 345 476 319 470 293 c 0
 341 -224 l 1
EndSplineSet
Validated: 1
EndChar

StartChar: theta
Encoding: 952 952 525
Width: 534
Flags: MW
LayerCount: 2
Fore
SplineSet
187 -10 m 0
 71 -10 35 74 35 176 c 0
 35 352 142 672 357 672 c 0
 473 672 507 574 507 475 c 0
 507 299 400 -10 187 -10 c 0
402 358 m 1
 416 415 430 474 430 534 c 0
 430 587 417 648 351 648 c 0
 231 648 177 450 154 358 c 1
 402 358 l 1
396 334 m 1
 148 334 l 1
 131 267 112 197 112 127 c 0
 112 73 126 14 192 14 c 0
 322 14 372 236 396 334 c 1
EndSplineSet
Validated: 1
EndChar

StartChar: iota
Encoding: 953 953 526
Width: 267
Flags: MW
LayerCount: 2
Fore
SplineSet
223 145 m 1
 203 61 183 -10 81 -10 c 0
 34 -10 0 7 0 58 c 0
 0 74 3 90 7 106 c 2
 93 451 l 1
 177 451 l 1
 165 403 81 85 81 58 c 0
 81 38 95 26 115 26 c 0
 176 26 188 100 199 145 c 1
 223 145 l 1
EndSplineSet
Validated: 1
EndChar

StartChar: kappa
Encoding: 954 954 527
Width: 527
Flags: MW
LayerCount: 2
Fore
SplineSet
497 379 m 0
 458 379 453 418 424 418 c 0
 385 418 286 330 253 303 c 1
 375 78 l 2
 398 36 410 17 462 17 c 1
 458 0 l 1
 232 0 l 1
 236 17 l 1
 249 17 285 18 285 37 c 0
 285 58 188 217 170 248 c 1
 108 0 l 1
 36 0 l 1
 120 337 l 2
 123 349 125 361 125 373 c 0
 125 414 93 420 59 420 c 1
 63 437 l 1
 119 448 175 461 228 481 c 1
 176 273 l 1
 244 327 424 479 506 479 c 0
 530 479 564 469 564 440 c 0
 564 405 530 379 497 379 c 0
EndSplineSet
Validated: 1
EndChar

StartChar: lambda
Encoding: 955 955 528
Width: 480
Flags: MW
LayerCount: 2
Fore
SplineSet
420 123 m 1
 407 71 390 -10 318 -10 c 0
 258 -10 256 55 256 98 c 2
 256 106 l 1
 255 334 l 1
 253 334 l 1
 35 -1 l 1
 -52 -1 l 1
 248 450 l 1
 248 455 l 2
 248 466 249 481 249 498 c 0
 249 545 242 603 193 603 c 0
 161 603 140 574 127 550 c 1
 108 550 l 1
 120 604 148 673 217 673 c 0
 278 673 280 590 280 539 c 2
 280 515 l 1
 290 173 l 2
 291 140 288 65 339 65 c 0
 369 65 393 99 400 123 c 1
 420 123 l 1
EndSplineSet
Validated: 1
EndChar

StartChar: uni03BC
Encoding: 956 956 529
Width: 534
Flags: MW
LayerCount: 2
Fore
SplineSet
470 132 m 1
 454 68 421 -10 343 -10 c 0
 298 -10 280 16 280 59 c 0
 280 91 288 123 295 155 c 1
 292 155 l 1
 259 83 195 -10 106 -10 c 0
 45 -10 26 35 24 89 c 1
 22 89 l 1
 14 56 11 22 11 -11 c 0
 11 -55 18 -97 18 -140 c 0
 18 -180 10 -224 -39 -224 c 0
 -56 -224 -66 -216 -66 -199 c 0
 -66 -189 -63 -179 -61 -170 c 2
 93 451 l 1
 177 451 l 1
 96 125 l 1
 92 110 90 95 90 79 c 0
 90 51 100 26 132 26 c 0
 281 26 343 362 365 451 c 1
 450 451 l 1
 361 92 l 2
 358 80 355 69 355 57 c 0
 355 41 362 31 378 31 c 0
 418 31 438 101 446 132 c 1
 470 132 l 1
EndSplineSet
Validated: 1
EndChar

StartChar: nu
Encoding: 957 957 530
Width: 480
Flags: MW
LayerCount: 2
Fore
SplineSet
190 0 m 1
 162 0 l 1
 121 376 l 1
 119 393 114 407 94 407 c 0
 63 407 50 355 44 331 c 1
 20 331 l 1
 37 399 60 461 142 461 c 0
 188 461 202 436 206 394 c 0
 236 111 l 1
 383 307 365 351 377 396 c 0
 386 431 405 461 445 461 c 0
 465 461 483 453 483 430 c 0
 483 381 235 68 190 0 c 1
EndSplineSet
Validated: 1
EndChar

StartChar: xi
Encoding: 958 958 531
Width: 480
Flags: MW
LayerCount: 2
Fore
SplineSet
361 523 m 0
 323 523 276 525 240 539 c 1
 203 513 151 464 151 415 c 0
 151 394 161 345 189 345 c 0
 240 345 299 361 360 361 c 0
 382 361 437 361 437 330 c 0
 437 279 354 276 319 276 c 0
 262 276 214 280 161 304 c 1
 102 277 46 223 46 154 c 0
 46 91 114 83 174 83 c 0
 197 83 219 84 235 84 c 0
 289 84 375 84 375 9 c 0
 375 -125 232 -184 118 -184 c 0
 98 -184 53 -179 53 -151 c 0
 53 -129 75 -117 95 -117 c 0
 131 -117 160 -144 197 -144 c 0
 250 -144 330 -105 330 -44 c 0
 330 -3 283 1 224 1 c 0
 208 1 192 0 175 0 c 0
 90 0 0 9 0 108 c 0
 0 197 66 281 142 321 c 1
 125 340 111 363 111 390 c 0
 111 452 166 511 215 542 c 1
 177 548 105 579 105 625 c 0
 105 684 185 711 233 711 c 0
 256 711 279 708 302 704 c 1
 293 684 l 1
 280 685 268 687 255 687 c 0
 216 687 164 668 164 621 c 0
 164 583 213 561 245 558 c 1
 294 587 352 608 410 608 c 0
 431 608 480 605 480 575 c 0
 480 525 395 523 361 523 c 0
EndSplineSet
Validated: 1
EndChar

StartChar: omicron
Encoding: 959 959 532
Width: 534
Flags: MW
LayerCount: 2
Fore
SplineSet
186 -10 m 0
 81 -10 6 54 6 161 c 0
 6 314 149 461 303 461 c 0
 408 461 485 412 485 300 c 0
 485 141 349 -10 186 -10 c 0
389 300 m 0
 389 367 367 432 289 432 c 0
 158 432 103 273 103 164 c 0
 103 94 127 19 211 19 c 0
 338 19 389 199 389 300 c 0
EndSplineSet
Validated: 1
EndChar

StartChar: pi
Encoding: 960 960 533
Width: 587
Flags: MW
LayerCount: 2
Fore
SplineSet
591 470 m 1
 567 381 535 378 462 378 c 2
 443 378 l 1
 428 317 367 109 367 58 c 0
 367 39 376 26 397 26 c 0
 444 26 472 109 481 146 c 1
 505 146 l 1
 486 72 451 -10 362 -10 c 0
 314 -10 285 14 285 63 c 0
 285 122 342 312 359 378 c 1
 225 378 l 1
 203 285 147 -10 28 -10 c 0
 -8 -10 -27 6 -27 42 c 0
 -27 69 -19 95 -13 121 c 1
 11 121 l 1
 9 114 8 108 8 101 c 0
 8 83 15 63 36 63 c 0
 123 63 180 309 196 378 c 1
 146 378 l 2
 113 378 85 360 71 330 c 1
 47 330 l 1
 89 431 128 451 235 451 c 0
 333 451 430 444 528 444 c 0
 546 444 565 452 572 470 c 1
 591 470 l 1
EndSplineSet
Validated: 1
EndChar

StartChar: rho
Encoding: 961 961 534
Width: 534
Flags: MW
LayerCount: 2
Fore
SplineSet
180 -10 m 0
 139 -10 97 3 67 33 c 1
 47 -52 33 -141 -5 -221 c 1
 -89 -221 l 1
 -78 -193 -64 -166 -56 -137 c 0
 -4 64 20 461 303 461 c 0
 403 461 470 404 470 302 c 0
 470 146 341 -10 180 -10 c 0
374 305 m 0
 374 364 358 432 286 432 c 0
 157 432 104 264 104 158 c 0
 104 94 125 19 202 19 c 0
 328 19 374 206 374 305 c 0
EndSplineSet
Validated: 1
EndChar

StartChar: sigma1
Encoding: 962 962 535
Width: 426
Flags: MW
LayerCount: 2
Fore
SplineSet
382 331 m 1
 360 345 390 372 322 372 c 0
 293 372 264 378 235 378 c 0
 124 378 46 279 46 173 c 0
 46 17 308 151 308 10 c 0
 308 -122 171 -187 56 -187 c 0
 35 -187 -16 -186 -16 -155 c 0
 -16 -131 4 -118 26 -118 c 0
 65 -118 96 -147 135 -147 c 0
 191 -147 262 -103 262 -41 c 0
 262 50 8 -72 8 125 c 0
 8 250 98 451 245 451 c 0
 288 451 331 444 374 444 c 0
 390 444 403 387 403 354 c 0
 403 341 401 331 396 330 c 1
 382 331 l 1
EndSplineSet
Validated: 1
EndChar

StartChar: sigma
Encoding: 963 963 536
Width: 534
Flags: MW
LayerCount: 2
Fore
SplineSet
566 479 m 1
 555 441 535 396 489 396 c 0
 462 396 435 397 409 401 c 1
 406 399 l 1
 442 366 461 319 461 271 c 0
 461 132 324 -10 184 -10 c 0
 81 -10 10 55 10 159 c 0
 10 318 149 461 308 461 c 0
 370 461 431 449 493 449 c 0
 517 449 544 453 553 479 c 1
 566 479 l 1
371 307 m 0
 371 371 351 432 276 432 c 0
 147 432 101 234 101 133 c 0
 101 72 121 19 191 19 c 0
 329 19 371 197 371 307 c 0
EndSplineSet
Validated: 1
EndChar

StartChar: tau
Encoding: 964 964 537
Width: 426
Flags: MW
LayerCount: 2
Fore
SplineSet
441 468 m 1
 417 389 374 371 313 371 c 0
 296 371 278 372 258 374 c 1
 191 103 l 1
 187 88 183 72 183 57 c 0
 183 36 194 26 215 26 c 0
 270 26 292 102 303 145 c 1
 327 145 l 1
 308 66 277 -10 182 -10 c 0
 138 -10 99 16 99 63 c 0
 99 111 159 317 174 376 c 1
 150 377 126 378 102 378 c 0
 66 378 48 365 33 333 c 1
 14 333 l 1
 36 408 69 451 153 451 c 0
 228 451 303 444 378 444 c 0
 395 444 414 451 422 468 c 1
 441 468 l 1
EndSplineSet
Validated: 1
EndChar

StartChar: upsilon
Encoding: 965 965 538
Width: 534
Flags: MW
LayerCount: 2
Fore
SplineSet
190 -10 m 0
 119 -10 71 26 71 100 c 0
 71 188 143 327 143 394 c 0
 143 410 138 425 119 425 c 0
 77 425 56 366 48 333 c 1
 24 333 l 1
 40 400 72 461 150 461 c 0
 201 461 220 424 220 378 c 0
 220 280 152 186 152 87 c 0
 152 45 175 26 217 26 c 0
 316 26 395 146 395 236 c 0
 395 283 378 327 378 373 c 0
 378 409 393 461 438 461 c 0
 471 461 478 430 478 403 c 0
 478 370 470 337 462 305 c 0
 428 170 356 -10 190 -10 c 0
EndSplineSet
Validated: 1
EndChar

StartChar: phi
Encoding: 966 966 539
Width: 640
Flags: MW
LayerCount: 2
Fore
SplineSet
297 -10 m 1
 243 -224 l 1
 159 -224 l 1
 213 -10 l 1
 102 -4 14 62 14 179 c 0
 14 294 104 461 234 461 c 0
 283 461 315 434 327 388 c 1
 306 374 l 1
 295 400 276 432 244 432 c 0
 143 432 99 215 99 137 c 0
 99 58 143 24 220 19 c 1
 254 161 305 461 497 461 c 0
 570 461 599 411 599 344 c 0
 599 175 473 -1 297 -10 c 1
569 338 m 0
 569 385 554 432 498 432 c 0
 418 432 387 356 371 290 c 0
 304 19 l 1
 461 27 569 190 569 338 c 0
EndSplineSet
Validated: 1
EndChar

StartChar: chi
Encoding: 967 967 540
Width: 480
Flags: MW
LayerCount: 2
Fore
SplineSet
477 451 m 1
 220 108 l 1
 232 -25 l 1
 235 -54 239 -131 280 -131 c 0
 319 -131 341 -79 352 -48 c 1
 369 -48 l 1
 360 -108 341 -209 263 -209 c 0
 201 -209 205 -102 202 -60 c 0
 192 71 l 1
 -10 -200 l 1
 -99 -200 l 1
 179 177 l 1
 163 294 l 1
 158 328 160 376 113 376 c 0
 68 376 50 335 39 298 c 1
 20 298 l 1
 23 354 51 461 122 461 c 0
 185 461 190 394 194 346 c 0
 206 206 l 1
 390 451 l 1
 477 451 l 1
EndSplineSet
Validated: 1
EndChar

StartChar: psi
Encoding: 968 968 541
Width: 693
Flags: MW
LayerCount: 2
Fore
SplineSet
654 406 m 0
 654 331 573 21 344 -10 c 1
 300 -224 l 1
 206 -224 l 1
 269 -10 l 1
 179 -7 97 33 97 134 c 0
 97 217 157 320 157 394 c 0
 157 410 150 420 133 420 c 0
 77 420 63 340 52 298 c 1
 23 298 l 1
 43 375 67 461 164 461 c 0
 215 461 234 422 234 376 c 0
 234 285 174 197 174 106 c 0
 174 43 218 17 276 14 c 1
 435 558 l 1
 460 558 l 1
 347 14 l 1
 468 30 559 155 559 273 c 0
 559 311 549 348 549 386 c 0
 549 419 566 461 605 461 c 0
 641 461 654 439 654 406 c 0
EndSplineSet
Validated: 1
EndChar

StartChar: omega
Encoding: 969 969 542
Width: 693
Flags: MW
LayerCount: 2
Fore
SplineSet
394 -10 m 0
 323 -10 298 35 298 93 c 0
 298 102 299 112 300 122 c 1
 297 122 l 1
 271 51 221 -10 139 -10 c 0
 46 -10 11 74 11 155 c 0
 11 301 122 457 277 461 c 1
 271 437 l 1
 164 426 136 325 114 237 c 0
 103 194 92 150 92 105 c 0
 92 61 105 19 157 19 c 0
 275 19 301 209 301 296 c 0
 301 337 316 385 365 385 c 0
 387 385 400 373 400 351 c 0
 400 299 325 197 325 100 c 0
 325 57 341 19 390 19 c 0
 502 19 560 260 560 349 c 0
 560 400 537 432 484 437 c 1
 490 461 l 1
 587 459 640 395 640 300 c 0
 640 174 533 -10 394 -10 c 0
EndSplineSet
Validated: 1
EndChar

StartChar: uni03D0
Encoding: 976 976 548
Width: 534
Flags: MW
LayerCount: 2
Fore
SplineSet
159 480 m 1
 123 429 89 350 74 289 c 1
 76 289 l 1
 126 366 208 425 302 425 c 0
 394 425 476 386 476 283 c 0
 476 131 339 -10 187 -10 c 0
 76 -10 18 52 18 162 c 0
 18 380 212 705 454 705 c 0
 487 705 528 693 528 653 c 0
 528 522 253 495 159 480 c 1
491 646 m 0
 491 671 466 676 446 676 c 0
 348 676 228 592 178 510 c 1
 248 522 491 551 491 646 c 0
382 291 m 0
 382 354 355 396 287 396 c 0
 166 396 96 244 96 139 c 0
 96 76 124 19 195 19 c 0
 327 19 382 181 382 291 c 0
EndSplineSet
Validated: 1
EndChar

StartChar: theta1
Encoding: 977 977 549
Width: 587
Flags: MW
LayerCount: 2
Fore
SplineSet
571 322 m 1
 547 322 l 1
 550 333 552 345 552 357 c 0
 552 389 536 407 503 407 c 1
 482 251 393 -10 202 -10 c 0
 124 -10 76 21 76 102 c 0
 76 194 131 282 131 366 c 0
 131 386 124 401 102 401 c 0
 65 401 49 344 42 315 c 1
 18 315 l 1
 33 378 53 442 130 442 c 0
 186 442 205 403 205 352 c 0
 205 257 151 167 151 73 c 0
 151 34 169 14 209 14 c 0
 307 14 350 145 369 223 c 2
 414 407 l 1
 331 407 211 417 211 527 c 0
 211 623 294 705 390 705 c 0
 495 705 515 603 515 519 c 0
 515 489 513 460 509 431 c 1
 551 431 578 416 578 371 c 0
 578 355 575 338 571 322 c 1
441 609 m 0
 441 646 429 676 387 676 c 0
 311 676 283 586 283 523 c 0
 283 445 355 431 418 431 c 1
 426 487 441 552 441 609 c 0
EndSplineSet
Validated: 1
EndChar

StartChar: Upsilon1
Encoding: 978 978 550
Width: 620
Flags: MW
LayerCount: 2
Fore
SplineSet
557 488 m 0
 535 488 521 508 521 529 c 0
 521 570 575 590 575 609 c 0
 575 628 555 631 540 631 c 0
 436 631 356 374 336 299 c 0
 320 239 276 120 276 56 c 0
 276 19 317 19 344 16 c 1
 344 0 l 1
 100 0 l 1
 100 16 l 1
 156 26 165 34 181 90 c 0
 212 198 254 351 254 462 c 0
 254 480 253 498 249 515 c 0
 235 572 186 604 135 625 c 0
 112 634 88 639 66 649 c 1
 65 649 61 651 61 653 c 0
 61 670 124 670 136 670 c 0
 259 670 340 586 348 465 c 1
 390 557 460 672 575 672 c 0
 617 672 646 635 646 595 c 0
 646 550 605 488 557 488 c 0
EndSplineSet
Validated: 1
EndChar

StartChar: phi1
Encoding: 981 981 553
Width: 640
Flags: MW
LayerCount: 2
Fore
SplineSet
272 -10 m 1
 221 -224 l 1
 151 -224 l 1
 208 -10 l 1
 104 -4 12 43 12 159 c 0
 12 335 174 453 337 461 c 1
 392 662 l 1
 422 662 l 1
 378 461 l 1
 482 455 582 397 582 282 c 0
 582 110 431 -1 272 -10 c 1
499 289 m 0
 499 370 454 425 373 432 c 1
 278 19 l 1
 404 30 499 170 499 289 c 0
328 432 m 1
 197 421 98 294 98 166 c 0
 98 91 136 26 216 19 c 1
 328 432 l 1
EndSplineSet
Validated: 1
EndChar

StartChar: omega1
Encoding: 982 982 554
Width: 684
Flags: MW
LayerCount: 2
Fore
SplineSet
705 521 m 1
 684 437 l 1
 575 437 l 1
 622 407 640 354 640 300 c 0
 640 175 533 -10 394 -10 c 0
 323.471 -10 298.069 35.1272 298.069 92.9303 c 0
 298.069 102.331 298.741 112.068 300 122 c 1
 297 122 l 1
 271 51 221 -10 139 -10 c 0
 46 -10 11 74 11 155 c 0
 11 265 74 383 173 434 c 1
 119 430 98 418 53 391 c 1
 37 391 l 1
 69 439 144 521 206 521 c 2
 705 521 l 1
561 354 m 0
 561 404 541 437 487 437 c 2
 267 437 l 2
 164 437 134 317 114 237 c 0
 103 194 92 150 92 105 c 0
 92 61 105 19 157 19 c 0
 263 19 296 179 300 261 c 0
 301 284 299 307 304 329 c 0
 311 360 330 385 365 385 c 0
 387 385 400 373 400 351 c 0
 400 299 325 198 325 100 c 0
 325 57 341 19 390 19 c 0
 503 19 561 263 561 354 c 0
EndSplineSet
Validated: 1
EndChar

StartChar: uni03D7
Encoding: 983 983 555
Width: 534
Flags: MW
LayerCount: 2
Fore
SplineSet
303 -21 m 1
 379 -21 l 1
 339 -127 327 -199 238 -199 c 0
 194 -199 170 -182 170 -149 c 0
 170 -138 172 -126 178 -111 c 1
 203 -111 l 1
 200 -119 198 -128 198 -136 c 0
 198 -150 205 -162 223 -162 c 0
 260 -162 274 -103 303 -21 c 1
348 262 m 1
 338 219 319 172 319 127 c 0
 319 97 331 75 364 75 c 0
 406 75 429 115 441 150 c 1
 460 150 l 1
 444 83 424 -10 338 -10 c 0
 291 -10 279 26 279 66 c 0
 279 125 299 183 315 239 c 1
 258 203 200 167 148 124 c 1
 128 82 91 -10 35 -10 c 0
 14 -10 5 5 5 24 c 0
 5 94 93 157 143 195 c 1
 154 237 173 287 173 330 c 0
 173 361 161 382 128 382 c 0
 85 382 59 342 50 305 c 1
 31 305 l 1
 46 366 71 461 150 461 c 0
 198 461 211 422 211 381 c 0
 211 326 193 268 177 216 c 1
 229 255 283 290 338 325 c 1
 354 366 397 461 449 461 c 0
 468 461 481 449 481 430 c 0
 481 368 395 294 348 262 c 1
EndSplineSet
Validated: 1
EndChar

StartChar: uni03DA
Encoding: 986 986 556
Width: 426
Flags: MW
LayerCount: 2
Fore
SplineSet
-35 180 m 0
 -35 279 103 644 336 644 c 0
 390 644 442 635 496 635 c 0
 524 635 549 641 570 664 c 1
 586 664 l 1
 542 590 501 541 416 541 c 0
 379 541 344 549 308 549 c 0
 137 549 25 363 25 257 c 0
 25 101 323 233 323 91 c 0
 323 -37 170 -186 -37 -186 c 0
 -62 -186 -121 -184 -121 -150 c 0
 -121 -137 -108 -96 -60 -96 c 0
 -11 -96 22 -134 71 -134 c 0
 149 -134 253 -62 253 13 c 0
 253 108 -35 -13 -35 180 c 0
EndSplineSet
Validated: 1
EndChar

StartChar: uni03DB
Encoding: 987 987 557
Width: 426
Flags: MW
LayerCount: 2
Fore
SplineSet
442 467 m 1
 416 410 390 372 322 372 c 0
 293 372 264 378 235 378 c 0
 124 378 46 279 46 173 c 0
 46 17 308 151 308 10 c 0
 308 -122 171 -187 56 -187 c 0
 35 -187 -16 -186 -16 -155 c 0
 -16 -131 4 -118 26 -118 c 0
 65 -118 96 -147 135 -147 c 0
 191 -147 262 -103 262 -41 c 0
 262 50 8 -72 8 125 c 0
 8 250 98 451 245 451 c 0
 288 451 331 444 374 444 c 0
 396 444 415 449 429 467 c 1
 442 467 l 1
EndSplineSet
Validated: 1
EndChar

StartChar: uni03DC
Encoding: 988 988 558
Width: 611
Flags: MW
LayerCount: 2
Fore
SplineSet
397 279 m 0
 397 323 376 325 320 325 c 0
 298 325 276 326 239 328 c 1
 177 105 l 2
 171 83 168 68 168 60 c 0
 168 30 186 19 244 16 c 1
 244 0 l 1
 -8 0 l 1
 -8 16 l 1
 49 24 57 30 74 90 c 0
 197 532 l 1
 204 556 208 581 208 596 c 0
 208 625 196 631 131 637 c 1
 131 653 l 1
 629 653 l 1
 597 500 l 1
 576 502 l 1
 578 523 579 526 579 545 c 0
 579 607 543 620 375 620 c 0
 334 620 320 614 314 594 c 0
 248 361 l 1
 416 363 360 360 423 365 c 1
 441 360 l 1
 406 215 l 1
 389 220 l 1
 395 251 397 263 397 279 c 0
EndSplineSet
Validated: 1
EndChar

StartChar: uni03DD
Encoding: 989 989 559
Width: 445
Flags: MW
LayerCount: 2
Fore
SplineSet
451 467 m 1
 425 409 400 372 331 372 c 0
 302 372 273 378 244 378 c 0
 84 378 55 203 17 85 c 1
 39 123 75 166 123 166 c 0
 159 166 195 159 231 159 c 0
 253 159 273 163 286 182 c 1
 299 182 l 1
 273 124 248 87 179 87 c 0
 152 87 126 93 99 93 c 0
 49 93 6 42 6 -7 c 0
 6 -52 14 -97 14 -142 c 0
 14 -181 5 -224 -43 -224 c 0
 -60 -224 -70 -216 -70 -199 c 0
 -70 -152 14 147 30 213 c 0
 56 317 131 451 254 451 c 0
 297 451 340 444 383 444 c 0
 405 444 425 448 438 467 c 1
 451 467 l 1
EndSplineSet
Validated: 1
EndChar

StartChar: afii10145
Encoding: 1039 1039 563
Width: 736
Flags: MW
LayerCount: 2
Fore
SplineSet
171 0 m 2
 -7 0 l 1
 -7 19 l 1
 72 26 86 37 106 109 c 2
 226 544 l 2
 232 567 236 583 236 596 c 0
 236 623 218 630 168 634 c 1
 169 653 l 1
 446 653 l 1
 446 634 l 1
 367 629 349 617 325 533 c 2
 190 44 l 1
 493 44 l 1
 631 544 l 2
 637 567 641 583 641 596 c 0
 641 623 623 630 573 634 c 1
 574 653 l 1
 851 653 l 1
 851 634 l 1
 772 629 754 617 730 533 c 2
 613 109 l 2
 607 88 604 72 604 60 c 0
 604 31 623 24 676 19 c 1
 676 0 l 1
 476 0 l 2
 382 0 338 -60 317 -129 c 1
 292 -129 l 1
 293 -117 294 -105 294 -95 c 0
 294 -29 268 0 171 0 c 2
EndSplineSet
Validated: 1
EndChar

StartChar: afii10018
Encoding: 1041 1041 565
Width: 670
Flags: MW
LayerCount: 2
Fore
SplineSet
714 653 m 1
 677 510 l 1
 652 510 l 1
 653 522 654 532 654 542 c 0
 654 604 627 615 529 615 c 2
 393 615 l 2
 366 615 360 609 352 581 c 0
 304 406 l 1
 399 406 l 2
 511 406 574 404 618 353 c 0
 634 335 639 310 639 285 c 0
 639 196 588 98 528 55 c 0
 481 21 404 0 326 0 c 2
 -8 0 l 1
 -8 19 l 1
 76 22 98 35 119 109 c 0
 240 544 l 1
 246 565 249 581 249 593 c 0
 249 624 228 630 169 634 c 1
 168 653 l 1
 714 653 l 1
293 366 m 1
 212 78 l 2
 210 72 209 66 209 62 c 0
 209 43 225 37 264 37 c 0
 467 37 517 160 517 253 c 0
 517 346 467 366 293 366 c 1
EndSplineSet
Validated: 1
EndChar

StartChar: afii10020
Encoding: 1043 1043 567
Width: 512
Flags: MW
LayerCount: 2
Fore
SplineSet
386 624 m 2
 359 624 352 618 344 590 c 2
 211 109 l 2
 205 89 202 73 202 61 c 0
 202 30 223 22 277 19 c 1
 272 0 l 1
 -8 0 l 1
 -3 19 l 1
 74 24 89 37 112 120 c 2
 232 553 l 1
 237 573 241 589 241 601 c 0
 241 630 221 639 170 643 c 1
 175 662 l 1
 672 662 l 1
 635 519 l 1
 610 519 l 1
 611 531 612 541 612 551 c 0
 612 613 585 624 487 624 c 2
 386 624 l 2
EndSplineSet
Validated: 1
EndChar

StartChar: afii10021
Encoding: 1044 1044 568
Width: 677
Flags: MW
LayerCount: 2
Fore
SplineSet
146 109 m 0
 195 179 233 264 256 347 c 2
 310 544 l 2
 316 565 319 581 319 593 c 0
 319 622 300 629 247 634 c 1
 248 653 l 1
 785 653 l 1
 784 634 l 1
 705 627 691 616 671 544 c 2
 556 128 l 2
 550 107 547 91 547 79 c 0
 547 50 566 43 619 38 c 1
 581 -129 l 1
 556 -129 l 1
 557 -117 558 -106 558 -95 c 0
 558 -29 532 0 434 0 c 2
 177 0 l 2
 64 0 27 -39 -15 -129 c 1
 -40 -129 l 1
 14 38 l 1
 100 39 109 55 146 109 c 0
181 44 m 2
 343 44 l 2
 422 49 436 61 459 145 c 0
 587 609 l 1
 371 609 l 1
 299 347 l 2
 279 274 234 164 176 86 c 0
 166 73 163 63 163 57 c 0
 163 45 175 44 181 44 c 2
EndSplineSet
Validated: 1
EndChar

StartChar: afii10022
Encoding: 1045 1045 569
Width: 611
Flags: MW
LayerCount: 2
Fore
SplineSet
249 33 m 0
 438 33 477 78 545 170 c 1
 561 162 l 1
 499 0 l 1
 -8 0 l 1
 -8 16 l 1
 48 26 57 33 73 90 c 0
 196 532 l 2
 201 550 207 585 207 596 c 0
 207 623 192 631 130 637 c 1
 130 653 l 1
 627 653 l 1
 596 500 l 1
 575 502 l 1
 576 519 577 534 577 547 c 0
 577 607 542 620 385 620 c 0
 329 620 318 616 312 594 c 2
 246 361 l 1
 281 362 313 363 325 363 c 0
 416 367 425 373 463 458 c 1
 481 454 l 1
 413 222 l 1
 393 227 l 1
 398 249 400 262 400 279 c 0
 400 312 387 325 323 325 c 2
 315 325 l 2
 303 325 272 326 237 328 c 1
 182 119 169 113 169 67 c 0
 169 43 193 33 249 33 c 0
EndSplineSet
Validated: 1
EndChar

StartChar: afii10024
Encoding: 1046 1046 570
Width: 1017
Flags: MW
LayerCount: 2
Fore
SplineSet
366 530 m 2
 366 517 l 2
 366 430 404 364 477 364 c 2
 509 364 l 1
 559 544 l 2
 565 565 568 580 568 592 c 0
 568 622 548 630 494 634 c 1
 494 653 l 1
 779 653 l 1
 780 634 l 1
 697 628 684 617 663 544 c 2
 611 364 l 1
 643 364 l 2
 717 364 788 432 835 520 c 0
 907 652 940 668 992 668 c 0
 1031 668 1063 662 1063 604 c 0
 1063 569 1025 556 1005 556 c 0
 941 556 970 590 942 590 c 0
 926 590 913 572 882 510 c 0
 837 420 769 355 733 347 c 1
 769 341 787 317 802 272 c 0
 849 127 l 1
 887 13 906 20 958 19 c 1
 957 0 l 1
 793 0 l 1
 718 222 l 1
 694 288 687 326 633 326 c 2
 601 326 l 1
 540 109 l 1
 534 86 530 69 530 56 c 0
 530 29 548 22 601 19 c 1
 600 0 l 1
 318 0 l 1
 319 19 l 1
 399 24 419 37 442 120 c 2
 499 326 l 1
 467 326 l 2
 413 326 394 288 334 222 c 2
 135 0 l 1
 -29 0 l 1
 -28 19 l 1
 24 20 49 13 149 127 c 2
 278 272 l 2
 318 316 338 341 377 347 c 1
 349 354 322 410 322 490 c 0
 322 507 324 515 324 535 c 0
 324 577 317 590 303 590 c 0
 275 590 285 556 221 556 c 0
 201 556 183 580 183 604 c 0
 183 644 212 668 261 668 c 0
 313 668 366 653 366 530 c 2
EndSplineSet
Validated: 1
EndChar

StartChar: afii10025
Encoding: 1047 1047 571
Width: 489
Flags: MW
LayerCount: 2
Fore
SplineSet
449 252 m 0
 449 92 308 -14 126 -14 c 0
 -8 -14 -35 55 -35 129 c 0
 -35 146 -33 164 -31 181 c 1
 5 189 l 1
 5 176 l 2
 5 84 46 40 138 40 c 0
 206 40 325 92 325 230 c 2
 325 232 l 2
 325 300 279 339 205 339 c 2
 147 339 l 1
 157 375 l 1
 212 375 l 2
 276 375 399 408 399 543 c 0
 399 545 l 0
 399 605 357 643 301 643 c 0
 202 643 145 592 89 462 c 1
 66 462 l 1
 128 662 l 1
 145 662 l 1
 148 652 156 648 164 648 c 0
 201 648 222 675 315 675 c 0
 415 675 505 638 505 546 c 0
 505 442 429 369 360 356 c 1
 401 346 449 322 449 252 c 0
EndSplineSet
Validated: 1
EndChar

StartChar: afii10026
Encoding: 1048 1048 572
Width: 735
Flags: MW
LayerCount: 2
Fore
SplineSet
241 210 m 1
 628 514 l 1
 636 544 l 2
 642 565 645 581 645 593 c 0
 645 622 626 629 573 634 c 1
 574 653 l 1
 852 653 l 1
 851 634 l 1
 772 627 758 616 738 544 c 2
 618 109 l 1
 612 86 608 70 608 57 c 0
 608 30 626 23 676 19 c 1
 675 0 l 1
 397 0 l 1
 398 19 l 1
 477 24 496 36 519 120 c 0
 610 450 l 1
 223 146 l 1
 213 109 l 1
 207 86 203 70 203 57 c 0
 203 30 221 23 271 19 c 1
 270 0 l 1
 -8 0 l 1
 -7 19 l 1
 72 24 91 36 114 120 c 0
 231 544 l 2
 237 565 240 581 240 593 c 0
 240 622 221 629 168 634 c 1
 169 653 l 1
 447 653 l 1
 446 634 l 1
 367 627 353 616 333 544 c 2
 241 210 l 1
EndSplineSet
Validated: 1
EndChar

StartChar: afii10028
Encoding: 1050 1050 574
Width: 661
Flags: MW
LayerCount: 2
Fore
SplineSet
737 604 m 0
 737 569 699 556 679 556 c 0
 615 556 644 590 616 590 c 0
 600 590 587 572 556 510 c 0
 511 420 443 355 407 347 c 1
 443 341 461 317 476 272 c 0
 523 127 l 1
 561 13 580 20 632 19 c 1
 631 0 l 1
 467 0 l 1
 392 222 l 1
 368 288 361 326 307 326 c 2
 275 326 l 1
 214 109 l 1
 208 86 204 69 204 56 c 0
 204 29 222 22 275 19 c 1
 274 0 l 1
 -8 0 l 1
 -7 19 l 1
 73 24 93 37 116 120 c 0
 235 544 l 2
 241 565 244 580 244 592 c 0
 244 622 224 630 170 634 c 1
 169 653 l 1
 453 653 l 1
 454 634 l 1
 371 628 358 617 337 544 c 2
 285 364 l 1
 317 364 l 2
 391 364 462 432 509 520 c 0
 581 652 614 668 666 668 c 0
 705 668 737 662 737 604 c 0
EndSplineSet
Validated: 1
EndChar

StartChar: afii10029
Encoding: 1051 1051 575
Width: 676
Flags: MW
LayerCount: 2
Fore
SplineSet
21 102 m 0
 68 102 47 67 88 67 c 0
 118 67 131 77 154 109 c 0
 204 178 241 264 264 347 c 2
 318 544 l 2
 324 565 327 581 327 593 c 0
 327 622 308 629 255 634 c 1
 256 653 l 1
 793 653 l 1
 792 634 l 1
 713 627 699 616 679 544 c 2
 559 109 l 1
 553 86 549 70 549 57 c 0
 549 30 567 23 617 19 c 1
 616 0 l 1
 338 0 l 1
 339 19 l 1
 418 24 437 36 460 120 c 0
 595 609 l 1
 379 609 l 1
 307 347 l 1
 272 222 167 -12 38 -13 c 0
 1 -13 -50 -2 -50 30 c 0
 -50 46 -32 102 21 102 c 0
EndSplineSet
Validated: 1
EndChar

StartChar: afii10033
Encoding: 1055 1055 579
Width: 734
Flags: MW
LayerCount: 2
Fore
SplineSet
850 653 m 1
 850 634 l 1
 771 627 757 616 737 544 c 2
 617 109 l 1
 611 86 607 70 607 57 c 0
 607 30 625 23 675 19 c 1
 674 0 l 1
 397 0 l 1
 397 19 l 1
 476 24 495 36 518 120 c 0
 653 609 l 1
 350 609 l 1
 212 109 l 1
 206 86 202 70 202 57 c 0
 202 30 220 23 270 19 c 1
 269 0 l 1
 -8 0 l 1
 -8 19 l 1
 71 24 90 36 113 120 c 0
 230 544 l 2
 236 565 239 581 239 593 c 0
 239 622 220 629 167 634 c 1
 167 653 l 1
 850 653 l 1
EndSplineSet
Validated: 1
EndChar

StartChar: afii10034
Encoding: 1056 1056 580
Width: 578
Flags: MW
LayerCount: 2
Fore
SplineSet
597 504 m 0
 597 422 543 305 326 305 c 0
 285 305 259 307 234 313 c 1
 181 120 l 2
 171 84 169 74 169 62 c 0
 169 28 174 25 237 16 c 1
 237 0 l 1
 -8 0 l 1
 -8 16 l 1
 49 24 57 30 74 90 c 0
 192 515 l 1
 205 560 209 581 209 595 c 0
 209 621 195 630 138 637 c 1
 138 653 l 1
 386 653 l 2
 522 653 597 600 597 504 c 0
494 504 m 0
 494 568 472 623 360 623 c 0
 332 623 320 616 314 595 c 2
 243 347 l 1
 270 343 278 342 295 342 c 0
 409 342 494 372 494 504 c 0
EndSplineSet
Validated: 1
EndChar

StartChar: afii10037
Encoding: 1059 1059 583
Width: 600
Flags: MW
LayerCount: 2
Fore
SplineSet
95 77 m 0
 95 68 93 65 93 55 c 0
 93 45 97 36 111 36 c 0
 140 36 166 70 218 133 c 1
 167 479 l 1
 155 627 126 631 62 634 c 1
 62 653 l 1
 348 653 l 1
 348 634 l 1
 320 633 l 2
 283 632 257 623 257 561 c 0
 257 549 259 533 262 511 c 0
 302 244 l 1
 534 533 l 2
 567 575 583 594 583 612 c 0
 583 627 566 632 520 634 c 1
 520 653 l 1
 765 653 l 1
 765 634 l 1
 700 630 672 628 602 540 c 0
 283 140 l 2
 205 41 152 -12 56 -12 c 0
 10 -12 -23 7 -23 37 c 0
 -23 52 -8 111 45 111 c 0
 84 110 95 95 95 77 c 0
EndSplineSet
Validated: 1
EndChar

StartChar: afii10038
Encoding: 1060 1060 584
Width: 790
Flags: MW
LayerCount: 2
Fore
SplineSet
783 408 m 0
 783 223 630 90 400 90 c 1
 396 77 392 65 392 55 c 0
 392 33 409 20 473 19 c 1
 473 0 l 1
 176 0 l 1
 176 19 l 1
 274 20 286 48 298 90 c 1
 185 90 48 121 48 258 c 0
 48 279 51 304 59 331 c 0
 116 536 303 574 432 574 c 1
 435 587 439 598 439 606 c 0
 439 625 423 634 354 634 c 1
 354 653 l 1
 651 653 l 1
 651 634 l 1
 554 634 546 616 534 574 c 1
 645 574 783 546 783 408 c 0
420 532 m 1
 185 532 141 322 141 264 c 0
 141 158 235 132 309 132 c 1
 420 532 l 1
411 132 m 1
 586 132 690 266 690 400 c 0
 690 508 594 532 522 532 c 1
 411 132 l 1
EndSplineSet
Validated: 1
EndChar

StartChar: afii10040
Encoding: 1062 1062 586
Width: 743
Flags: MW
LayerCount: 2
Fore
SplineSet
501 0 m 2
 -8 0 l 1
 -8 19 l 1
 71 26 90 37 110 109 c 2
 231 544 l 2
 237 564 240 580 240 592 c 0
 240 622 220 630 168 634 c 1
 168 653 l 1
 446 653 l 1
 446 634 l 1
 366 629 353 617 330 533 c 0
 194 44 l 1
 497 44 l 1
 636 544 l 1
 641 564 645 580 645 592 c 0
 645 622 625 630 573 634 c 1
 573 653 l 1
 851 653 l 1
 851 634 l 1
 771 629 758 617 735 533 c 0
 622 128 l 2
 616 107 613 91 613 79 c 0
 613 50 632 43 685 38 c 1
 647 -129 l 1
 622 -129 l 1
 623 -117 624 -105 624 -95 c 0
 624 -29 598 0 501 0 c 2
EndSplineSet
Validated: 1
EndChar

StartChar: afii10041
Encoding: 1063 1063 587
Width: 700
Flags: MW
LayerCount: 2
Fore
SplineSet
241 337 m 1
 240 335 240 333 240 331 c 0
 240 297 332 279 370 279 c 0
 425 279 490 304 544 340 c 1
 601 544 l 2
 607 565 610 581 610 593 c 0
 610 622 591 629 538 634 c 1
 538 653 l 1
 816 653 l 1
 816 634 l 1
 737 627 723 616 703 544 c 2
 582 109 l 2
 576 87 572 70 572 58 c 0
 572 31 590 23 640 19 c 1
 640 0 l 1
 362 0 l 1
 362 19 l 1
 442 24 460 36 483 120 c 2
 532 296 l 1
 483 262 420 235 360 235 c 0
 310 235 137 242 137 322 c 0
 137 327 137 332 139 338 c 0
 199 555 l 2
 205 575 208 590 208 600 c 0
 208 628 187 629 133 634 c 1
 133 653 l 1
 411 653 l 1
 411 634 l 1
 332 627 321 627 301 555 c 2
 241 337 l 1
EndSplineSet
Validated: 1
EndChar

StartChar: afii10042
Encoding: 1064 1064 588
Width: 992
Flags: MW
LayerCount: 2
Fore
SplineSet
423 44 m 1
 562 544 l 1
 567 564 571 580 571 592 c 0
 571 622 551 630 499 634 c 1
 499 653 l 1
 777 653 l 1
 777 634 l 1
 697 629 686 625 663 541 c 2
 526 44 l 1
 754 44 l 1
 893 544 l 1
 898 564 902 580 902 592 c 0
 902 622 882 630 830 634 c 1
 830 653 l 1
 1108 653 l 1
 1108 634 l 1
 1028 629 1015 617 992 533 c 0
 874 109 l 2
 868 86 863 69 863 56 c 0
 863 30 881 24 932 19 c 1
 932 0 l 1
 -8 0 l 1
 -8 19 l 1
 71 26 90 37 110 109 c 2
 231 544 l 1
 236 564 240 580 240 592 c 0
 240 622 220 630 168 634 c 1
 168 653 l 1
 446 653 l 1
 446 634 l 1
 366 629 353 617 330 533 c 0
 194 44 l 1
 423 44 l 1
EndSplineSet
Validated: 1
EndChar

StartChar: afii10043
Encoding: 1065 1065 589
Width: 1001
Flags: MW
LayerCount: 2
Fore
SplineSet
759 0 m 2
 -7 0 l 1
 -8 19 l 1
 71 26 91 37 111 109 c 2
 232 544 l 2
 238 564 241 579 241 591 c 0
 241 622 220 630 166 634 c 1
 168 653 l 1
 446 653 l 1
 447 634 l 1
 368 629 354 617 331 533 c 0
 195 44 l 1
 424 44 l 1
 563 544 l 2
 569 565 572 581 572 593 c 0
 572 622 552 630 500 634 c 1
 500 653 l 1
 777 653 l 1
 778 634 l 1
 699 629 687 625 664 541 c 2
 527 44 l 1
 755 44 l 1
 894 544 l 2
 900 565 903 581 903 593 c 0
 903 622 883 630 831 634 c 1
 830 653 l 1
 1109 653 l 1
 1109 634 l 1
 1030 629 1016 617 993 533 c 2
 881 128 l 2
 875 107 872 91 872 79 c 0
 872 50 891 43 944 38 c 1
 905 -129 l 1
 880 -129 l 1
 881 -117 882 -105 882 -95 c 0
 882 -29 856 0 759 0 c 2
EndSplineSet
Validated: 1
EndChar

StartChar: afii10044
Encoding: 1066 1066 590
Width: 696
Flags: MW
LayerCount: 2
Fore
SplineSet
661 230 m 0
 661 92 525 0 342 0 c 2
 78 0 l 1
 78 19 l 1
 155 27 172 37 192 109 c 2
 331 611 l 1
 277 611 l 2
 165 611 137 592 83 483 c 1
 59 483 l 1
 112 653 l 1
 534 653 l 1
 534 634 l 1
 454 631 435 617 415 544 c 0
 367 371 l 1
 394 373 411 374 437 374 c 0
 572 374 661 338 661 230 c 0
306 37 m 0
 506 37 553 156 553 237 c 0
 553 301 505 334 412 334 c 0
 392 334 378 333 354 331 c 1
 282 71 l 1
 280 63 279 57 279 53 c 0
 279 41 287 37 306 37 c 0
EndSplineSet
Validated: 1
EndChar

StartChar: afii10045
Encoding: 1067 1067 591
Width: 890
Flags: MW
LayerCount: 2
Fore
SplineSet
660 109 m 0
 781 544 l 1
 787 565 791 581 791 594 c 0
 791 624 769 630 709 634 c 1
 709 653 l 1
 1006 653 l 1
 1006 634 l 1
 921 630 903 617 883 544 c 2
 762 109 l 2
 756 87 752 71 752 58 c 0
 752 29 772 21 829 19 c 1
 830 0 l 1
 533 0 l 1
 532 19 l 1
 617 22 639 34 660 109 c 0
575 230 m 0
 575 92 439 0 256 0 c 2
 -8 0 l 1
 -8 19 l 1
 69 27 86 37 106 109 c 2
 224 533 l 1
 232 561 236 580 236 595 c 0
 236 623 218 629 168 634 c 1
 167 653 l 1
 448 653 l 1
 448 634 l 1
 368 631 349 617 329 544 c 2
 281 371 l 1
 308 373 325 374 351 374 c 0
 486 374 575 338 575 230 c 0
222 37 m 0
 422 37 469 156 469 237 c 0
 469 301 421 334 328 334 c 0
 308 334 294 333 270 331 c 1
 198 71 l 1
 196 63 195 57 195 53 c 0
 195 41 203 37 222 37 c 0
EndSplineSet
Validated: 1
EndChar

StartChar: afii10046
Encoding: 1068 1068 592
Width: 612
Flags: MW
LayerCount: 2
Fore
SplineSet
575 230 m 0
 575 92 439 0 256 0 c 2
 -8 0 l 1
 -8 19 l 1
 69 27 86 37 106 109 c 2
 225 533 l 1
 233 561 237 580 237 595 c 0
 237 623 219 629 169 634 c 1
 169 653 l 1
 449 653 l 1
 449 634 l 1
 369 631 351 617 330 544 c 0
 281 371 l 1
 308 373 325 374 351 374 c 0
 486 374 575 338 575 230 c 0
222 37 m 0
 422 37 469 156 469 237 c 0
 469 301 421 334 328 334 c 0
 308 334 294 333 270 331 c 1
 198 71 l 1
 196 63 195 57 195 53 c 0
 195 41 203 37 222 37 c 0
EndSplineSet
Validated: 1
EndChar

StartChar: afii10047
Encoding: 1069 1069 593
Width: 628
Flags: MW
LayerCount: 2
Fore
SplineSet
394 676 m 0
 544 676 648 581 648 436 c 0
 648 315 585 174 485 89 c 0
 407 24 305 -14 206 -14 c 0
 93 -14 6 32 -32 113 c 1
 -9 131 l 1
 45 60 103 30 186 30 c 0
 309 30 445 103 513 315 c 1
 209 315 l 1
 221 359 l 1
 524 359 l 1
 532 393 536 425 536 454 c 0
 536 567 475 636 364 636 c 0
 204 636 124 498 97 450 c 1
 74 450 l 1
 146 676 l 1
 167 676 l 1
 167 655 180 643 200 643 c 0
 234 643 285 676 394 676 c 0
EndSplineSet
Validated: 1
EndChar

StartChar: afii10048
Encoding: 1070 1070 594
Width: 1061
Flags: MW
LayerCount: 2
Fore
SplineSet
634 -14 m 0
 491 -14 394 77 394 218 c 0
 394 249 399 282 407 315 c 1
 270 315 l 1
 212 109 l 2
 206 87 202 70 202 58 c 0
 202 31 220 23 270 19 c 1
 270 0 l 1
 -8 0 l 1
 -8 19 l 1
 72 24 90 36 113 120 c 0
 231 544 l 1
 237 565 241 581 241 594 c 0
 241 622 221 629 168 634 c 1
 168 653 l 1
 446 653 l 1
 446 634 l 1
 367 627 353 616 333 544 c 0
 282 359 l 1
 418 359 l 1
 481 545 650 676 832 676 c 0
 934 676 1079 627 1079 443 c 0
 1079 408 1073 368 1062 327 c 0
 1006 126 831 -14 634 -14 c 0
970 469 m 0
 970 606 888 640 822 640 c 0
 630 640 503 381 503 195 c 0
 503 48 589 22 648 22 c 0
 853 22 970 296 970 469 c 0
EndSplineSet
Validated: 1
EndChar

StartChar: afii10049
Encoding: 1071 1071 595
Width: 675
Flags: MW
LayerCount: 2
Fore
SplineSet
211 432 m 0
 211 565 337 653 520 653 c 2
 791 653 l 1
 791 634 l 1
 713 626 701 615 681 544 c 2
 562 120 l 2
 554 91 549 71 549 56 c 0
 549 29 566 23 614 19 c 1
 614 0 l 1
 337 0 l 1
 337 19 l 1
 416 24 437 37 457 109 c 2
 510 297 l 1
 455 299 l 1
 133 0 l 1
 -28 0 l 1
 -28 19 l 1
 11 22 39 32 78 66 c 2
 352 310 l 1
 314 318 211 334 211 432 c 0
548 616 m 0
 366 616 321 511 321 436 c 0
 321 347 414 336 520 334 c 1
 589 580 l 1
 590 586 591 591 591 595 c 0
 591 611 580 616 548 616 c 0
EndSplineSet
Validated: 1
EndChar

StartChar: afii10066
Encoding: 1073 1073 597
Width: 507
Flags: MW
LayerCount: 2
Fore
SplineSet
515 302 m 0
 515 173 389 -10 215 -10 c 0
 120 -10 57 40 57 154 c 0
 57 254 124 517 286 640 c 0
 328 672 395 672 416 672 c 2
 513 672 l 2
 555 672 577 672 594 689 c 1
 617 689 l 1
 581 640 554 598 448 598 c 2
 372 598 l 2
 209 595 172 443 124 330 c 1
 192 428 263 460 347 460 c 0
 452 460 515 397 515 302 c 0
235 18 m 0
 381 18 421 240 421 304 c 0
 421 382 387 432 327 432 c 0
 256 432 191 370 165 275 c 0
 153 233 147 192 147 154 c 0
 147 45 186 18 235 18 c 0
EndSplineSet
EndChar

StartChar: afii10067
Encoding: 1074 1074 598
Width: 405
Flags: MW
LayerCount: 2
Fore
SplineSet
292 231 m 1
 336 227 391 188 391 132 c 0
 391 41 282 -11 168 -11 c 0
 48 -11 31 29 31 110 c 0
 31 274 202 450 313 450 c 0
 372 450 397 406 397 364 c 0
 397 309 364 250 292 231 c 1
221 208 m 0
 184 208 130 199 130 199 c 1
 127 184 113 142 113 103 c 0
 113 64 127 28 179 28 c 0
 251 28 320 92 320 138 c 0
 320 186 281 208 221 208 c 0
152 253 m 2
 141 227 l 1
 225 239 260 242 297 277 c 0
 328 307 346 350 346 381 c 0
 346 404 329 427 308 427 c 0
 257 427 189 341 152 253 c 2
EndSplineSet
Validated: 1
EndChar

StartChar: afii10068
Encoding: 1075 1075 599
Width: 354
Flags: MW
LayerCount: 2
Fore
SplineSet
340 379 m 0
 340 254 104 172 104 66 c 0
 104 41 121 25 152 25 c 0
 201 25 240 47 295 106 c 1
 311 96 l 1
 251 20 196 -11 122 -11 c 0
 59 -11 24 19 24 66 c 0
 24 194 245 286 258 351 c 0
 260 361 261 369 261 376 c 0
 261 395 252 405 227 405 c 0
 178 405 139 383 84 324 c 1
 68 334 l 1
 128 410 183 441 257 441 c 0
 311 441 340 418 340 379 c 0
EndSplineSet
EndChar

StartChar: afii10069
Encoding: 1076 1076 600
Width: 480
Flags: MW
LayerCount: 2
Fore
SplineSet
531 509 m 0
 531 294 388 -11 174 -11 c 0
 83 -11 27 43 27 129 c 0
 27 286 175 441 325 441 c 0
 379 441 450 423 450 349 c 1
 450 349 477 455 477 516 c 0
 477 579 439 610 386 610 c 0
 320 610 283 596 233 548 c 1
 211 578 l 1
 246 615 322 675 439 675 c 0
 508 675 531 607 531 509 c 0
189 10 m 0
 301 10 384 208 384 326 c 0
 384 383 356 420 313 420 c 0
 207 420 111 231 111 101 c 0
 111 46 142 10 189 10 c 0
EndSplineSet
EndChar

StartChar: afii10072
Encoding: 1078 1078 602
Width: 1018
Flags: MW
LayerCount: 2
Fore
SplineSet
123 10 m 0
 250 10 322 179 322 291 c 0
 322 362 288 405 231 405 c 0
 182 405 143 383 88 324 c 1
 72 334 l 1
 132 410 187 441 261 441 c 0
 354 441 408 386 408 291 c 0
 408 273 405 255 401 238 c 1
 495 238 l 1
 546 432 l 1
 620 432 l 1
 570 238 l 1
 664 238 l 1
 708 350 818 441 934 441 c 0
 994 441 1039 406 1039 360 c 0
 1039 334 1018 314 991 314 c 0
 967 314 952 328 952 352 c 0
 952 370 967 389 967 400 c 0
 967 412 952 420 929 420 c 0
 802 420 730 251 730 139 c 0
 730 68 764 25 821 25 c 0
 870 25 909 47 964 106 c 1
 980 96 l 1
 920 20 865 -11 791 -11 c 0
 698 -11 644 44 644 139 c 0
 644 159 647 179 651 198 c 1
 560 198 l 1
 505 0 l 1
 430 0 l 1
 484 198 l 1
 391 198 l 1
 350 82 237 -11 118 -11 c 0
 58 -11 13 24 13 70 c 0
 13 96 34 116 61 116 c 0
 85 116 100 102 100 78 c 0
 100 60 85 41 85 30 c 0
 85 18 100 10 123 10 c 0
EndSplineSet
Validated: 1
EndChar

StartChar: afii10073
Encoding: 1079 1079 603
Width: 336
Flags: MW
LayerCount: 2
Fore
SplineSet
139 440 m 0
 159 440 184 459 241 459 c 0
 309 459 371 434 371 371 c 0
 370 299 313 247 272 242 c 1
 300 236 333 218 333 170 c 0
 333 74 250 -10 113 -10 c 0
 22 -10 3 37 3 87 c 0
 3 99 4 111 6 123 c 1
 30 128 l 1
 30 121 l 2
 30 57 59 27 121 27 c 0
 167 27 248 64 248 158 c 0
 248 204 217 230 167 230 c 2
 128 230 l 1
 134 255 l 1
 171 255 l 2
 215 255 299 278 299 371 c 0
 299 411 270 437 232 437 c 0
 164 437 125 402 88 314 c 1
 73 314 l 1
 115 450 l 1
 126 450 l 1
 130 441.091 135.273 440 139 440 c 0
EndSplineSet
Validated: 1
EndChar

StartChar: afii10074
Encoding: 1080 1080 604
Width: 496
Flags: MW
LayerCount: 2
Fore
SplineSet
134 376 m 0
 134 396 115 400 74 400 c 1
 74 414 l 1
 131 421 167 428 224 441 c 1
 227 439 l 1
 136 76 l 2
 135 73 135 71 135 67 c 0
 135 52 144 42 156 42 c 0
 188 42 237 93 297 188 c 0
 343 261 350 277 407 432 c 1
 481 432 l 1
 402 133 l 2
 383 61 383 61 383 55 c 0
 383 44 387 38 394 38 c 0
 410 38 425 52 477 117 c 1
 491 108 l 1
 423 11 400 -9 353 -9 c 0
 323 -9 305 9 305 39 c 0
 305 60 321 129 350 236 c 1
 235 43 182 -11 111 -11 c 0
 76 -11 58 8 58 44 c 0
 58 62 65 96 83 167 c 0
 120 309 l 2
 129 343 134 368 134 376 c 0
EndSplineSet
EndChar

StartChar: afii10076
Encoding: 1082 1082 606
Width: 467
Flags: MW
LayerCount: 2
Fore
SplineSet
487 415 m 0
 487 378 455 372 433 372 c 0
 402 372 414 394 388 394 c 0
 362 394 345 254 267 240 c 1
 338 217 340 129 375 56 c 0
 393 19 399 18 442 15 c 1
 438 0 l 1
 300 0 l 1
 230 200 l 1
 223 222 205 224 189 224 c 2
 176 224 l 1
 114 0 l 1
 39 0 l 1
 135 350 l 1
 136 355 137 361 137 367 c 0
 137 387 124 393 73 394 c 1
 73 410 l 1
 160 426 179 430 233 441 c 1
 236 439 l 1
 184 252 l 1
 213 252 l 2
 334 252 303 460 438 460 c 0
 470 460 487 440 487 415 c 0
EndSplineSet
EndChar

StartChar: afii10077
Encoding: 1083 1083 607
Width: 500
Flags: MW
LayerCount: 2
Fore
SplineSet
198 260 m 2
 226 361 306 432 406 432 c 2
 480 432 l 1
 395 117 l 1
 381 61 381 61 381 54 c 0
 381 46 389 38 397 38 c 0
 411 38 428 54 458 91 c 2
 479 117 l 1
 493 104 l 1
 424 12 398 -9 353 -9 c 0
 320 -9 306 7 306 45 c 0
 306 55 308 69 322 120 c 0
 395 391 l 1
 393 391 l 2
 365 391 273 371 225 206 c 0
 182 57 123 -9 43 -9 c 0
 24 -9 -15 -7 -15 23 c 0
 -15 44 2 75 30 75 c 0
 56 75 65 50 82 50 c 0
 124 50 156 136 183 207 c 1
 198 260 l 2
EndSplineSet
EndChar

StartChar: afii10078
Encoding: 1084 1084 608
Width: 692
Flags: MW
LayerCount: 2
Fore
SplineSet
569 432 m 1
 673 432 l 1
 588 117 l 1
 574 61 574 61 574 54 c 0
 574 46 582 38 590 38 c 0
 604 38 621 54 651 91 c 2
 672 117 l 1
 686 104 l 1
 617 12 591 -9 546 -9 c 0
 513 -9 499 7 499 45 c 0
 499 55 501 69 515 120 c 0
 584 376 l 1
 346 -18 l 1
 316 -18 l 1
 290 375 l 1
 280 375 270 374 225 206 c 0
 178 31 123 -9 43 -9 c 0
 24 -9 -15 -7 -15 23 c 0
 -15 44 2 75 30 75 c 0
 56 75 65 50 82 50 c 0
 124 50 160 125 183 207 c 2
 198 260 l 2
 226 361 227 432 374 432 c 1
 394 128 l 1
 569 432 l 1
EndSplineSet
EndChar

StartChar: afii10079
Encoding: 1085 1085 609
Width: 501
Flags: MW
LayerCount: 2
Fore
SplineSet
169 198 m 1
 114 0 l 1
 39 0 l 1
 135 350 l 1
 136 355 137 361 137 367 c 0
 137 387 124 393 73 394 c 1
 73 410 l 1
 160 426 181 430 235 441 c 1
 238 439 l 1
 179 238 l 1
 361 238 l 1
 412 432 l 1
 486 432 l 1
 401 117 l 1
 387 61 387 61 387 54 c 0
 387 46 395 38 403 38 c 0
 417 38 434 54 464 91 c 2
 485 117 l 1
 499 104 l 1
 430 12 404 -9 359 -9 c 0
 326 -9 312 7 312 45 c 0
 312 55 313 70 328 120 c 0
 351 198 l 1
 169 198 l 1
EndSplineSet
EndChar

StartChar: afii10086
Encoding: 1092 1092 616
Width: 727
Flags: MW
LayerCount: 2
Fore
SplineSet
188 -143 m 0
 188 -158 179 -160 179 -170 c 0
 179 -179 187 -186 199 -186 c 0
 241 -186 274 -131 296 -24 c 0
 333 153 l 1
 244 26 198 -12 127 -12 c 0
 64 -12 25 34 25 105 c 0
 25 257 186 441 318 441 c 0
 359 441 379 432 385 400 c 1
 412 511 470 678 597 678 c 0
 646 678 683 650 683 613 c 0
 683 591 664 573 641 573 c 0
 619 573 604 589 604 613 c 0
 604 628 614 637 614 644 c 0
 614 651 605 656 592 656 c 0
 536 656 499 585 470 428 c 1
 453 332 l 1
 511 413 560 441 625 441 c 0
 696 441 740 394 740 316 c 0
 740 157 586 -11 440 -11 c 0
 417 -11 399 -7 374 6 c 1
 351 -86 280 -205 191 -205 c 0
 147 -205 112 -180 112 -146 c 0
 112 -123 128 -105 149 -105 c 0
 170 -105 188 -122 188 -143 c 0
650 312 m 0
 650 360 638 398 584 398 c 0
 535 398 479 350 453 284 c 0
 424 210 388 79 388 45 c 0
 388 23 408 8 436 8 c 0
 565 8 650 203 650 312 c 0
167 42 m 0
 262 42 380 239 380 358 c 0
 380 392 354 419 321 419 c 0
 229 419 111 234 111 119 c 0
 111 72 133 42 167 42 c 0
EndSplineSet
Validated: 1
EndChar

StartChar: afii10088
Encoding: 1094 1094 618
Width: 491
Flags: MW
LayerCount: 2
Fore
SplineSet
311 -103 m 1
 332 -90 398 -61 398 -8 c 0
 398 1 l 1
 384 -7 370 -9 353 -9 c 0
 323 -9 305 9 305 39 c 0
 305 60 321 129 350 236 c 1
 235 43 182 -11 111 -11 c 0
 76 -11 58 8 58 44 c 0
 58 62 65 96 83 167 c 0
 120 309 l 2
 129 343 134 368 134 376 c 0
 134 396 115 400 74 400 c 1
 74 414 l 1
 131 421 167 428 224 441 c 1
 227 439 l 1
 136 76 l 2
 135 73 135 71 135 67 c 0
 135 52 144 42 156 42 c 0
 188 42 237 93 297 188 c 0
 343 261 350 277 407 432 c 1
 481 432 l 1
 402 133 l 2
 383 61 383 61 383 55 c 0
 383 44 387 38 394 38 c 0
 410 38 425 52 477 117 c 1
 491 108 l 1
 429 19 427 33 427 14 c 0
 427 0 432 -19 432 -37 c 0
 432 -89 378 -99 322 -119 c 1
 311 -103 l 1
EndSplineSet
EndChar

StartChar: afii10089
Encoding: 1095 1095 619
Width: 493
Flags: MW
LayerCount: 2
Fore
SplineSet
135 376 m 0
 135 396 116 400 75 400 c 1
 75 414 l 1
 132 421 168 428 225 441 c 1
 228 439 l 1
 171 208 l 1
 170 205 170 203 170 199 c 0
 170 184 179 174 191 174 c 0
 223 174 269 232 332 318 c 0
 383 388 406 432 406 432 c 1
 478 432 l 1
 403 133 l 2
 385 61 384 61 384 55 c 0
 384 44 388 38 395 38 c 0
 411 38 426 52 478 117 c 1
 492 108 l 1
 424 11 401 -9 354 -9 c 0
 324 -9 306 9 306 39 c 0
 306 60 349 225 378 332 c 1
 263 139 217 121 146 121 c 0
 111 121 93 140 93 176 c 0
 93 194 100 228 118 299 c 1
 126 328 l 2
 135 362 135 368 135 376 c 0
EndSplineSet
EndChar

StartChar: afii10090
Encoding: 1096 1096 620
Width: 742
Flags: MW
LayerCount: 2
Fore
SplineSet
135 376 m 0
 135 396 116 400 75 400 c 1
 75 414 l 1
 132 421 168 428 225 441 c 1
 228 439 l 1
 137 76 l 2
 136 73 136 71 136 67 c 0
 136 52 145 42 157 42 c 0
 189 42 238 93 298 188 c 0
 344 261 351 277 408 432 c 1
 482 432 l 1
 403 133 l 2
 399 117 386 72 386 64 c 0
 386 50 396 42 407 42 c 0
 439 42 488 93 548 188 c 0
 594 261 601 277 658 432 c 1
 732 432 l 1
 653 133 l 2
 634 61 634 61 634 55 c 0
 634 44 638 38 645 38 c 0
 661 38 676 52 728 117 c 1
 742 108 l 1
 674 11 651 -9 604 -9 c 0
 574 -9 556 9 556 39 c 0
 556 60 572 129 601 236 c 1
 486 43 433 -11 362 -11 c 0
 327 -11 307 8 307 44 c 0
 307 65 322 129 351 236 c 1
 236 43 183 -11 112 -11 c 0
 77 -11 59 8 59 44 c 0
 59 62 66 96 84 167 c 0
 121 309 l 2
 130 343 135 368 135 376 c 0
EndSplineSet
EndChar

StartChar: afii10091
Encoding: 1097 1097 621
Width: 735
Flags: MW
LayerCount: 2
Fore
SplineSet
561 -103 m 1
 582 -90 648 -61 648 -8 c 0
 648 1 l 1
 634 -7 620 -9 603 -9 c 0
 573 -9 555 9 555 39 c 0
 555 60 571 129 600 236 c 1
 485 43 432 -11 361 -11 c 0
 326 -11 306 8 306 44 c 0
 306 65 321 129 350 236 c 1
 235 43 182 -11 111 -11 c 0
 76 -11 58 8 58 44 c 0
 58 62 65 96 83 167 c 0
 120 309 l 2
 129 343 134 368 134 376 c 0
 134 396 115 400 74 400 c 1
 74 414 l 1
 131 421 167 428 224 441 c 1
 227 439 l 1
 136 76 l 2
 135 73 135 71 135 67 c 0
 135 52 144 42 156 42 c 0
 188 42 237 93 297 188 c 0
 343 261 350 277 407 432 c 1
 481 432 l 1
 402 133 l 2
 398 117 385 72 385 64 c 0
 385 50 395 42 406 42 c 0
 438 42 487 93 547 188 c 0
 593 261 600 277 657 432 c 1
 731 432 l 1
 652 133 l 2
 633 61 633 61 633 55 c 0
 633 44 637 38 644 38 c 0
 660 38 675 52 727 117 c 1
 741 108 l 1
 679 19 677 33 677 14 c 0
 677 0 682 -19 682 -37 c 0
 682 -89 628 -99 572 -119 c 1
 561 -103 l 1
EndSplineSet
EndChar

StartChar: afii10092
Encoding: 1098 1098 622
Width: 533
Flags: MW
LayerCount: 2
Fore
SplineSet
495 134 m 0
 495 76 462 -11 272 -11 c 0
 152 -11 135 29 135 110 c 0
 135 209 205 320 278 386 c 1
 278 386 260 381 245 381 c 0
 210 381 203 397 167 397 c 0
 114 397 100 369 79 319 c 1
 63 323 l 1
 94 438 l 1
 118 447 146 452 167 452 c 0
 216 452 240 427 293 426 c 0
 319 426 356 434 388 445 c 1
 400 431 l 1
 363 415 293 341 256 253 c 2
 245 227 l 1
 268 240 299 259 339 259 c 0
 417 259 495 213 495 134 c 0
328 218 m 0
 281 218 225 162 225 162 c 1
 222 148 212 119 212 92 c 0
 212 59 226 28 283 28 c 0
 355 28 424 92 424 138 c 0
 424 188 388 218 328 218 c 0
EndSplineSet
EndChar

StartChar: afii10093
Encoding: 1099 1099 623
Width: 695
Flags: MW
LayerCount: 2
Fore
SplineSet
595 36 m 0
 612 36 639 64 677 114 c 1
 690 103 l 1
 633 19 596 -11 550 -11 c 0
 520 -11 504 9 504 46 c 0
 504 66 510 97 526 155 c 2
 574 332 l 1
 580 352 583 368 583 376 c 0
 583 396 573 399 520 400 c 1
 520 416 l 1
 559 419 579 422 680 441 c 1
 683 439 l 1
 595 117 l 1
 594 115 l 1
 594 113 l 1
 592 105 589 98 589 95 c 0
 582 76 579 61 579 51 c 0
 579 44 587 36 595 36 c 0
214 -11 m 0
 136 -11 78 19 78 110 c 0
 78 131 81 153 87 176 c 0
 135 350 l 1
 136 355 137 361 137 367 c 0
 137 387 124 393 73 394 c 1
 73 410 l 1
 160 426 181 430 235 441 c 1
 238 439 l 1
 178 227 l 1
 195 242 233 272 277 272 c 0
 353 272 433 220 433 141 c 0
 433 50 348 -11 214 -11 c 0
266 231 m 0
 222 231 168 182 168 182 c 1
 165 167 153 132 153 98 c 0
 153 62 167 28 221 28 c 0
 292 28 362 92 362 138 c 0
 362 191 326 231 266 231 c 0
EndSplineSet
EndChar

StartChar: afii10094
Encoding: 1100 1100 624
Width: 460
Flags: MW
LayerCount: 2
Fore
SplineSet
214 -11 m 0
 136 -11 78 19 78 110 c 0
 78 131 81 153 87 176 c 0
 135 350 l 1
 136 355 137 361 137 367 c 0
 137 387 124 393 73 394 c 1
 73 410 l 1
 160 426 181 430 235 441 c 1
 238 439 l 1
 178 227 l 1
 195 242 233 272 277 272 c 0
 353 272 433 220 433 141 c 0
 433 50 348 -11 214 -11 c 0
266 231 m 0
 222 231 168 182 168 182 c 1
 165 167 153 132 153 98 c 0
 153 62 167 28 221 28 c 0
 292 28 362 92 362 138 c 0
 362 191 326 231 266 231 c 0
EndSplineSet
EndChar

StartChar: afii10095
Encoding: 1101 1101 625
Width: 408
Flags: MW
LayerCount: 2
Fore
SplineSet
105 78 m 0
 105 60 90 41 90 30 c 0
 90 18 105 10 128 10 c 0
 199 10 288 79 318 216 c 1
 144 216 l 1
 154 253 l 1
 325 253 l 1
 326 266 327 278 327 291 c 0
 327 362 293 405 236 405 c 0
 187 405 148 383 93 324 c 1
 77 334 l 1
 137 410 192 441 266 441 c 0
 359 441 413 386 413 291 c 0
 413 135 273 -11 123 -11 c 0
 63 -11 18 24 18 70 c 0
 18 96 39 116 66 116 c 0
 90 116 105 102 105 78 c 0
EndSplineSet
EndChar

StartChar: afii10096
Encoding: 1102 1102 626
Width: 684
Flags: MW
LayerCount: 2
Fore
SplineSet
693 301 m 0
 693 172 562 -11 399 -11 c 0
 308 -11 252 43 252 129 c 0
 252 152 256 175 262 198 c 1
 169 198 l 1
 114 0 l 1
 39 0 l 1
 135 350 l 1
 136 355 137 361 137 367 c 0
 137 387 124 393 73 394 c 1
 73 410 l 1
 160 426 181 430 235 441 c 1
 238 439 l 1
 181 238 l 1
 276 238 l 1
 323 350 436 441 550 441 c 0
 635 441 693 384 693 301 c 0
414 10 m 0
 526 10 609 208 609 326 c 0
 609 383 581 420 538 420 c 0
 432 420 336 231 336 101 c 0
 336 46 367 10 414 10 c 0
EndSplineSet
EndChar

StartChar: afii10097
Encoding: 1103 1103 627
Width: 512
Flags: MW
LayerCount: 2
Fore
SplineSet
294 198 m 2
 220 195 234 -9 75 -9 c 0
 56 -9 17 -7 17 23 c 0
 17 44 34 75 62 75 c 0
 88 75 97 50 114 50 c 0
 156 50 186 128 213 199 c 1
 133 199 73 233 73 283 c 0
 73 372 187 432 344 432 c 2
 499 432 l 1
 414 117 l 1
 400 61 400 61 400 54 c 0
 400 46 408 38 416 38 c 0
 430 38 447 54 477 91 c 2
 498 117 l 1
 512 104 l 1
 443 12 417 -9 372 -9 c 0
 339 -9 325 7 325 45 c 0
 325 55 326 70 341 120 c 0
 364 198 l 1
 294 198 l 2
370 396 m 0
 210 396 182 315 182 295 c 0
 182 240 265 232 372 232 c 1
 406 355 l 2
 408 363 410 370 410 376 c 0
 410 388 402 396 370 396 c 0
EndSplineSet
Validated: 1
EndChar

StartChar: afii10099
Encoding: 1106 1106 630
Width: 498
Flags: MW
LayerCount: 2
Fore
SplineSet
140 -89 m 0
 196 -89 182 -174 233 -174 c 0
 275 -174 284 -132 306 -51 c 2
 380 217 l 2
 385 233 387 247 387 260 c 0
 387 309 355 334 307 334 c 0
 280 334 253 323 214 299 c 1
 137 0 l 1
 62 0 l 1
 190 486 l 1
 107 486 l 1
 118 537 l 1
 204 537 l 1
 206 552 221 589 221 617 c 0
 221 629 203 643 189 643 c 0
 182 643 184 641 180 641 c 2
 154 641 l 1
 154 656 l 1
 214 663 253 670 311 683 c 1
 316 678 l 1
 278 537 l 1
 419 537 l 1
 408 486 l 1
 265 486 l 1
 223 331 l 1
 267 363 302 379 340 379 c 0
 419 379 470 330 470 253 c 0
 470 235 467 216 462 196 c 2
 399 -30 l 2
 367 -144 309 -203 229 -203 c 0
 167 -203 101 -168 101 -127 c 0
 101 -104 120 -89 140 -89 c 0
EndSplineSet
EndChar

StartChar: afii10100
Encoding: 1107 1107 631
Width: 359
Flags: MW
LayerCount: 2
Fore
SplineSet
230 491 m 1
 392 651 l 2
 399 657 407 661 417 661 c 0
 437 661 453 645 453 625 c 0
 453 613 448 604 436 597 c 2
 265 491 l 1
 230 491 l 1
106 450 m 1
 439 450 l 1
 409 325 l 1
 391 325 l 1
 393 341 395 354 395 365 c 0
 395 404 378 413 331 413 c 2
 241 413 l 1
 149 81 l 0
 145 67 143 57 143 48 c 0
 143 26 157 19 192 15 c 1
 188 0 l 1
 -20 0 l 1
 -16 15 l 1
 35 19 52 35 65 81 c 2
 145 369 l 0
 149 383 151 393 151 402 c 0
 151 424 137 431 102 435 c 1
 106 450 l 1
EndSplineSet
EndChar

StartChar: afii10101
Encoding: 1108 1108 632
Width: 444
Flags: MW
LayerCount: 2
Fore
SplineSet
457 375 m 0
 457 327 410 315 395 315 c 0
 374 315 361 333 361 361 c 2
 361 383 l 2
 361 420 351 431 315 431 c 0
 233 431 158 358 130 253 c 1
 307 253 l 1
 297 216 l 1
 122 216 l 1
 120 205 120 194 120 184 c 0
 120 109 161 62 232 62 c 0
 289 62 331 86 399 156 c 1
 410 147 l 1
 350 69 275 -10 170 -10 c 0
 82 -10 31 48 31 137 c 0
 31 331 209 460 329 460 c 0
 404 460 457 423 457 375 c 0
EndSplineSet
EndChar

StartChar: afii10102
Encoding: 1109 1109 633
Width: 345
Flags: MW
LayerCount: 2
Fore
SplineSet
160 -11 m 0
 121 -11 89 8 56 8 c 0
 46 8 40 3 32 -13 c 1
 16 -13 l 1
 36 146 l 1
 52 146 l 1
 68 51 99 10 154 10 c 0
 198 10 228 42 228 87 c 0
 228 175 109 236 109 331 c 0
 109 398 157 441 230 441 c 0
 267 441 300 424 322 424 c 0
 336 424 344 428 352 442 c 1
 366 442 l 1
 346 303 l 1
 330 303 l 1
 320 381 290 418 238 418 c 0
 203 418 182 397 182 364 c 0
 182 290 304 215 304 119 c 0
 304 43 244 -11 160 -11 c 0
EndSplineSet
Validated: 1
EndChar

StartChar: afii10106
Encoding: 1113 1113 637
Width: 726
Flags: MW
LayerCount: 2
Fore
SplineSet
523 231 m 0
 479 231 425 182 425 182 c 1
 422 167 410 132 410 98 c 0
 410 62 424 28 478 28 c 0
 549 28 619 92 619 138 c 0
 619 191 583 231 523 231 c 0
490 432 m 1
 435 227 l 1
 452 242 490 272 534 272 c 0
 613 272 690 216 690 132 c 0
 690 26 573 -11 467 -11 c 0
 368 -11 338 40 338 110 c 0
 338 131 341 153 347 176 c 2
 405 391 l 1
 403 391 l 2
 375 391 283 371 235 206 c 0
 192 57 133 -9 53 -9 c 0
 34 -9 -5 -7 -5 23 c 0
 -5 59 12 75 40 75 c 0
 66 75 75 50 92 50 c 0
 134 50 166 136 193 207 c 2
 208 260 l 2
 236 361 316 432 416 432 c 2
 490 432 l 1
EndSplineSet
EndChar

StartChar: afii10107
Encoding: 1114 1114 638
Width: 717
Flags: MW
LayerCount: 2
Fore
SplineSet
516 231 m 0
 472 231 418 182 418 182 c 1
 415 167 403 132 403 98 c 0
 403 62 417 28 471 28 c 0
 542 28 612 92 612 138 c 0
 612 191 576 231 516 231 c 0
341 176 m 2
 348 198 l 1
 166 198 l 1
 111 0 l 1
 36 0 l 1
 132 350 l 2
 133 355 134 361 134 367 c 0
 134 387 121 393 70 394 c 1
 70 410 l 1
 157 426 178 430 232 441 c 1
 235 439 l 1
 176 238 l 1
 358 238 l 1
 409 432 l 1
 483 432 l 1
 428 227 l 1
 445 242 483 272 527 272 c 0
 606 272 683 216 683 132 c 0
 683 26 566 -11 460 -11 c 0
 361 -11 331 40 331 110 c 0
 331 131 334 154 341 176 c 2
EndSplineSet
EndChar

StartChar: afii10108
Encoding: 1115 1115 639
Width: 523
Flags: MW
LayerCount: 2
Fore
SplineSet
190 643 m 0
 183 643 185 641 181 641 c 2
 155 641 l 1
 155 656 l 1
 215 663 254 670 312 683 c 1
 317 678 l 1
 279 537 l 1
 420 537 l 1
 409 486 l 1
 266 486 l 1
 197 230 l 1
 290 375 361 441 426 441 c 0
 465 441 492 414 492 374 c 0
 492 316 411 92 411 56 c 0
 411 47 418 38 427 38 c 0
 443 38 455 49 509 117 c 1
 522 105 l 1
 462 18 427 -9 376 -9 c 0
 349 -9 332 7 332 33 c 0
 332 45 339 76 352 125 c 2
 407 332 l 2
 411 348 414 361 414 365 c 0
 414 378 401 390 386 390 c 0
 351 390 283 328 231 249 c 0
 191 188 178 154 138 0 c 1
 63 0 l 1
 191 486 l 1
 108 486 l 1
 119 537 l 1
 205 537 l 1
 207 552 222 589 222 617 c 0
 222 629 204 643 190 643 c 0
EndSplineSet
EndChar

StartChar: afii10193
Encoding: 1119 1119 643
Width: 523
Flags: MW
LayerCount: 2
Fore
SplineSet
134 376 m 0
 134 396 115 400 74 400 c 1
 74 414 l 1
 131 421 167 428 224 441 c 1
 227 439 l 1
 136 76 l 2
 135 73 135 71 135 67 c 0
 135 52 144 42 156 42 c 0
 188 42 237 93 297 188 c 0
 343 261 350 277 407 432 c 1
 481 432 l 1
 402 133 l 2
 383 61 383 61 383 55 c 0
 383 44 387 38 394 38 c 0
 410 38 425 52 477 117 c 1
 491 108 l 1
 423 11 400 -9 353 -9 c 0
 323 -9 305 9 305 39 c 0
 305 60 321 129 350 236 c 1
 281 120 234 54 192 20 c 1
 192 14 l 0
 192 0 197 -19 197 -37 c 0
 197 -95 126 -105 87 -119 c 1
 76 -103 l 1
 114 -79 163 -61 163 -8 c 0
 163 1 l 1
 146 -8 129 -11 111 -11 c 0
 76 -11 58 8 58 44 c 0
 58 62 65 96 83 167 c 2
 120 309 l 2
 129 343 134 368 134 376 c 0
EndSplineSet
EndChar

StartChar: uni048C
Encoding: 1164 1164 644
Width: 581
Flags: MW
LayerCount: 2
Fore
SplineSet
222 37 m 0
 422 37 469 156 469 237 c 0
 469 301 421 334 328 334 c 0
 308 334 294 333 270 331 c 1
 198 71 l 2
 196 63 195 57 195 53 c 0
 195 41 203 37 222 37 c 0
575 230 m 0
 575 92 439 0 256 0 c 2
 -8 0 l 1
 -8 19 l 1
 69 27 86 37 106 109 c 2
 217 504 l 1
 143 504 l 1
 154 555 l 1
 231 555 l 1
 235 571 237 584 237 594 c 0
 237 623 219 630 169 634 c 1
 169 653 l 1
 449 653 l 1
 449 634 l 1
 373 631 352 618 333 555 c 1
 433 555 l 1
 422 504 l 1
 319 504 l 1
 281 371 l 1
 308 373 325 374 351 374 c 0
 486 374 575 338 575 230 c 0
EndSplineSet
Validated: 1
EndChar

StartChar: uni048D
Encoding: 1165 1165 645
Width: 459
Flags: MW
LayerCount: 2
Fore
SplineSet
274 231 m 0
 230 231 176 182 176 182 c 1
 173 167 161 132 161 98 c 0
 161 62 175 28 229 28 c 0
 300 28 370 92 370 138 c 0
 370 191 334 231 274 231 c 0
222 -11 m 0
 144 -11 86 19 86 110 c 0
 86 131 89 153 95 176 c 2
 129 299 l 1
 64 299 l 1
 75 350 l 1
 143 350 l 1
 144 355 145 361 145 367 c 0
 145 387 132 393 81 394 c 1
 81 410 l 1
 168 426 189 430 243 441 c 1
 246 439 l 1
 221 350 l 1
 296 350 l 1
 285 299 l 1
 206 299 l 1
 186 227 l 1
 203 242 241 272 285 272 c 0
 361 272 441 220 441 141 c 0
 441 50 356 -11 222 -11 c 0
EndSplineSet
EndChar

